<?xml version="1.0" encoding="UTF-8" standalone="no"?>
<svg
   xmlns:dc="http://purl.org/dc/elements/1.1/"
   xmlns:cc="http://creativecommons.org/ns#"
   xmlns:rdf="http://www.w3.org/1999/02/22-rdf-syntax-ns#"
   xmlns:svg="http://www.w3.org/2000/svg"
   xmlns="http://www.w3.org/2000/svg"
   id="svg10"
   xml:space="preserve"
   enable-background="new 0 0 300 300"
   viewBox="0 0 300 300"
   height="300px"
   width="300px"
   y="0px"
   x="0px"
   i:pageBounds="0 792 612 0"
   i:rulerOrigin="0 0"
   i:viewOrigin="156.5 545.5"
   version="1.1"><metadata
   id="metadata16"><rdf:RDF><cc:Work
       rdf:about=""><dc:format>image/svg+xml</dc:format><dc:type
         rdf:resource="http://purl.org/dc/dcmitype/StillImage" /><dc:title></dc:title></cc:Work></rdf:RDF></metadata><defs
   id="defs14" />
 
<g
   transform="translate(2.5623903,1.2811962)"
   id="g90"><path
     id="path6"
     d="m 244.125,35.768 c 2.13,2.748 0.85655,6.238314 0.354,9.287 -2.3583,24.930959 -16.65077,47.065421 -31.778,63.666 -4.744,4.223 -8.541,11.127 -15.67,11.181 -5.896,0.812 -11.504,-5.206 -9.663,-11.04 0.218,-2.537 2.565,-3.824 4.397,-5.172 14.758,-10.536 28.782,-22.773 38.477,-38.276 5.041,-9.689 9.992,-19.434 13.883,-29.646 z" /><path
     id="path10"
     d="m 49.825,49.818 c 7.148,-7.179 17.467,-10.011 27.332,-10.528 0.921,1.945 1.748,3.985 1.447,6.187 -3.934,1.354 -8.314,1.699 -11.693,4.35 -6.622,4.632 -8.643,13.176 -9.561,20.74 -1.627,21.894 5.001,43.516 14.263,63.115 7.467,3.93 16.048,4.759 24.346,5.028 4.222,0.277 8.517,-0.066 12.584,-1.269 8.974,-2.88 15.783,-9.971 24.586,-13.221 4.016,-1.211 9.51,-0.006 11.153,4.285 1.383,2.717 0.147,5.84 -1.3,8.254 -3.376,5.205 -9.041,8.406 -14.747,10.47 -17.21864,4.47152 -38.940362,3.90916 -53.396,-3.862 C 66.685,139.263 60.253,132.271 55.823,124.375 47.251,110.787 40.782,95.387 39.835,79.2 39.149,68.653 41.913,57.259 49.825,49.818 Z" /><path
     id="path18"
     d="m 155.741,63.939 c 8.688,-1.071 17.955,3.643 21.772,11.618 6.005,10.473 0.533,25.162 -10.602,29.544 -6.722,3.077 -14.895,2.093 -20.917,-2.1 -7.339,-5.235 -11.24,-15.357 -8.151,-24.022 2.415,-7.956 9.661,-13.98 17.898,-15.04 z" /><path
     id="path22"
     d="m 174.482,188.994 c 0.469,-3.965 3.74614,-7.355 7.465,-8.097 3.90688,-0.77952 7.918,1.162 11.517,2.743 12.171,6.438 20.735,18.767 23.558,32.145 2.045,8.279 0.434,17.361 -4.596,24.282 -7.144,9.097 -16.49046,16.48913 -27.201,21.004 -8.05319,3.3947 -16.504,5.677 -25.004,7.575 -3.953,1.002 -7.918,2.603 -12.074,2.104 8.14,-5.388 17.558,-8.31 26.335,-12.438 11.05,-5.641 21.26,-14.819 24.498,-27.197 2.023,-6.217 0.869,-13.627 -4.067,-18.176 -5.311,-4.752 -12.218,-7.604 -16.818,-13.186 -2.29,-3.046 -4.366,-6.819 -3.613,-10.759 z" /><path
     id="path26"
     d="m 147.012,195.006 c 2.957,-6.598 10.41599,-14.04189 17.605,-10.639 8.25334,5.23993 5.7528,16.89553 3.785,24.208 -1.896,6.341 -4.396,12.517 -7.581,18.325 -7.499,15.258 -17.064,29.691 -29.447,41.434 -11.611,11.432 -25.923,19.722 -40.884,25.957 -1.209,0.4 -2.455,0.543 -3.737,0.428 5.313,-4.364 10.734,-8.604 15.914,-13.128 10.025,-9.138 17.601,-20.513 24.97,-31.795 3.083,-5.647 7.124,-10.813 9.18,-16.974 4.042,-12.423 4.912,-25.784 10.195,-37.816 z" /><path
     i:knockout="Off"
     d="m 250.333,4.333 c 4.418,0 8,3.582 8,8 0,4.418 -3.582,8 -8,8 -4.418,0 -8,-3.582 -8,-8 0,-4.418 3.582,-8 8,-8 m 0,6 c -1.103,0 -2,0.897 -2,2 0,1.103 0.897,2 2,2 1.103,0 2,-0.897 2,-2 0,-1.103 -0.897,-2 -2,-2 z"
     id="path31" /></g>
<path
   style="fill:#ffffff;fill-rule:evenodd;stroke:#000000;stroke-width:1px;stroke-linecap:butt;stroke-linejoin:miter;stroke-opacity:1"
   d="m 64.830509,125.84746 c 0,0 -16.901813,-29.813237 -18.644068,-44.491528 -2.728023,-22.983259 17.372881,-33.050847 17.372881,-33.050847 0,0 -9.852872,17.999593 -8.898305,33.898305 0.895257,14.910884 10.169492,43.64407 10.169492,43.64407 z"
   id="path14" /></svg>