<?xml version="1.0" encoding="UTF-8" standalone="no"?>
<!-- Generator: Adobe Illustrator 14.0.0, SVG Export Plug-In . SVG Version: 6.00 Build 43363)  -->

<svg
   xmlns:dc="http://purl.org/dc/elements/1.1/"
   xmlns:cc="http://creativecommons.org/ns#"
   xmlns:rdf="http://www.w3.org/1999/02/22-rdf-syntax-ns#"
   xmlns:svg="http://www.w3.org/2000/svg"
   xmlns="http://www.w3.org/2000/svg"
   xmlns:sodipodi="http://sodipodi.sourceforge.net/DTD/sodipodi-0.dtd"
   xmlns:inkscape="http://www.inkscape.org/namespaces/inkscape"
   version="1.1"
   id="Layer_1"
   x="0px"
   y="0px"
   width="300px"
   height="300px"
   viewBox="0 0 300 300"
   enable-background="new 0 0 300 300"
   xml:space="preserve"
   sodipodi:docname="Basque_pelota_pictogram.svg"
   inkscape:version="0.92.3 (2405546, 2018-03-11)"><metadata
   id="metadata17"><rdf:RDF><cc:Work
       rdf:about=""><dc:format>image/svg+xml</dc:format><dc:type
         rdf:resource="http://purl.org/dc/dcmitype/StillImage" /><dc:title></dc:title></cc:Work></rdf:RDF></metadata><defs
   id="defs15" /><sodipodi:namedview
   pagecolor="#ffffff"
   bordercolor="#666666"
   borderopacity="1"
   objecttolerance="10"
   gridtolerance="10"
   guidetolerance="10"
   inkscape:pageopacity="0"
   inkscape:pageshadow="2"
   inkscape:window-width="1280"
   inkscape:window-height="969"
   id="namedview13"
   showgrid="false"
   inkscape:zoom="1.4176784"
   inkscape:cx="103.88216"
   inkscape:cy="220.86601"
   inkscape:window-x="0"
   inkscape:window-y="27"
   inkscape:window-maximized="1"
   inkscape:current-layer="Layer_1" />
<path
   d="m 27.398233,80.543705 c 1.433808,6.905303 3.988951,15.232903 8.832228,17.807693 2.169198,1.56385 4.45075,0.50472 5.825554,-1.59604 C 43.956365,92.388288 42.68218,86.05829 41.497243,80.712681 39.095017,70.677722 35.25961,60.339891 35.772656,50.107943 36.938908,38.180048 43.066208,30.3805 49.065135,24.503034 c 3.01524,-1.891292 5.557157,-3.787596 8.582491,-5.656087 -0.241279,-0.249684 0.241285,0.249684 0,0 -5.287859,-1.372105 -11.179849,-0.392049 -15.650374,2.325303 -8.610147,6.042458 -15.550061,17.692086 -16.920802,33.333313 -0.549307,8.414096 0.73946,17.369372 2.321783,26.038142 z"
   id="path2"
   inkscape:connector-curvature="0"
   style="stroke-width:0.76223254"
   sodipodi:nodetypes="ccccccccccc" />

<path
   d="m 141.1572,184.20492 c 0.475,-6.606 -1.444,-13.866 -7.253,-17.691 -4.654,-0.321 -9.977,0.151 -13.354,3.76 -4.699,4.545 -6.321,11.189 -7.178,17.446 -1.63,13.472 -1.086,27.088 -2.372,40.587 -0.786,6.619 -3.567,12.797 -6.652,18.635 -5.393997,10.496 -12.389997,20.113 -20.159997,28.971 -7.607,9.049 -17.531,15.704 -27.212,22.293 0.61,0.098 1.83,0.294 2.44,0.393 24.218,-5.776 44.947997,-22.061 59.384997,-41.996 7.229,-10.599 12.434,-22.523 15.511,-34.973 3.004,-12.315 6.094,-24.73 6.845,-37.425 z"
   id="path6"
   inkscape:connector-curvature="0" />
<path
   d="m 184.94398,175.19431 c -4.396,-4.091 -9.263,-7.987 -15.14,-9.65 -5.112,-1.453 -11.095,-2.705 -15.772,0.633 -3.088,2.721 -3.812,7.488 -2.955,11.32 3.792,9.474 12.719,15.269 20.452,21.295 4.84,4.294 11.534,7.783 12.778,14.757 -1.429,4.103 -4.589,7.215 -7.464,10.34 -12.199,12.637 -26.716,22.655 -40.033,34.021 0.385,0.152 1.155,0.453 1.54,0.604 10.719,-3.593 21.663,-6.913 31.589,-12.45 7.552,-3.94 15.117,-7.971 21.868,-13.209 4.069,-3.192 8.208,-6.566 10.827,-11.11 2.296,-4.967 2.681,-10.717 1.239,-15.982 -3.089,-11.787 -10.057,-22.317 -18.929,-30.569 z"
   id="path8"
   inkscape:connector-curvature="0" />
<circle
   cx="148.55725"
   cy="67.763321"
   r="22"
   id="circle10" />
<path
   d="m 100.0695,130.33346 c 8.06463,-2.17313 17.99868,-6.09139 22.09259,-13.66993 2.2917,-3.38954 1.68571,-6.98569 -0.31094,-9.16939 -4.39217,-3.03525 -11.77476,-1.10627 -18.03675,0.6938 -11.800071,3.65848 -24.299511,9.56481 -35.58396,8.64157 -13.01155,-1.96878 -21.131244,-10.58334 -26.174425,-20.074152 -1.349191,-4.758171 -1.858565,-9.87285 -3.179766,-14.646637 -0.339378,0.376157 -1.017187,1.127757 -1.356576,1.503919 -2.864439,8.290707 -1.900823,16.053478 0.0028,23.10717 10.916968,8.65691 17.224064,18.2813 34.32629,20.61387 9.247472,0.95936 18.151476,5.38599 28.220737,2.99978 z"
   id="path2-3"
   inkscape:connector-curvature="0"
   style="stroke-width:1.009835"
   sodipodi:nodetypes="cccccccccccc" /><path
   d="m 196.08019,95.897684 c -5.06944,11.669256 -14.56457,7.815406 -19.37604,8.232266 -2.39865,0.48702 -3.31707,-0.97806 -3.00265,-2.93036 1.30278,-3.768585 8.0388,-13.654687 12.01404,-17.204961 7.58302,-6.610878 12.08517,-11.598672 17.80855,-19.235975 6.2868,-9.07518 9.77341,-12.703149 9.19363,-18.816725 -0.92209,-2.295639 -2.41707,-4.149378 -3.35956,-6.431401 0.31175,-0.109542 3.75596,-6.67663 4.0677,-6.786177 4.39929,0.597182 3.74478,9.883382 5.16326,13.22371 2.25225,7.024586 0.045,17.643831 -8.30646,29.496236 -4.62015,6.318997 -7.98597,14.593367 -14.20247,20.453387 z"
   id="path2-3-6"
   inkscape:connector-curvature="0"
   style="stroke-width:0.62641007"
   sodipodi:nodetypes="ccccccccccc" /><ellipse
   cx="225.36845"
   cy="10.794769"
   id="circle10-7"
   rx="8.9504957"
   ry="8.5978069"
   style="stroke-width:0.39874449" /></svg>