<?xml version="1.0" encoding="UTF-8" standalone="no"?>
<svg
   xmlns:dc="http://purl.org/dc/elements/1.1/"
   xmlns:cc="http://creativecommons.org/ns#"
   xmlns:rdf="http://www.w3.org/1999/02/22-rdf-syntax-ns#"
   xmlns:svg="http://www.w3.org/2000/svg"
   xmlns="http://www.w3.org/2000/svg"
   id="svg24"
   xml:space="preserve"
   viewBox="0 0 300 300"
   version="1.1"
   enable-background="new 0 0 300 300"><defs
   id="defs28" /><metadata
   id="metadata2"><rdf:RDF><cc:Work
       rdf:about=""><dc:format>image/svg+xml</dc:format><dc:type
         rdf:resource="http://purl.org/dc/dcmitype/StillImage" /><dc:title></dc:title></cc:Work></rdf:RDF></metadata>
<path
   id="path4"
   d="m215.97 69.19a21.735 21.895 0 0 1 -24.3 18.871 21.735 21.895 0 0 1 -18.82 -24.41 21.735 21.895 0 0 1 24.164 -19.047 21.735 21.895 0 0 1 18.995 24.273" /><path
   id="path6"
   stroke-width=".1"
   stroke-miterlimit="10"
   stroke="#000"
   fill="none"
   d="m192.23 44.406c7.242-0.69 14.904 2.288 19.447 8.051 3.188 3.585 4.577 8.364 5.117 13.04-0.212 7.188-3.854 14.218-9.873 18.234-5.979 3.839-13.795 4.888-20.426 2.145-11.07-3.822-17.593-17.963-12.082-28.604 3.063-7.158 10.185-11.946 17.817-12.866z" /><path
   id="path8"
   stroke-width=".1"
   stroke-miterlimit="10"
   stroke="#000"
   fill="none"
   d="m96.58 73.439c16.462-7.764 35.76-8.629 53.077-3.264 2.838 2.148 5.039 4.944 6.255 8.309-0.396 3.537-1.635 7.271-4.721 9.356-3.641 2.662-8.464 2.075-12.628 1.315-8.156-1.93-16.466-3.967-24.917-3.309-16.976 1.485-32.962 8.415-47.519 16.973-5.635 2.902-10.179 7.494-15.796 10.402 3.213-7.02 8.248-12.953 13.976-18.052 10.25-7.944 19.986-16.987 32.273-21.73z" /><path
   id="path10"
   d="m96.58 73.439c16.69-7.2609 35.76-8.629 53.077-3.264 2.838 2.148 5.9469 4.856 6.255 8.309 0.31044 3.4794-1.635 7.271-4.721 9.356-3.641 2.662-8.464 2.075-12.628 1.315-8.156-1.93-16.47-4.0209-24.917-3.309-16.981 1.4311-32.962 8.415-47.519 16.973-5.635 2.902-10.179 7.494-15.796 10.402 3.213-7.02 8.0353-13.203 13.976-18.052 10.046-8.2006 20.196-16.476 32.273-21.73z" /><path
   id="path12"
   stroke-width=".1"
   stroke-miterlimit="10"
   stroke="#000"
   fill="none"
   d="m194.59 103.45c3.458-4.062 9.354-2.919 13.749-1.248 1.233 1.694 2.743 3.262 3.417 5.296 2.389 6.455 3.707 13.248 4.617 20.054 3.567 19.234 6.104 38.642 8.207 58.086 0.922 5.926 1.117 11.939 0.732 17.922-1.128-1.488-2.104-3.094-2.762-4.844-10.523-25.305-21.588-50.471-29.102-76.873-2.022-5.901-3.395-13.274 1.142-18.393z" /><path
   id="path14"
   d="m194.59 103.45c6.1124-4.9179 14.863-2.545 17.166 4.048 2.389 6.455 3.707 13.248 4.617 20.054 3.0518 28.546 10.461 48.234 8.939 76.008-1.128-1.488-2.104-3.094-2.762-4.844-10.523-25.305-21.588-50.471-29.102-76.873-2.022-5.901-3.395-13.274 1.142-18.393z" /><path
   id="path16"
   stroke-width=".1"
   stroke-miterlimit="10"
   stroke="#000"
   fill="none"
   d="m113.69 157.69c-3.54-7.795 3.76-17.211 12.017-16.727 7.033 0.431 14.006 1.646 20.823 3.417 4.007 1.314 8.68-0.848 12.319 1.789 2.186 1.161 2.521 4.131 4.804 5.164 8.957 4.984 17.328 12.715 19.484 23.133 2.155 17.548-1.814 35.66-10.116 51.199-3.6 6.936-7.68 13.609-11.277 20.547 1.273-16.219 5.356-32.321 4.202-48.67-1.211-6.605-1.239-14.97-7.696-18.888-4.756 9.7-9.176 19.839-16.563 27.896-7.498 7.593-15.308 15.063-24.514 20.569-16.668 9.666-35.703 15.017-54.844 16.562 6.733-3.66 14.452-5.265 20.891-9.53 12.359-7.997 24.369-16.889 33.967-28.139 8.045-9.883 11.954-22.3 14.836-34.515-7.41-2.29-15.288-6.157-18.333-13.807z" /><path
   id="path18"
   d="m113.69 157.69c-3.54-7.795 3.76-17.211 12.017-16.727 7.033 0.431 14.006 1.646 20.823 3.417 4.007 1.314 8.68-0.848 12.319 1.789 2.186 1.161 2.521 4.131 4.804 5.164 8.957 4.984 17.328 12.715 19.484 23.133 2.155 17.548-1.814 35.66-10.116 51.199-3.6 6.936-7.68 13.609-11.277 20.547 1.273-16.219 5.356-32.321 4.202-48.67-1.211-6.605-1.239-14.97-7.696-18.888-4.756 9.7-9.0297 19.976-16.563 27.896-7.3543 7.7323-15.308 15.063-24.514 20.569-16.668 9.666-35.703 15.017-54.844 16.562 6.733-3.66 14.452-5.265 20.891-9.53 12.359-7.997 24.49-16.787 33.967-28.139 8.167-9.7825 11.954-22.3 14.836-34.515-7.41-2.29-15.288-6.157-18.333-13.807z" /><g
   id="g22"
   transform="translate(.6406 -4.4842)">
		<path
   id="path20"
   d="m229.84 209.04c10.765 0 19.49 8.727 19.49 19.49s-8.726 19.49-19.49 19.49-19.49-8.727-19.49-19.49 8.725-19.49 19.49-19.49m0 6c-7.438 0-13.49 6.052-13.49 13.49s6.052 13.49 13.49 13.49 13.49-6.052 13.49-13.49-6.052-13.49-13.49-13.49z" />
	</g>
</svg>