<?xml version="1.0" encoding="UTF-8"?>
<svg width="600pt" height="600pt" version="1.0" viewBox="0 0 600 600" xmlns="http://www.w3.org/2000/svg" xmlns:cc="http://creativecommons.org/ns#" xmlns:dc="http://purl.org/dc/elements/1.1/" xmlns:rdf="http://www.w3.org/1999/02/22-rdf-syntax-ns#">
 <metadata>Created by potrace 1.14, written by Peter Selinger 2001-2017
  <rdf:RDF>
   <cc:Work rdf:about="">
    <dc:format>image/svg+xml</dc:format>
    <dc:type rdf:resource="http://purl.org/dc/dcmitype/StillImage"/>
    <dc:title/>
   </cc:Work>
  </rdf:RDF>
 </metadata>
 <g transform="matrix(.89328 0 0 .89328 351.76 45.042)">
  <path d="m261.68 60.491c-3.119-1.041-6.429-0.608-9.647-0.671-34.329-9e-3 -68.658 0.018-102.99-0.014-2.686 0-5.323 0.677-8.012 0.592-15.008-0.049-30.016 0.012-45.024-0.032-2.301 0.016-4.718-0.257-6.85 0.805-5.391-0.579-10.764-1.362-16.168-1.778-3.237 0.512-7.2 0.196-9.555 2.909-4.099 4.011-4.292 10.837-1.61 15.674 2.401 2.331 5.847 3.376 9.151 3.259 9.397 0.064 18.827-0.498 28.091-2.136 14.491-1.895 28.916-4.441 43.443-6.017 3.444 8.008 9.122 15.214 16.646 19.739 8.406 5.611 19.517 5.958 28.819 2.508 3.543-2.13 6.364-5.241 9.004-8.378 5.121-6.614 9.323-14.045 11.418-22.192 17.68-0.012 35.381 0.328 53.048-0.172 0.327-1.345 0.374-2.723 0.232-4.096zm-76.698 23.466c-6.2 0.523-12.957-1.975-16.703-7.13-1.592-2.103-3.09-4.273-4.586-6.442 12.037-0.028 24.076 0.035 36.115-0.033-4.416 5.024-7.709 11.973-14.826 13.605z"/>
  <path d="m205.45 274.78c-3.291-11.554-6.318-23.183-9.826-34.67-8.076-24.559-19.529-48.096-34.467-69.23-4.799-5.919-8.688-12.571-14.052-18.022-4.199-4.49-9.908-7.494-15.969-8.466-3.709 0.545-7.37 2.164-9.404 5.464-4.034 5.248-2.503 12.543 0.796 17.742 5.038 8.633 12.812 15.068 19.463 22.371 23.412 25.445 40.601 55.686 57.494 85.636 2.256 4.551 3.506 9.61 6.6 13.73 1.006-1.285 0.711-2.905 0.625-4.382-0.332-3.402-0.255-6.878-1.26-10.173z"/>
  <path d="m101.42 146.61c-4.956 1.333-7.8 6.107-9.266 10.692-2.591 7.976-1.682 16.445-1.838 24.682 0.128 32.878-8.523 64.867-16.708 96.451-1.226 4.595-4.424 8.646-4.483 13.521 0.548 1.409 1.599-0.176 2.034-0.706 2.085-2.68 4.344-5.237 6.198-8.085 7.13-12.926 14.235-25.875 20.653-39.172 10.932-24.299 18.768-50.268 20.648-76.944 0.531-7.061-1.869-14.447-6.974-19.441-3.106-1.647-6.898-1.946-10.264-0.998z"/>
  <circle cx="121.46" cy="35.336" r="21.875"/>
 </g>
 <g transform="matrix(.87767 0 0 .87767 313.72 319.96)">
  <path d="m86.719 98.177c6.218 3.646 14.559 6.958 21.271 2.658 3.289-1.597 4.886-5.442 4.841-8.93-1.07-5.993-6.729-9.388-11.619-12.112-9.361-4.88-20.392-8.12-26.916-16.987-7.026-11.083-7.355-25.015-5.286-37.601 1.772-5.475 4.263-10.694 6.061-16.164-0.418 0.117-1.253 0.351-1.671 0.468-6.337 5.847-9.999 13.903-12.686 21.951-4.618 16.148-3.671 34.592 5.704 48.917 5.235 7.459 12.717 12.937 20.301 17.8z"/>
  <path d="m260.99 131.85c-1.292-0.137-2.858 0.275-3.888-0.739-4.641-3.924-9.032-8.135-13.448-12.307-0.043 4.083-0.027 8.168-0.048 12.252-10.529-1.001-21.028-2.325-31.533-3.556-13.396-1.748-25.248-8.629-37.889-12.854-6.906-2.434-14.95-2.71-21.434 1.066-3.179 1.724-3.316 6.125-1.469 8.888 4.192 7.684 13.647 9.41 21.472 11.044 12.358 1.583 24.815 2.453 37.275 2.768 11.254 0.31 22.443-1.152 33.573-2.631-0.022 4.03 0.028 8.062 0.304 12.086 4.975-4.031 9.19-8.942 14.209-12.9 13.95-0.347 27.928-0.04 41.889-0.144v-3c-13.004 0.014-26.009-0.031-39.013 0.027z"/>
  <path d="m101.66 175.04c0.475-6.606-1.444-13.866-7.253-17.691-4.654-0.321-9.977 0.151-13.354 3.76-4.699 4.545-6.321 11.189-7.178 17.446-1.63 13.472-1.086 27.088-2.372 40.587-0.786 6.619-3.567 12.797-6.652 18.635-5.394 10.496-12.39 20.113-20.16 28.971-7.607 9.049-17.531 15.704-27.212 22.293 0.61 0.098 1.83 0.294 2.44 0.393 24.218-5.776 44.948-22.061 59.385-41.996 7.229-10.599 12.434-22.523 15.511-34.973 3.004-12.315 6.094-24.73 6.845-37.425z"/>
  <path d="m138.39 175.55c-4.396-4.091-9.263-7.987-15.14-9.65-5.112-1.453-11.095-2.705-15.772 0.633-3.088 2.721-3.812 7.488-2.955 11.32 3.792 9.474 12.719 15.269 20.452 21.295 4.84 4.294 11.534 7.783 12.778 14.757-1.429 4.103-4.589 7.215-7.464 10.34-12.199 12.637-26.716 22.655-40.033 34.021 0.385 0.152 1.155 0.453 1.54 0.604 10.719-3.593 21.663-6.913 31.589-12.45 7.552-3.94 15.117-7.971 21.868-13.209 4.069-3.192 8.208-6.566 10.827-11.11 2.296-4.967 2.681-10.717 1.239-15.982-3.089-11.787-10.057-22.317-18.929-30.569z"/>
  <circle cx="149.97" cy="78.344" r="22"/>
 </g>
 <path d="m123.75 305.86c-2.7119-0.72871-10.404-3.9133-17.093-7.0769-21.892-10.353-24.022-10.335-43.657 0.38199-8.5712 4.6782-9.3509 4.9236-16.765 5.2783-8.9172 0.42657-13.903-0.93157-26.86-7.3162-5.7911-2.8536-7.6469-4.2047-7.6469-5.5673 0-2.681 3.2071-2.7057 8.4187-0.0648 10.501 5.3213 17.988 7.7111 24.216 7.7297 5.7369 0.0172 6.7064-0.31527 18.786-6.4414 19.1-9.6865 23.677-9.5715 46.412 1.1656 21.559 10.181 25.537 10.201 45.773 0.21964 6.462-3.1873 14.144-6.602 17.071-7.5881 10.658-3.5905 19.617-2.2318 31.844 4.8298 9.9912 5.7704 15.878 8.696 17.498 8.696 2.553 0 4.7078 2.1232 4.0073 3.9486-0.52285 1.3625-1.3593 1.5807-4.772 1.2446-3.0051-0.29592-7.217-2.1615-15.383-6.8139-13.359-7.6107-19.636-9.5538-26.398-8.1722-2.5517 0.52135-11.319 4.149-19.483 8.0615-18.865 9.0404-25.241 10.367-35.968 7.485zm6.1767-11.493c-5.317-1.9001-8.598-4.7875-11.065-9.7372-6.6681-13.381 2.6814-27.706 18.083-27.706 5.6268 0 12.826 4.1421 15.87 9.1306 4.824 7.907 4.0378 16.051-2.2033 22.822-5.5353 6.0051-13.402 8.0935-20.685 5.4909zm-32.531-11.756c-5.7184-4.6582-14.855-15.122-18.225-20.873-3.2846-5.6048-5.096-13.415-4.0223-17.342 1.0804-3.9525 4.0047-6.0296 15.341-10.897 13.953-5.9902 37.493-12.209 39.315-10.387 0.89075 0.89077-3.9302 4.7278-13.241 10.539-17.48 10.909-25.218 16.096-25.218 16.904 0 0.47076 4.4305 5.2491 9.8455 10.619 10.241 10.154 11.746 12.481 11.746 18.161 0 4.1836-2.1517 6.3554-6.9316 6.9966-3.1131 0.41755-4.0046 0.0325-8.61-3.7191z" stroke-width=".89963"/>
 <g transform="matrix(.034852 0 0 -.034852 43.018 611.35)">
  <path d="m4925 7048c-45-25-136-86-225-152-305-223-504-452-646-741-107-220-152-394-269-1045-25-140-54-291-63-335l-17-80-40-7c-61-11-292-9-365 2-178 28-355 119-461 237-46 51-134 171-188 258-133 211-183 269-264 306-130 59-285-15-354-170-34-75-43-221-19-304 49-168 302-425 561-571 97-55 263-111 368-125 179-25 407-9 598 42l86 23-7-27c-60-210-392-560-750-791-161-104-142-97-223-81-215 41-860 18-1026-36-169-55-252-154-268-317-8-87 3-144 41-207l34-56-82-29c-158-57-354-119-641-202-16-5-99-27-183-50-203-54-202-54-202-87 0-36 18-101 30-108 13-8 323 72 583 149 150 45 443 143 565 190 106 41 126 42 254 20s325-11 563 32c101 19 229 31 286 28 132-7 263-68 299-139 21-41 19-234-4-348-21-108-273-930-390-1272-47-137-86-256-86-262 0-7 9-13 19-13 24 0 71 54 202 228 56 75 114 153 129 172 14 19 56 78 93 130 36 52 118 167 181 255 179 248 267 419 356 685 65 196 85 310 84 485-2 306-92 460-344 589-47 23-111 53-143 66-32 12-56 26-55 31 2 4 59 49 128 100 379 280 618 553 709 812 17 48 36 97 41 108 11 20 40 35 450 226 235 109 423 205 453 231 20 18 23 52 4 52-7 0-82-23-167-50-227-73-338-104-500-140-80-17-153-34-162-36-25-7-24 16 17 234 19 103 53 288 75 412 75 410 136 606 252 812 108 192 276 379 488 543 127 99 188 137 203 128 37-21 1547-1530 1547-1545 0-19-171-291-219-348l-29-35-208 52c-115 29-414 105-664 169s-471 116-492 117c-92 2-115-104-31-140 21-8 89-28 153-45 63-16 120-34 127-41 6-7 135-284 286-617 307-675 411-897 434-922 19-21 51-23 88-6 41 19 35 86-19 200-81 171-574 1263-580 1285-7 21-1 20 161-23 333-88 815-205 827-201 13 5 337 497 358 542 6 13 8 34 5 47-4 14-102 118-219 233s-502 496-856 847-646 638-650 638-16-6-27-12z"/>
  <path d="m2960 6604c-91-19-180-66-250-130-123-115-180-244-180-411 0-172 42-275 159-394 57-58 94-85 151-112 323-154 698 24 786 373 22 85 15 231-15 315-94 264-375 419-651 359z"/>
 </g>
 <g transform="matrix(.86725 0 0 .86725 138.34 -16.282)">
  <path d="m108.42 50.727c10.115-4.038 21.298-1.269 30.866 2.97 10.676 5.017 21.583 12.316 25.963 23.775 1.965 4.676 0.675 10.132-2.701 13.797-2.656 2.269-6.434 1.636-9.617 1.315-7.225-1.551-11.648-7.978-17.263-12.188-4.867-4.284-10.048-8.922-16.636-10.107-5.877-0.971-10.982 2.918-14.749 6.952-5.669 6.993-9.25 15.397-12.042 23.882-1.814 7.4-5.674 14.461-5.209 22.271-0.552-7.204-2.607-14.216-2.804-21.455-0.368-9.334 0.816-18.72 3.16-27.745 4.299-9.672 10.943-19.245 21.032-23.467z"/>
  <path d="m200.65 56.913c7.323-0.85 15.021 2.023 19.936 7.537 3.334 4.104 5.573 9.274 5.537 14.615-0.646 6.494-3.914 12.911-9.367 16.643-6.428 4.556-15.215 5.505-22.448 2.347-10.746-4.083-17.004-17.916-11.48-28.365 3.107-7.108 10.272-11.733 17.822-12.777z"/>
  <path d="m276.88 94.662c0.434-0.024 0.871-0.035 1.313-0.027-0.185 3.852 0.819 7.701 0.184 11.538-1.017 6.596-3.673 12.791-6.55 18.764-6.32 14.098-18.271 25.74-32.761 31.219-6.652 2.346-14.544 2.166-20.538-1.839-9.694-6.33-17.318-15.983-20.652-27.126-2.111-6.018-2.184-13.245 1.445-18.699 1.814-2.39 4.266-5.059 7.545-4.88 3.388 0.313 6.416 2.348 8.462 5 4.817 6.323 5.825 14.547 9.796 21.298 3.322 4.354 8.694 9.526 14.633 6.979 7.157-3.026 13.181-8.173 19-13.22 7.358-6.328 12.479-14.775 16.567-23.473 0.821-1.745 1.394-3.605 1.556-5.534z"/>
  <path d="m98.081 135.09c4.257-3.605 10.544-3.255 15.495-1.452 4.974 2.115 10.214 3.749 14.755 6.757 7.051 4.518 13.789 9.584 19.817 15.404 6.811 5.506 13.136 11.648 18.556 18.54 4 4.705 8.176 10.202 7.861 16.718-2.955 9.494-11.091 16.436-19.554 21.081-11.224 5.707-23.743 7.972-35.739 11.474-5.188 1.675-10.634 2.285-16.029 2.865-6.109 0.33-12.251 1.591-18.356 0.51 3.912-2.844 8.648-4.108 12.948-6.214 12.347-5.33 23.968-12.164 35.998-18.153 5.096-2.467 10.087-5.611 13.001-10.634-0.156-1.104-0.308-2.205-0.455-3.304-3.425-3.467-7.653-5.944-12.011-8.045-5.085 4.203-10.947 7.4-15.631 12.093-12.854 9.567-27.063 17.068-40.752 25.346-18.428 10.356-35.862 22.431-54.64 32.177-1.094 0.393-2.215 0.697-3.362 0.916 7.211-7.857 15.608-14.544 22.708-22.509 10.246-10.732 20.492-21.47 31.182-31.764 11.29-10.871 22.263-22.063 32.726-33.733-4.413-4.08-10.111-7.839-11.452-14.096-1.274-4.733-0.524-10.323 2.934-13.977z"/>
 </g>
 <path d="m347.85 291.14a7.4394 7.4394 0 0 1-7.4394 7.4394 7.4394 7.4394 0 0 1-7.4394-7.4394 7.4394 7.4394 0 0 1 7.4394-7.4394 7.4394 7.4394 0 0 1 7.4394 7.4394zm-14.237 46.696a7.9354 7.9354 0 0 1-7.9354 7.9354 7.9354 7.9354 0 0 1-7.9354-7.9354 7.9354 7.9354 0 0 1 7.9354-7.9354 7.9354 7.9354 0 0 1 7.9354 7.9354zm-50.038 0a7.9354 7.9354 0 0 1-7.9354 7.9354 7.9354 7.9354 0 0 1-7.9354-7.9354 7.9354 7.9354 0 0 1 7.9354-7.9354 7.9354 7.9354 0 0 1 7.9354 7.9354zm-15.559-46.696a7.9354 7.9354 0 0 1-7.9354 7.9354 7.9354 7.9354 0 0 1-7.9354-7.9354 7.9354 7.9354 0 0 1 7.9354-7.9354 7.9354 7.9354 0 0 1 7.9354 7.9354zm40.165-28.968a7.9354 7.9354 0 0 1-7.9354 7.9354 7.9354 7.9354 0 0 1-7.9354-7.9354 7.9354 7.9354 0 0 1 7.9354-7.9354 7.9354 7.9354 0 0 1 7.9354 7.9354z" fill-opacity=".84729" fill-rule="evenodd"/>
</svg>
