<?xml version="1.0" encoding="utf-8"?>
<!-- Generator: Adobe Illustrator 13.0.0, SVG Export Plug-In . SVG Version: 6.00 Build 14948)  -->
<!DOCTYPE svg PUBLIC "-//W3C//DTD SVG 1.1//EN" "http://www.w3.org/Graphics/SVG/1.1/DTD/svg11.dtd" [
	<!ENTITY ns_flows "http://ns.adobe.com/Flows/1.0/">
	<!ENTITY ns_extend "http://ns.adobe.com/Extensibility/1.0/">
	<!ENTITY ns_ai "http://ns.adobe.com/AdobeIllustrator/10.0/">
	<!ENTITY ns_graphs "http://ns.adobe.com/Graphs/1.0/">
	<!ENTITY ns_vars "http://ns.adobe.com/Variables/1.0/">
	<!ENTITY ns_imrep "http://ns.adobe.com/ImageReplacement/1.0/">
	<!ENTITY ns_sfw "http://ns.adobe.com/SaveForWeb/1.0/">
	<!ENTITY ns_custom "http://ns.adobe.com/GenericCustomNamespace/1.0/">
	<!ENTITY ns_adobe_xpath "http://ns.adobe.com/XPath/1.0/">
]>
<svg version="1.1"
	 xmlns:x="&ns_extend;" xmlns:i="&ns_ai;" xmlns:graph="&ns_graphs;" i:viewOrigin="156.5 545.5" i:rulerOrigin="0 0" i:pageBounds="0 792 612 0"
	 xmlns="http://www.w3.org/2000/svg" xmlns:xlink="http://www.w3.org/1999/xlink" xmlns:a="http://ns.adobe.com/AdobeSVGViewerExtensions/3.0/"
	 x="0px" y="0px" width="300px" height="300px" viewBox="0 0 300 300" enable-background="new 0 0 300 300" xml:space="preserve">
<metadata><?xpacket begin="﻿" id="W5M0MpCehiHzreSzNTczkc9d"?>
<x:xmpmeta xmlns:x="adobe:ns:meta/" x:xmptk="Adobe XMP Core 4.1-c036 46.277092, Fri Feb 23 2007 14:17:08        ">
   <rdf:RDF xmlns:rdf="http://www.w3.org/1999/02/22-rdf-syntax-ns#">
      <rdf:Description rdf:about=""
            xmlns:xap="http://ns.adobe.com/xap/1.0/"
            xmlns:xapGImg="http://ns.adobe.com/xap/1.0/g/img/">
         <xap:Thumbnails>
            <rdf:Alt>
               <rdf:li rdf:parseType="Resource">
                  <xapGImg:width>256</xapGImg:width>
                  <xapGImg:height>216</xapGImg:height>
                  <xapGImg:format>JPEG</xapGImg:format>
                  <xapGImg:image>/9j/4AAQSkZJRgABAgEASABIAAD/7QAsUGhvdG9zaG9wIDMuMAA4QklNA+0AAAAAABAASAAAAAEA&#xA;AQBIAAAAAQAB/+4ADkFkb2JlAGTAAAAAAf/bAIQABgQEBAUEBgUFBgkGBQYJCwgGBggLDAoKCwoK&#xA;DBAMDAwMDAwQDA4PEA8ODBMTFBQTExwbGxscHx8fHx8fHx8fHwEHBwcNDA0YEBAYGhURFRofHx8f&#xA;Hx8fHx8fHx8fHx8fHx8fHx8fHx8fHx8fHx8fHx8fHx8fHx8fHx8fHx8fHx8f/8AAEQgA2AEAAwER&#xA;AAIRAQMRAf/EAaIAAAAHAQEBAQEAAAAAAAAAAAQFAwIGAQAHCAkKCwEAAgIDAQEBAQEAAAAAAAAA&#xA;AQACAwQFBgcICQoLEAACAQMDAgQCBgcDBAIGAnMBAgMRBAAFIRIxQVEGE2EicYEUMpGhBxWxQiPB&#xA;UtHhMxZi8CRygvElQzRTkqKyY3PCNUQnk6OzNhdUZHTD0uIIJoMJChgZhJRFRqS0VtNVKBry4/PE&#xA;1OT0ZXWFlaW1xdXl9WZ2hpamtsbW5vY3R1dnd4eXp7fH1+f3OEhYaHiImKi4yNjo+Ck5SVlpeYmZ&#xA;qbnJ2en5KjpKWmp6ipqqusra6voRAAICAQIDBQUEBQYECAMDbQEAAhEDBCESMUEFURNhIgZxgZEy&#xA;obHwFMHR4SNCFVJicvEzJDRDghaSUyWiY7LCB3PSNeJEgxdUkwgJChgZJjZFGidkdFU38qOzwygp&#xA;0+PzhJSktMTU5PRldYWVpbXF1eX1RlZmdoaWprbG1ub2R1dnd4eXp7fH1+f3OEhYaHiImKi4yNjo&#xA;+DlJWWl5iZmpucnZ6fkqOkpaanqKmqq6ytrq+v/aAAwDAQACEQMRAD8A9U4q7FXYq7FXYq7FXYq7&#xA;FUj86+dPL3kzy7c6/r1x9XsLagoKNJJI32YokqOTt2H0nYE4q+KfzL/5ye/MPzdczW+mXUnl7QyS&#xA;I7OycpM67j99cLxdqg7qtF9sVeQzTzzyGWeRpZG3Z3JZj8ycVZN5R/NL8wPKNwkug65dWqKwZrUu&#xA;ZLd6dngk5Rn7q4q+xfyJ/wCcidM/MUfobVIU03zVDGXMCE+hdIoq7wcqlSvVkJJpuCRWir2XFXYq&#xA;7FXYq7FXYq7FXYq7FXYq7FXYq7FXYq7FXYq7FXYq7FXYq7FXYq7FXYq7FXYq7FXw1/zlj+Yk/mP8&#xA;xZdAt5SdI8t1tkjFQrXZANw591P7v/Y++KvEMVdirsVRmj6vqOjaraarpszW9/YypPbTL1WSM8lP&#xA;9Rir9KfIPmy383eTNH8yQKEXU7ZJpIx0SX7MqD/UkVl+jFU/xV2KuxV2KuxV2KuxV2KuxV2KuxV2&#xA;KuxV2KuxV2KuxV2KuxV2KuxV2KuxV2KuxV2KvzJ8/m6PnvzGbzl9bOqXv1jns3qfWH58vfl1xVIc&#xA;VdirsVdir7u/5xIe9b8l7AXHL0Vu7sWda09L1STxr29Uv0xV7NirsVdirsVdirsVdirsVdirsVdi&#xA;rsVdirsVdirsVdirsVdirsVdirsVdirsVdirsVfCf/OVnkC58tfmZc6vGh/RXmSt7by0PEXGwuYy&#xA;1Kcufx/JhirxfFXYq7FUTp2n3upX9tp9jC9xe3cqQW0EYLO8kjBVVQO5JxV+k/5ceUY/J/kXRfLa&#xA;NzbTrZUncGoadyZJmXYbGV2I9sVZJirsVdirsVdirsVdirsVdirsVdirsVdirsVdirsVdirsVdir&#xA;sVdirsVdirsVdirsVYz+Yn5faB598sXHl/WkPoyESW9ygHqwTKDwljJB3FSD4gkYq+HvzJ/5x7/M&#xA;XyNcTSTWD6poqGser2KNLFw2oZkFXhO9DyFK9CcVeZ9MVTjyz5N81eaLxbPy/pVzqVwTQiCMsq9q&#xA;u/2EG/ViBir7F/IL/nGy28jSx+Y/Mjx3vmgp/o0MfxQWYcfFxYj45aGhboP2a9cVe7Yq7FXYq7FX&#xA;Yq7FXYq7FXYq7FXYq7FXYq7FXYq7FXYq7FXYq7FXYq7FXYq7FXYqxL8zfzL8vfl55Zk1vWWLsT6V&#xA;jYxkercTkVEaV6DuzHYD3oCq+JvzA/5yK/M3zjcyhtTl0jS2J9PTNOdoECntJIpEkvvyNPADFUi8&#xA;o/m7+Y3lO+jutI126VFbk9nPK81tJ4h4XJU18evgcVfen5UfmJZfmB5IsfMduggmkrDf2oqRDcx0&#xA;EiAnqu4ZT/KR3xVO7vyp5WvJ2uLvR7G4nc1eWW2hdySa7syk4qmFvbW9tCsFvEkMKbJFGoRRU12U&#xA;UAxVUxV2KuxV2KuxV2KuxV2KuxV2KuxV2KuxVJvMfnPyn5ag9bzBq9ppaEckFzMkbuBt8CE8n/2I&#xA;OKvK/MH/ADl9+UWmNJHYyXusyIDwNpb8Iy1NgXuGhNK9SFPtXFWA6v8A85xSFSmj+Uwr1+Ga7u+Q&#xA;pTvFHEv/ABPFX0V+Xvm+284+StH8y26hF1K3WSSIbhJlJSaMH/IlVl+jFWQ4q7FXYq7FXYq7FXYq&#xA;7FXYq+Fv+ctPOU+ufmpcaSk3PT/L0SWkCCvETSKstw1D+1yYIf8AVGKvFMVdir7c/wCcM7SWD8pr&#xA;qV68brV7mWKv8oggi2/2UZxV7xirsVdirsVdirsVdirsVdirsVdirsVdirAfzN/O3yJ+XkBXWLv6&#xA;xqrLyg0e1pJctUfCWFQI1P8AM5HtXFXy35z/AOco/wA1vOV6dM8sI+iWtwxS3tNNVpb6QbkAzgep&#xA;y/4xKuKqPln/AJxb/OPzZMNQ1lF0iOchpbnVpWa5YHcn0l9STl7SccVes+Xf+cJ/J9ssT6/rl7qM&#xA;y7yR2qx2kTf5PxCd6fJh9GKpd+ff/OOHkby9+WV3rXlDTXttR0qWO4u5GnmnaW2qY5ARK7KvDmHP&#xA;EDYYqu/5wo86+vputeTLhqyWjjU7Ad/Sk4xTr8lfgf8AZHFX09irsVdirsVdirsVdirsVdir80vz&#xA;Q1Eal+ZPmq+UsUuNWvXi5bN6f1h+APyWgxVjGKuxV+j/AOS3llvLX5WeWtIccZ47NJ7haUpNck3E&#xA;gP8AqvKRirNcVdirsVdirsVdirsVdirsVdirsVdir5p/Pn/nKWLSHufLHkSZJtTWsV9ra0eO3YEh&#xA;o7evwvIKbvuo7VPRV5h+U/8Azjl5z/Mi4HmPzJcz6dod23rtqFxWS8veRqWiElTRv9+vt4BsVfXn&#xA;kX8sPI/kayFr5c0uK1cik14w9S6l6n95M3xt9o0FaDsMVZTirsVQuq6ZZarpl3pl9GJrK+hkt7mI&#xA;7ho5VKOu/iDir4E8lajeflJ+ekMd+xWLSdQk0/UWYU52cpMTS08PTYSr9GKv0FxV2KuxV2KuxV2K&#xA;uxV2KuxV+aP5m2C6f+Y/mmxTl6dtq99HGXILFFuHCk0oKlaYqxnFWQ/l5oKeYPPfl/RJNodQ1C2g&#xA;mNK0ieVRIaf6lcVfpnirsVdirsVdirsVdirsVdirsVdirsVfM/8AzlF+fzaUk/kTytc01GVCmuah&#xA;Ed7dG/49o2B/vGH2z+yNvtV4qpD/AM44f842xajFbec/OttzsX4y6PpEnSUdVnnH8n8qH7XU7bFV&#xA;9aqqqoVQAoFABsABireKuxV2KuxV8d/85oeR/qPmjTPOFtFS31iL6pfMoA/0q2H7tmPcvDQD/UxV&#xA;7x/zjp52Hm38qNIuJZOd/pi/oy/8fUtgAjH3eEox9zir0zFXYq7FXYq7FXYq7FXYq/Pr/nJbRTpP&#xA;50+YkG8d5JFexnpX6xCjt90hYYq8wxV6D/zj+yL+cvlMsQB9dA38SjAfjir9E8VdirsVdirsVdir&#xA;sVdirsVdirsVeUf85DfnJF+XflX0tPkRvNGqq0WmRGjGFej3TqeyfsV6t4gNir59/wCcafyXm89a&#xA;/J5u8zRvN5fsJ/UX1iT9evK8yGJ3ZEPxSH9o/Dv8WKvtlVCgKooBsAOgGKuxV2KuxV2KuxV59+fX&#xA;kj/GP5XazpkUfqX9vH9e04CnL6xbfGFXlsPUXkn+yxV85/8AOGfnf9Gedr7yrcPS216D1bUHtdWg&#xA;L0FTtyhL1/1Rir7NxV2KuxV2KuxV2KuxV2Kvlr/nNTyHNLFpHni0jLJAv6N1NlH2VLF7d2p25M6V&#xA;91GKvlDFU08r67ceX/Mml65bCs+l3cN3GvZjDIH4n2NKYq/TbSdUstW0u01SxkEtlfQx3FtKP2o5&#xA;VDofuOKorFXYq7FXYq7FXYq7FXYq7FUp82eaNI8reXb/AF/V5fRsNPiMsp/aY9FRB3Z2IVR4nFXw&#xA;pa2/m/8APr83mdyUF5JymbrHY6dE1KL2+FTQfzud+pOKvu/y35d0jy3oVloekQC206wiENvENzQd&#xA;WY/tMxqzE9TviqZYq7FXYq7FXYq7FXYq/P8A/NPRr38rPzynudMT0YrS9i1jSOgUwyP6oQAfsK4e&#xA;Kh7DFX3loOs2Wt6JYaxYtzs9Rt4rq3bavCZA61p3od8VR2KuxV2KuxV2KuxV2Kpd5i0DS/MOh32h&#xA;6rCJ9P1CFoLiPvxYdVPZlO6nsd8VfnX+aX5baz+Xvm250HUQZIh+90+9AolxbsSEkX37MOxxViGK&#xA;vrL/AJxF/OSCS0X8u9bnCTxFn8vzOaB0JLyWtf5lNXTxFR2AxV9RYq7FXYq7FXYq7FXYq7FXYq+K&#xA;P+coPzem86eZ4/J3l92uNE0qf0z6BL/Xb6vCqhftLGSUjp1NTvUYq+hf+cfPyih/LzycgvI1PmXV&#xA;As+ry7EptWO2Uj9mIHenVqnpTFXqWKuxV2KuxV2KuxV2KuxV83f85o+SPr3ljS/OFulZtIl+qXpH&#xA;e3uSPTY7fsTAAf6+Kpp/zh154/THkC58t3MnK88vT0hUkVNpckyR07njIJB7CmKvfcVdirsVdirs&#xA;VdirsVdirC/zW/Kvy/8AmN5bbSdUHo3UPKTTNRQVkt5iKch05I1AHXuPAgEKvgr8xPy081+QNcfS&#xA;tftSgJJtL2OrW9wg/biegr7qfiHcYqxm2ubi1uIrm2leG4hdZIZo2KujqaqysNwQehxV9pf84+f8&#xA;5IWXm2C28s+ap0tvNSAR2t09EjvgNhToFn8V/a/Z8MVe+4q7FXYq7FXYq7FXYq8K/wCcovzoHk/y&#xA;/wD4Y0W44+ZdYjPqSIfitbRqq0lR0eTdU+k9hVV57/ziR+TIvLpPzD1yCtrbMy6BA42kmX4XuSO4&#xA;j3VK/tb/ALIxV9b4q7FXYqhNW1bTdH0241PU7lLSwtU9S4uZTxRFHdjiqW+UPPXlHzjYPf8AlrU4&#xA;dStonMcrR8lZGHZ43Cute1Rviqe4q7FXYq7FUm85+WbPzR5U1Xy9ebQanbSW5fYlGdfgkFQd0ejD&#xA;bqMVfEX/ADj75mvPIH51W+m6kfQiu55dC1ZCQFV2k4ISW6cLhFqfCuKvvbFXYq7FXYq7FXYq7FXY&#xA;q7FUp80eU/LvmnSJdI1+wi1Cwm6xSjdW7OjCjIw7MpBxV8mfmn/ziB5i0h5tS8jSNrOmCrnTZSq3&#xA;sQ60Q/Ck4+VG7cT1xV893Nre2F29vdQy2t3A1JIZVaORHU9CrUZSMVfR/wCS/wDzlpe6WsGg+f2k&#xA;vtPFEt9dUF7iEdALhRvKo/nHx+PLsq+tNL1XTdW0+DUdMuor2wul5291A4kjdelVZag4qisVdirs&#xA;VdirDvzV/M3Rfy88pz63qJEly1YtNsAaPcXBHwoPBR1duw96Aqvjb8s/I/mb87fzLutR1uaSSzMo&#xA;u/MGodAsZNEgi7KzAcEX9lRXtir7y07TrHTbC30+wgS2srSNYba3jHFEjjHFVUeAAxVEYq7FXYql&#xA;nmfy7pvmTy/qGg6mrNYalC1vcBDxYKw6qexB3GKviXzZ5F/ND8hPNia3o11I+ks4W21aJa28yE1+&#xA;r3cXRWNOh69VNeir6Y/Jj/nIDyz+Y9sLKQLpfmeJaz6W7VEoUVMlsx+2viv2l77fEVXquKuxV2Ku&#xA;xV8P/wDOXPkxvL35nR67aKYrXzDELpXU0pdwEJNSnQ/Yf5tir6w/KPzqnnT8u9F8wF1a6uIBHfgE&#xA;ErdQn05qgfZ5OvIDwIxVmGKuxV2KuxV2KsV/Mv8AMXQ/y/8AKlz5g1asioRFZ2iECS4uHBKRIT0r&#xA;Qlj2UE+2KviXzX/zkn+bvmC/knXXJtJtixMNlpp+rpGtagc1/eP82Y4ql+lfn9+cemXCzwea76Vl&#xA;NeF24ukNRQgpOJFxV7F5G/5zVvYzHa+dtHW4T4VOo6b8EgHQs9vIeLE/5Lr8sVe/eSvzl/LXzmET&#xA;QtcgkvHp/uPnJt7mrfsiKXiz0pvwqPfFUX54/K/yL53tfR8x6TDdyhSsN4B6dzHWtOEyUfYmvEnj&#xA;4jFXzj58/wCcLNVtzJdeSdVW9iqWXTdQpFMBXZUnUem5/wBZU+eKvNdA8xfnL+SGtgT2d1p9tK/7&#xA;/Tr1GaxuuJ34MD6ZP+XG1cVe+eXf+c0PIV9e21trGmXukxSovr3vwXEUUpNGBWP94YwP2gtf8nFX&#xA;u2heYND1/TY9T0S+g1Gwl+xcWzrIlaA8SVPwsK7qdx3xVH4q88/NH88/I35e2ki39yt7rVD6Gi2z&#xA;K05alR6vUQp/lN9AOKvj6+1D8zPz78/xRKhmlJKwQJyWzsLYtuzHfiP5mPxMdvAYq+2vyz/LrRPI&#xA;HlS20DSkBKfvL27IAkuLhgOcr/dRR2UAYqyrFXYq7FXYq7FUn85afbaj5S1mxuYo54biyuEaKVQy&#xA;GsbUqDXod8VfmfpY1dLn65pXrpdWC/WvrFtzEkKxkfveSfEnEkfF2xV9a/kX/wA5U2mrm38t+fZk&#xA;tdVNI7TXDRILg9AtxSixSH+b7Df5J6qvpPrirsVdirx//nKjyX/iT8qL27hTlfeX3GpwmtP3UYK3&#xA;A+XpMX/2IxV5f/zhT549O61nyVcyfDMBqWnKx/bSkdwig92Xg238pxVk0v8Azmj5TtdevdPvvL94&#xA;tna3M1ul7bSxTNJHG5RJPScQ05AV48zTxOKsq0f/AJyv/JfUTxm1SfTH2ot5azCte3KETKKe5xVm&#xA;mk/m3+WGrIHsPNWlyE9I2uoopOlf7uRkf8MVZPbXVrdwLcWsyTwPXhLEwdGoaGjKSDuMVVcVfHf/&#xA;ADm1rd7J5z0HQy5+o22nfXlj7GW4nkiZj/sbcYq+b8VdirsVbVmVgykqymqsNiCMVeuflz/zk5+Z&#xA;Pk5orW6uTr+jJRTY37M0iIKCkNxvIlAKAHko/lxV9bfld+eHkf8AMS3CaXcG11hE5XGjXRC3C0Hx&#xA;GPekqD+Zf9kF6YqzjU9L03VLKWw1O1hvbKccZra4RZY3H+Ujgg4q+Vvzm/IH8m7I3F7ofm3T/LGo&#xA;IxEmj3tyJoS1aEIimS5jIPWiv8hir5+8tec/NfkrV3uvLOsyWcyMA8tqzGCYIajnHIAsiezpirOv&#xA;NH/OUf5v6/pyWB1KPSoggSeTTY/QmlIrV2lLO6k139MqPbFWRfll/wA4o+bPNot9b8y38emaNdfv&#xA;uUMqXV5Orb8lKF4l5fzMxP8Ak4q+tvJHkHyp5J0ddJ8uWKWlvs00n2ppnpTnLIfidv1dsVZDirsV&#xA;dirsVdirsVQOvf8AHD1H/mFm/wCTZxV8S/8AOIaJJ+b6I6h0fTrtWVhUEEKCCDirP/z1/wCcUyTP&#xA;5k/L238ZL3y8nj1L2n/VL/gf5cVYn+R//OTer+TXh8t+cTNf+XY2EMVwwL3ViAaUofikiX+T7Sj7&#xA;PTjir7K0nVtM1fTbfU9LuY7ywu0ElvcwsGR1PQgjFUXiqA12/wBFsNIu7nW7iG10pY2F3NcuI4hG&#xA;wowZmI61pir87/Kfmmy8j/mxba5otw11pGl6nIsE26mewMjRN1FR6lux6r36Yq+rtc/5w9/KXUGl&#xA;ksjqOlSPUoILn1UVj0qLlZnYV6/HX3xVgms/84PShS+i+a1Zq7Q3lqVFKdfVjkbev+RirCtW/wCc&#xA;Ovzcsj/obabqa0qPq9y0bfIi4SEV+nFWMXX5B/npoczcPLt8rjf1LGSOeo3728j++3XFWvrn/ORn&#xA;lqMI0nmrTYKkqsn19ISVoWIDfAfemKsW83a/558w3UV15puLy+urSL0o5rtG5pEWL8SxUGnJid8V&#xA;Y7irsVdirsVdiqvZX15YXcN5ZTyW13bsJILiFikiOu4ZWWhBGKp1L5j89+ab+CxutZ1DVbu7dYII&#xA;rq8ll5sxoqVmem5O2KvTNC/5xC/ODUXX69DZaNGRUtd3KyNTwC2wn3+dMVem+WP+cJNDhMcvmbzD&#xA;cXjUq9rYRrbpXw9WT1mYf7BcVVfPf/OF/l66tPW8lajJp18i/wC8l+xmt5T/AMZFHqRn6GHsMVeJ&#xA;Q3v53/kfrAiYXWlQu9fRkHr6dc068ftRMadSpDj2xV9B/lr/AM5e+TtdWGx83R/4f1RqKbrd7GRv&#xA;Hnu8Nf8AL2H82KverW7tbu3jubSZLi2mUPFPEwdHU9CrKSCPliqrirsVdirsVdiqB17/AI4eo/8A&#xA;MLN/ybOKvib/AJxA/wDJxRf9s+6/UuKvufFXiv54f843aH57jm1nRBHpfmwDk0tOMF3/AJM4UbP4&#xA;SDf+au1FXzb5G/Mj8x/yR813Gj6hbSi0WQfpPy/dEiNx/v6BviCMy/ZkSqsKV5CmKvorzF/zl3+W&#xA;th5Wt9U0j1tT1e8jLRaMVMUkLjYrcyEMiUP8vKvbbfFXzXrPmX83fzx8zpZJHLqDK3O30u1Hp2Vq&#xA;v2ebcjxXqf3kjV7V7Yq+jPyi/wCcUvLPlYw6t5sMWva8tGS3Kk2Nu1agqjAGZh/M4p/k13xV71ir&#xA;sVdirsVdirsVeG/nD/zi15a85Syav5deLQNfbeZVjpZ3B8ZET+7fxdBv3UnfFXyj53/Jz8x/Jcjn&#xA;XdFnS0U0GowD17VutP30fJVqB0eh9sVYXirsVdirsVbBpuOuKvs//nF/8+J/NVsPJ3mW4MnmGzjL&#xA;adeufiu7dB8Sue8sQFSf2l36gkqvoTFXYqhNV0jS9XsJtO1W0hvrC4HGa1uEWSNx7qwIxV87/mT/&#xA;AM4baHqHq3/kW8/RV0at+irstJasfCOX4pYvp5j5Yq8RtNZ/O/8AJDVxbOLrS4Wcn6ncD19OuadS&#xA;lC0TV7tGwYeIxV9B/lv/AM5e+TNe9Kx82Rf4d1NqL9ZJMli7f8ZPtxf7MUH82KvebW7tbu3jubSZ&#xA;Li2mUPFPEwdHU9CrKSCPliqrirsVdiqB17/jh6j/AMws3/Js4q+Jv+cQP/JxRf8AbPuv1Lir7nxV&#xA;2KsL/M78pfKP5iaR9S1uDheRKfqOpwgC4gY/ysR8SV6odj898VfOvlX/AJwu8wSeZriPzNqkUPl2&#xA;1kHoz2fxXF4mx+FWqINtmLVoegYfFir6k8o+S/LHlDR49I8u6fFYWUe7Kgq8jfzyyGryN7sTiqdY&#xA;q7FXYq7FXYq7FXYq7FXYqwLzT+RX5T+Zg7al5ctY7hxT61ZqbSWvXkWgKcj/AKwOKvH/ADZ/zhLp&#xA;MqvL5U1+a1k2KWmpIsyE9x60QjZR/sGxV86fmB+V3nXyDqC2fmSwaBJSRa3sZ9S2n49fTlG1R3U0&#xA;YdxirE8VdiqZeXNf1Hy9r1hrmmyelfadOlxbv25RmtCO6t0I7jFX6aaDq8Gs6Fp2sW4K2+pWsN3C&#xA;pNSEnjWRRX5NiqOxV2KuxVCato+laxYS6fqtnDf2M4pLbXEayxsPdWBGKvnX8y/+cN9Evlm1DyJd&#xA;foy83b9E3TNJauetI5Tyki/2XIf6oxV4fYa/+df5J6z9Uf61pKFiTYXI9awuKHdk3MTV/mjbl74q&#xA;+iPy0/5y78m+YGisPNcQ8u6m231pm52Dn/jIfii/2e3+Vir3m3uLe5gSe3lSaCUBo5Y2DIynoVYV&#xA;BGKqmKoHXv8Ajh6j/wAws3/Js4q+Jv8AnED/AMnFF/2z7r9S4q+58VdirsVdirsVdirsVdirsVdi&#xA;rsVdirsVdirsVdiqT+bvKWg+bfL93oOuWwudPu14suwdG/Zkjbfi6HdTir82/OPlybyz5q1by/NK&#xA;s8ml3UtqZk+y/pOVDe1R27Yqk+KuxV+l35X2s1p+WnlO1nJ9aDR7COQHsy20YI6Dp0xVk2KuxV2K&#xA;uxV2KoLWdD0bXNPl07WLKHULCYUktrhFkQ7UrRgaEV2PUYq+c/zJ/wCcNdJvPVv/ACHe/o+4NW/R&#xA;F4zPbk7mkU3xSR+wfl8xirxfTvMv53fklq4sZRc6bCWJ/R14pn0+cAmrR0JjNT1aJgffFX0R+W//&#xA;ADlz5H8w+lZeZ0/w3qjbetI3Oxc79JqAx9P92Cn+UcVez6tcW9z5cvp7eVJoJbSZo5Y2DIymM0Ks&#xA;KgjFXxV/ziB/5OKL/tn3X6lxV9z4q7FXYqoWl/Y3glNpcRXAgleCcxOr8JozR434k8XU/aU7jFVf&#xA;FXYq7FXYq7FXYq7FXYq7FXYq7FXYqx/z/wCc9N8meUdS8x6gwEVjEWijJoZZm+GKJfd3IH44q/NX&#xA;VNSvNU1O71O9kMt5fTSXNzKSSWklYu7GtTuxxVC4qyz8rPJVx518/aP5diBMV1OGvHFPgtov3k7b&#xA;0/3Wpp4mgxV+k6IqKEQBUUAKoFAAOgAxVvFXYq7FXYq7FXYq7FUBrmg6Lr2my6ZrVjDqGnzikltc&#xA;IJEPgQD0YdmG47Yq+cPzJ/5wz0+49bUPIN99Tl3f9DXzM8J6njDcfE6dgBIG92GKvE7LzR+cf5P6&#xA;hcaJP9Z02GVZI5tKvVMtlMrVVni3KHc19SFt/HFVf/nHDzr5d8n/AJnW2reYLk2mnPbTWzXHBnVH&#xA;l4hSwQFuO25pir760zVNN1Syiv8ATLqG9spxyhubd1ljcf5LoSDiqJxVhH5y/mFF5C/L7UteDD6/&#xA;x+raVGd+V5MCI9iCCEoZCD1CnFXwH5W/MDzl5V1h9X0HVp7K+lbncMrckmJbkfWjbkkgJ/mBxV+i&#xA;nkHUPMuo+TNHv/M0EVtrt3bJNe28CsiI0nxKvFyxVghXkK/ariqf4q7FXYq7FXYq7FXYq7FXYq7F&#xA;VsssUMTzTOscUal5JHIVVVRUsxOwAGKvhf8A5yV/Oz/HmvrouizMfKmkSH0GB+G7uRVWuSP5QCVi&#xA;9qn9qgVeK4q7FX21/wA4p/lBJ5U8tv5p1iHhr2uxr6ETgh7eyryVSD0aU0dvbiOtcVe9Yq7FXYq7&#xA;FXYq7FXYq7FXYq7FWJfmzpOl6l+XHmRNRs4bxINNvJ4BPGsnCWO3dkkTkDxZSKgjfFXwJ+W/5a+Y&#xA;fzC1m60fQfSF5bWcl6fXYojLGyrw5AGjOzgLXavWg3xVMrLV/wA3Pye19oEa80C8J5SWkw5W1wF2&#xA;5cG5QzL2DLX2OKvoj8t/+cx/Lmp+lY+d7T9DXpov6Stg0tmx8XT4pYv+GHuMVeS/85TfmnbecvOk&#xA;Wl6RdLc+X9DThBNCwaKe4lAaaVWGzACiL8iR1xVKf+cbfy2/xt+Y9qbuL1NF0Xjf6lUVVyjfuYT/&#xA;AMZJBuO6hsVff2KuxV2KuxV2KuxV2KuxV2KuxV2KvkP/AJyf/wCcgf0pLc+RPKlz/uNiYxa5qMRI&#xA;9d1JVraMjrEv7bftHYfD9pV8z4q7FX0b/wA4yf8AOP769dW/nbzTbU0O3cSaVYTLteSKaiV1PWFG&#xA;6A7Of8nqq+x8VdirsVdirsVdirsVdirsVdirsVWTwQXEEkE8aywSqUlicBkdGFGVlOxBGxBxVjvl&#xA;b8tvIvlS+vL7y5o1vpl1fqqXTwBgGVSWChSSqCp6KB+AxVMvMPlny95j099O13T4NSsnBrDcIHAJ&#xA;2qpO6t/lLQ4q+R/+ci/+cefKHkXRT5n0LU3tbea4S3i0S5rKWeSppBLXlRFUkh67D7XQYq+dwK7D&#xA;rir9BP8AnHb8t/8AA35cWcF1F6etarS/1WooyvIo9OE9/wB1HQEfzcvHFXp+KuxV2KuxV2KuxV2K&#xA;uxV2KuxV81f85P8A/OQA0mG48i+VbkHVZVMet6hEa/V42FGtkP8Av1gfjI+yNvtfZVfIGKtgV2HX&#xA;FX0v+QP/ADi/dajJa+avPdsYNNUrNYaHKKSXHdXuVO6R9wh3bvQfaVfXUUUUMSQwoscUahI40AVV&#xA;VRQKoGwAGKrsVdirsVdirsVdirsVdirsVdirsVdirsVdir4V/wCcqfzMXzb5/bSLCb1NF8uc7WIq&#xA;apJdE/6TIKdaMojH+rUdcVQv/OMX5Zr50/MOK7vofU0PQAt7ehh8Ektf9GhOxHxOvIg9VVhir70x&#xA;V2KuxV2KuxV2KuxV2KuxV2KvDf8AnJD8+4vI+nv5c0CZX823sdXkXcWUEgP7xv8Ai1v91r2+0dqc&#xA;lXxBNNLNK80ztJNIxeSRyWZmY1LMTuSTirK/y/8Ayq88efb36v5d055oEYLcX8n7u1hr/PKdq/5K&#xA;1b2xV9fflF/zjF5R8jyQatqrDXPMkdHS4kWltbv4wRHqw/nffuAuKvaMVdirsVdirsVdirsVdirs&#xA;VdirsVdirsVdirsVYn+a2reZdK/L3W73yzZTX+uLblLKG3UvKrSEIZVUfExiVi9BU7Yq/NuaOdZ3&#xA;SZWE4YiRXB58q7gg71rir9B/+cfvy3HkT8ubGyuYvT1rUaX2rkijrNKo4wmoB/cpRSP5uRHXFXpO&#xA;KuxV2KuxV2KuxV2KuxV2KvIvz+/Pex/LnShYadwuvNl+hNnbmjJbp0+sTjw/kX9o+wOKviGy0/zV&#xA;5y8wtHaQXWt67qMjSycA000jseTu5327ljsMVfTX5V/84dW0Ho6p+YU4nl2ZdCtX/dqag0uJ1NW9&#xA;1joP8o4q+l9L0rTNKsIdP0y1isrGBeMNtAixxqPZVAGKorFXYq7FXYq7FXYq7FXYq7FXYq7FXYq7&#xA;FXYq7FXYq7FWIeZfyl/L3zJrllruq6NBLq9jPFcRXqDg7tCwZVn40EyfD0cHbFWX4q7FXYq7FXYq&#xA;7FXYq7FXYqwP84fzEv8Ayb5dT9CadPq/mfVGa30XT4IZJ6yADlLIsYrwj5DbqSQPEhV4B5M/5xY8&#xA;8+c9Wk8z/mbqMth9dkM1xahlk1CYmh+I/FFAtNgNyKU4jFX015L8geUfJemDTvLemxWMJA9aRRym&#xA;mYftSytV3PzO3bFWQ4q7FXYq7FXYq7FXYq7FXYq7FXYq7FXYq7FXYq7FXYq7FXYq7FXYq7FXYq7F&#xA;X//Z</xapGImg:image>
               </rdf:li>
            </rdf:Alt>
         </xap:Thumbnails>
         <xap:CreatorTool>Adobe Illustrator CS3</xap:CreatorTool>
         <xap:ModifyDate>2008-01-04T01:14:51-08:00</xap:ModifyDate>
         <xap:MetadataDate>2008-01-04T01:14:51-08:00</xap:MetadataDate>
      </rdf:Description>
      <rdf:Description rdf:about=""
            xmlns:xapTPg="http://ns.adobe.com/xap/1.0/t/pg/"
            xmlns:stDim="http://ns.adobe.com/xap/1.0/sType/Dimensions#"
            xmlns:xapG="http://ns.adobe.com/xap/1.0/g/">
         <xapTPg:MaxPageSize rdf:parseType="Resource">
            <stDim:w>612.000000</stDim:w>
            <stDim:h>792.000000</stDim:h>
            <stDim:unit>Points</stDim:unit>
         </xapTPg:MaxPageSize>
         <xapTPg:NPages>1</xapTPg:NPages>
         <xapTPg:HasVisibleTransparency>False</xapTPg:HasVisibleTransparency>
         <xapTPg:HasVisibleOverprint>False</xapTPg:HasVisibleOverprint>
         <xapTPg:PlateNames>
            <rdf:Seq>
               <rdf:li>Cyan</rdf:li>
               <rdf:li>Magenta</rdf:li>
               <rdf:li>Yellow</rdf:li>
               <rdf:li>Black</rdf:li>
            </rdf:Seq>
         </xapTPg:PlateNames>
         <xapTPg:SwatchGroups>
            <rdf:Seq>
               <rdf:li rdf:parseType="Resource">
                  <xapG:groupName>Default Swatch Group</xapG:groupName>
                  <xapG:groupType>0</xapG:groupType>
               </rdf:li>
            </rdf:Seq>
         </xapTPg:SwatchGroups>
      </rdf:Description>
      <rdf:Description rdf:about=""
            xmlns:dc="http://purl.org/dc/elements/1.1/">
         <dc:format>image/svg+xml</dc:format>
      </rdf:Description>
      <rdf:Description rdf:about=""
            xmlns:xapMM="http://ns.adobe.com/xap/1.0/mm/">
         <xapMM:InstanceID>uuid:D4ABF190A4BADC11828F907C0EB444D3</xapMM:InstanceID>
      </rdf:Description>
   </rdf:RDF>
</x:xmpmeta>
                                                                                                    
                                                                                                    
                                                                                                    
                                                                                                    
                                                                                                    
                                                                                                    
                                                                                                    
                                                                                                    
                                                                                                    
                                                                                                    
                                                                                                    
                                                                                                    
                                                                                                    
                                                                                                    
                                                                                                    
                                                                                                    
                                                                                                    
                                                                                                    
                                                                                                    
                                                                                                    
                           
<?xpacket end="w"?>
	</metadata>
<g id="Layer_1" i:layer="yes" i:dimmedPercent="50" i:rgbTrio="#4F008000FFFF">
	<g>
		<g id="surface0" i:knockout="Off">
			<path fill="none" stroke="#000000" stroke-width="0.1" stroke-miterlimit="10" d="M101.592,34.896
				c7.245-0.695,14.903,2.286,19.45,8.047c3.171,3.601,4.599,8.37,5.108,13.057c-0.241,5.962-2.646,11.915-7.106,15.972
				c-6.027,5.739-15.511,7.543-23.221,4.381c-10.794-3.773-17.311-17.35-12.355-27.924C86.417,40.96,93.691,35.807,101.592,34.896z"
				/>
			<path d="M101.592,34.896c7.245-0.695,14.903,2.286,19.45,8.047c3.171,3.601,4.599,8.37,5.108,13.057
				c-0.241,5.962-2.646,11.915-7.106,15.972c-6.027,5.739-15.511,7.543-23.221,4.381c-10.794-3.773-17.311-17.35-12.355-27.924
				C86.417,40.96,93.691,35.807,101.592,34.896z"/>
			<path fill="none" stroke="#000000" stroke-width="0.1" stroke-miterlimit="10" d="M77.9,79.031
				c4.783-2.103,11.17-0.005,13.519,4.743c1.321,2.135,1.092,4.752,0.896,7.145c-1.298,8.444-5.172,16.447-4.943,25.125
				c0.113,8.736,4.603,16.858,10.588,22.994c8.045,8.502,18.173,14.559,27.828,21.014c0.467-0.201,1.399-0.604,1.866-0.804
				c5.235,2.124,9.964,5.425,15.319,7.229c7.481-2.598,14.878-6.404,20.03-12.588c9.729-12.104,18.044-25.242,27.081-37.853
				c5.113-6.782,10.549-13.499,17.434-18.574c12.693-9.961,28.82-14.271,44.596-16.133c10.928,29.135,22.168,58.156,33.248,87.234
				c0.283,1.095,1.219,2.679-0.172,3.432c-7.318,4.695-14.679,9.343-21.98,14.064c-10.68-8.229-21.183-16.699-31.609-25.242
				c0.039,16.854,0.021,33.709,0.008,50.563c7.079,3.761,14.316,7.215,21.474,10.825c2.851-5.805,5.98-11.468,8.787-17.296
				c3.04,1.504,6.015,3.14,8.993,4.768c-6.91,13.752-14.082,27.37-20.93,41.153c-3.064-1.444-6.008-3.119-8.988-4.718
				c2.875-6.167,6.215-12.101,9.143-18.241c-6.085-3.178-12.396-5.928-18.318-9.404c-0.031,2.116-0.594,4.148-1.605,6.003
				c-1.535-0.182-3.024-0.55-4.48-1.038c-0.294-2.631-0.336-5.279-0.311-7.92c-27.052-14.025-54.414-27.459-81.515-41.394
				c-1.347-1.007-2.948-0.276-4.352,0.11c-5.975,1.88-12.171,2.884-18.283,4.195c6.169,5.995,12.783,13.377,11.941,22.643
				c-1.547,12.785-10.124,23.339-19.234,31.849c-5.018,4.763-10.602,8.967-16.701,12.249c-9.628,5.395-18.992,11.264-28.816,16.303
				c-2.76,1.501-5.526,3.279-8.767,3.424c1.959-3.277,4.923-5.747,7.456-8.552c10.875-11.236,20.931-23.223,31.415-34.817
				c4.317-5.137,8.612-10.93,9.854-17.656c-1.811-5.502-6.958-9.242-12.31-10.936c-8.735-2.74-17.945-4.409-26.003-8.948
				c-2.294-1.214-4.036-3.438-6.559-4.178c-17.096-0.786-34.095-3.354-50.906-6.49c0.458-1.97,0.883-3.949,1.289-5.928
				c15.08,2.696,30.242,4.836,45.509,6.158c-2.225-5.002,0.392-10.591,3.851-14.292c3.546-3.672,9.107-3.908,13.833-3.046
				c4.098,0.574,7.769,2.571,11.636,3.909c9.1,3.062,18.145,6.881,25.794,12.781c6.824-0.533,13.526-2.008,20.165-3.617
				c-6.114-2.377-11.638-6.031-17.85-8.181c-13.673-5.327-27.601-11.238-38.246-21.661c-5.499-6.183-10.689-13.184-12.168-21.521
				c-1.793-9.167-2.584-18.884,0.288-27.923C68.367,84.766,72.808,80.833,77.9,79.031z"/>
			<path d="M77.9,79.031c4.783-2.103,11.17-0.005,13.519,4.743c1.321,2.135,1.092,4.752,0.896,7.145
				c-1.298,8.444-5.172,16.447-4.943,25.125c0.113,8.736,4.603,16.858,10.588,22.994c8.045,8.502,18.173,14.559,27.828,21.014
				c0.467-0.201,1.399-0.604,1.866-0.804c5.235,2.124,9.964,5.425,15.319,7.229c7.481-2.598,14.878-6.404,20.03-12.588
				c9.729-12.104,18.044-25.242,27.081-37.853c5.113-6.782,10.549-13.499,17.434-18.574c12.693-9.961,28.82-14.271,44.596-16.133
				c10.928,29.135,22.168,58.156,33.248,87.234c0.283,1.095,1.219,2.679-0.172,3.432c-7.318,4.695-14.679,9.343-21.98,14.064
				c-10.68-8.229-21.183-16.699-31.609-25.242c0.039,16.854,0.021,33.709,0.008,50.563c7.079,3.761,14.316,7.215,21.474,10.825
				c2.851-5.805,5.98-11.468,8.787-17.296c3.04,1.504,6.015,3.14,8.993,4.768c-6.91,13.752-14.082,27.37-20.93,41.153
				c-3.064-1.444-6.008-3.119-8.988-4.718c2.875-6.167,6.215-12.101,9.143-18.241c-6.085-3.178-12.396-5.928-18.318-9.404
				c-0.031,2.116-0.594,4.148-1.605,6.003c-1.535-0.182-3.024-0.55-4.48-1.038c-0.294-2.631-0.336-5.279-0.311-7.92
				c-27.052-14.025-54.414-27.459-81.515-41.394c-1.347-1.007-2.948-0.276-4.352,0.11c-5.975,1.88-12.171,2.884-18.283,4.195
				c6.169,5.995,12.783,13.377,11.941,22.643c-1.547,12.785-10.124,23.339-19.234,31.849c-5.018,4.763-10.602,8.967-16.701,12.249
				c-9.628,5.395-18.992,11.264-28.816,16.303c-2.76,1.501-5.526,3.279-8.767,3.424c1.959-3.277,4.923-5.747,7.456-8.552
				c10.875-11.236,20.931-23.223,31.415-34.817c4.317-5.137,8.612-10.93,9.854-17.656c-1.811-5.502-6.958-9.242-12.31-10.936
				c-8.735-2.74-17.945-4.409-26.003-8.948c-2.294-1.214-4.036-3.438-6.559-4.178c-17.096-0.786-34.095-3.354-50.906-6.49
				c0.458-1.97,0.883-3.949,1.289-5.928c15.08,2.696,30.242,4.836,45.509,6.158c-2.225-5.002,0.392-10.591,3.851-14.292
				c3.546-3.672,9.107-3.908,13.833-3.046c4.098,0.574,7.769,2.571,11.636,3.909c9.1,3.062,18.145,6.881,25.794,12.781
				c6.824-0.533,13.526-2.008,20.165-3.617c-6.114-2.377-11.638-6.031-17.85-8.181c-13.673-5.327-27.601-11.238-38.246-21.661
				c-5.499-6.183-10.689-13.184-12.168-21.521c-1.793-9.167-2.584-18.884,0.288-27.923C68.367,84.766,72.808,80.833,77.9,79.031z"/>
			<path fill="none" stroke="#FFFFFF" stroke-width="0.1" stroke-miterlimit="10" d="M215.43,99.399
				c9.669-6.358,21.074-9.338,32.355-11.26c10.181,26.886,20.594,53.685,30.701,80.598c-5.074,3.146-10.07,6.419-15.144,9.565
				c-14.235-11.234-28.278-22.724-42.543-33.913c-1.589-1.572-3.633-0.607-5.301,0.202c0.075,0.83,0.228,2.489,0.303,3.318
				c2.784,3.115,6.417,5.311,9.544,8.06c0.105,17.47-0.04,34.94,0.074,52.41c-25.127-12.851-50.463-25.298-75.573-38.182
				c6.194-2.269,11.921-5.878,16.54-10.594c9.728-11.913,18.082-24.851,26.908-37.423C199.374,113.485,206.369,105.12,215.43,99.399
				z"/>
			<path fill="#FFFFFF" d="M215.43,99.399c9.669-6.358,21.074-9.338,32.355-11.26c10.181,26.886,20.594,53.685,30.701,80.598
				c-5.074,3.146-10.07,6.419-15.144,9.565c-14.235-11.234-28.278-22.724-42.543-33.913c-1.589-1.572-3.633-0.607-5.301,0.202
				c0.075,0.83,0.228,2.489,0.303,3.318c2.784,3.115,6.417,5.311,9.544,8.06c0.105,17.47-0.04,34.94,0.074,52.41
				c-25.127-12.851-50.463-25.298-75.573-38.182c6.194-2.269,11.921-5.878,16.54-10.594c9.728-11.913,18.082-24.851,26.908-37.423
				C199.374,113.485,206.369,105.12,215.43,99.399z"/>
		</g>
	</g>
</g>
</svg>
