<?xml version="1.0" encoding="utf-8"?>
<!-- Generator: Adobe Illustrator 13.0.0, SVG Export Plug-In . SVG Version: 6.00 Build 14948)  -->
<!DOCTYPE svg PUBLIC "-//W3C//DTD SVG 1.1//EN" "http://www.w3.org/Graphics/SVG/1.1/DTD/svg11.dtd" [
	<!ENTITY ns_flows "http://ns.adobe.com/Flows/1.0/">
	<!ENTITY ns_extend "http://ns.adobe.com/Extensibility/1.0/">
	<!ENTITY ns_ai "http://ns.adobe.com/AdobeIllustrator/10.0/">
	<!ENTITY ns_graphs "http://ns.adobe.com/Graphs/1.0/">
	<!ENTITY ns_vars "http://ns.adobe.com/Variables/1.0/">
	<!ENTITY ns_imrep "http://ns.adobe.com/ImageReplacement/1.0/">
	<!ENTITY ns_sfw "http://ns.adobe.com/SaveForWeb/1.0/">
	<!ENTITY ns_custom "http://ns.adobe.com/GenericCustomNamespace/1.0/">
	<!ENTITY ns_adobe_xpath "http://ns.adobe.com/XPath/1.0/">
]>
<svg version="1.1"
	 xmlns:x="&ns_extend;" xmlns:i="&ns_ai;" xmlns:graph="&ns_graphs;" i:viewOrigin="156.5 545.5" i:rulerOrigin="0 0" i:pageBounds="0 792 612 0"
	 xmlns="http://www.w3.org/2000/svg" xmlns:xlink="http://www.w3.org/1999/xlink" xmlns:a="http://ns.adobe.com/AdobeSVGViewerExtensions/3.0/"
	 x="0px" y="0px" width="300px" height="300px" viewBox="0 0 300 300" enable-background="new 0 0 300 300" xml:space="preserve">
<metadata><?xpacket begin="﻿" id="W5M0MpCehiHzreSzNTczkc9d"?>
<x:xmpmeta xmlns:x="adobe:ns:meta/" x:xmptk="Adobe XMP Core 4.1-c036 46.277092, Fri Feb 23 2007 14:17:08        ">
   <rdf:RDF xmlns:rdf="http://www.w3.org/1999/02/22-rdf-syntax-ns#">
      <rdf:Description rdf:about=""
            xmlns:xap="http://ns.adobe.com/xap/1.0/"
            xmlns:xapGImg="http://ns.adobe.com/xap/1.0/g/img/">
         <xap:Thumbnails>
            <rdf:Alt>
               <rdf:li rdf:parseType="Resource">
                  <xapGImg:width>256</xapGImg:width>
                  <xapGImg:height>180</xapGImg:height>
                  <xapGImg:format>JPEG</xapGImg:format>
                  <xapGImg:image>/9j/4AAQSkZJRgABAgEASABIAAD/7QAsUGhvdG9zaG9wIDMuMAA4QklNA+0AAAAAABAASAAAAAEA&#xA;AQBIAAAAAQAB/+4ADkFkb2JlAGTAAAAAAf/bAIQABgQEBAUEBgUFBgkGBQYJCwgGBggLDAoKCwoK&#xA;DBAMDAwMDAwQDA4PEA8ODBMTFBQTExwbGxscHx8fHx8fHx8fHwEHBwcNDA0YEBAYGhURFRofHx8f&#xA;Hx8fHx8fHx8fHx8fHx8fHx8fHx8fHx8fHx8fHx8fHx8fHx8fHx8fHx8fHx8f/8AAEQgAtAEAAwER&#xA;AAIRAQMRAf/EAaIAAAAHAQEBAQEAAAAAAAAAAAQFAwIGAQAHCAkKCwEAAgIDAQEBAQEAAAAAAAAA&#xA;AQACAwQFBgcICQoLEAACAQMDAgQCBgcDBAIGAnMBAgMRBAAFIRIxQVEGE2EicYEUMpGhBxWxQiPB&#xA;UtHhMxZi8CRygvElQzRTkqKyY3PCNUQnk6OzNhdUZHTD0uIIJoMJChgZhJRFRqS0VtNVKBry4/PE&#xA;1OT0ZXWFlaW1xdXl9WZ2hpamtsbW5vY3R1dnd4eXp7fH1+f3OEhYaHiImKi4yNjo+Ck5SVlpeYmZ&#xA;qbnJ2en5KjpKWmp6ipqqusra6voRAAICAQIDBQUEBQYECAMDbQEAAhEDBCESMUEFURNhIgZxgZEy&#xA;obHwFMHR4SNCFVJicvEzJDRDghaSUyWiY7LCB3PSNeJEgxdUkwgJChgZJjZFGidkdFU38qOzwygp&#xA;0+PzhJSktMTU5PRldYWVpbXF1eX1RlZmdoaWprbG1ub2R1dnd4eXp7fH1+f3OEhYaHiImKi4yNjo&#xA;+DlJWWl5iZmpucnZ6fkqOkpaanqKmqq6ytrq+v/aAAwDAQACEQMRAD8A9U4q7FXYq7FXYq7FXYq7&#xA;FXYq7FXYq7FXYq7FXYq7FWDfm3+bfl78tvLw1HUQbm/uSyaZpiNxknkWld6Hii1HJqbe5IGKviPz&#xA;/wDnl+Y/ne5kbU9VkttPYn09KsmaC2Rd6AqprId/tSFjirA0mljkEsbskoNQ6khgfGo3xV6p+W//&#xA;ADkl+Y/k25hinvpNc0RSBLpt+7SEINqQzNykjIHQVK/5OKvtvyD570Dzz5YtvMOhyl7WeqSwvQSw&#xA;zLTnDKoJoy1+kEEbEYqyLFXYq7FXYq7FXYq7FXYq7FXYq7FXYq7FXYq7FXYq7FXYq7FXYq7FXYq7&#xA;FXYq7FXYq7FX51/np5+ufO35k6tqRlL6faytZaVHvxW2gYqpAJNPUNZD7tirz/FXYq7FXuX/ADiR&#xA;5/n0D8xk8vzSEaV5kUwMhJ4rdRqzwOAK7tvH/shXpir7ixV2KuxV2KuxV2KuxV2KuxV2KuxV8k/n&#xA;V/zlL5nl8wXnlXyD/olvbTNZyaqiiW5uJlbgwtxRlReWykAs3UEdMVYS35Xf85TatbprE0GtTfWl&#xA;DhrjUlSehG3KGW4WZNv2WUUxV1j+dH/OQX5Z6ulp5imvplJDPYa8jzCVV6+nPJ+8p8XWOSnjXFX1&#xA;1+Vf5p+XfzG8uDV9JJhuISI9R06Qgy28pFeLEU5K1Kqw6+xqAqzLFXYq7FXYq7FXYq7FXYq7FXYq&#xA;7FXYq/K+4jlinkjmBEyMyyA9eQNDX6cVU8VdirsVZt+ScUsv5ueUFjBZhqtqxA/lSQMx+hQcVfo9&#xA;irsVdirsVdirsVdirsVdirsVdir4U/5xOis7j867V9RVXuUtbuW19Qb/AFkLuQD+0ELnFX3XirH/&#xA;AD15F8u+dvL1xoWu24mtphWKUUEsMlPhlib9ll/HodsVfGX5eXut/kx+fS6HqM/+iG6TTNUehEc1&#xA;pclfSuOO5+EOko6kdMVfduKuxV2KuxV2KuxV2KuxV2KuxV2KuxV8D/8AOTH5a3Pk78xby9ghK6Hr&#xA;8j31hIq0jWRzyngFPhHCRqgfylcVeR4q7FXYq+jv+cOvy2utR80TeeLyErpukK9vpzsNpLyVeLla&#xA;9RFE5r7sPDFX2NirsVdirsVdirsVdirsVdirsVdir4W/OXyd5h/KH824vM+hj0tPubttS0S54kxK&#xA;zNyltH36LyK0ruh+eKvqb8q/zw8lfmFp0TWV0llrYX/S9FuHVZ0YUDGME/vY6nZl8RWh2xV6BPcQ&#xA;W8LzXEiwwxiryyMFVR4ljsMVfAP59+dNE81fnLd6rpVwsmlW721rFfLUpILcKJJVoKlefKhFagVH&#xA;XFX3pouuaPrmmwapo95Ff6fcryhuYHDow+Y6Edwdx3xVG4q7FXYq7FXYq7FXYq7FXYq7FXYqkHnf&#xA;yN5b87eX59C8wW31izm+JHWiyxSD7MsT0PF18foNRUYq+QvPf/OIP5i6Lcyy+WzH5i0zdo+DJBdq&#xA;o3o8UjKrHw4Oa+A6Yq8/T8j/AM3nn9EeUdTD+LW7qn/Bmi/jir1f8uf+cOPNF/dQ3nni4TSdOUhn&#xA;063kWa7kAoeJdOUUYPSoZj7d8VfXGi6LpWiaVa6TpNrHZ6dZxiK2tohRUUfiSTuSdydzviqNxV2K&#xA;uxV2KuxV2KuxV2KuxV2KuxVJvN/k/wAveb9BuND1+0W70+4FSp2dHFeMkb9Uda7MP1VxV8pedP8A&#xA;nC/zdZXEk3lLUrfVrIn93bXbfVrpQexahhenjyX5Yqkcn/ONn/ORWqiOz1JWa1BFPrepxywpv14L&#xA;JKdq9lxVmMX/ADhFe/4ZlaXzHF/ickNDGsbfUABWsbOR6xrt8YUU/lOKvJ7TUPzg/I7zMYis+lSy&#xA;Gr20o9WxvEXao6xyD/KU8l8Rir6i/Kf/AJyg8lecxDp2sMnl/wAwtRfq87/6NO9NzBM1AKnoj0PY&#xA;csVez4q7FXYq7FXYq7FXYq7FXYq7FWI6n+b35XaZdLa33mrTIrgmhjFzG5U1p8fAtw/2VMVZPY39&#xA;jqFpFe2FxFd2c684LmB1kidfFHQlWHyOKq+KuxV2KuxVK/NHmTS/LPl6/wBf1V2j0/TYWnuCg5OQ&#xA;vRVG1WY0VffFXxr50/5y/wDzL1e5lTy/6Hl/TiWWIRxpcXJQ/wA8swdeVP5EWmKsBm/PD83ppBI/&#xA;m7UwwNaJcOi7mv2U4jFU40T/AJyX/OjSXPDzDJexndor2KK4B/2Tr6g+hhir1Xyn/wA5t3SskXm3&#xA;y8joSoe80tyhVf2j6Exfkf8AnqMVe+eQ/wA4fy888qE8v6tHLe8eT6bNWG6XYk/unoX403KcgPHF&#xA;WZ4q7FXYq7FXYq7FXYq7FUs8x+WdA8y6VLpOvWEWo6fN9u3mWoBoQGUijIwrsykEYq+TPzf/AOcR&#xA;9W0WOfWvIrSarpiVeXR3+K8iUbkxEf36jw+3/rYqxf8AKr/nJvzz5HaLTNWL69oEXwfU7lyLiACg&#xA;pDMwZgFp9h6r4ceuKvsL8v8A80/JPn2w+teXNQWaVF5XNhLSO6h7fvIia0rtyFVPY4qyzFXYq7FX&#xA;Yq7FUJqer6TpNqbvVL2CwtFNDcXUqQxg0JpzkKr0GKvFfPX/ADl5+XOhI8Hl9ZfMeoAfCYQYbVTQ&#xA;/amkHI/7BD88VfMn5h/nz+ZHnp5ItS1FrPSn2Gk2JaG3416SUPOX/nox9qYq87xV9Rf84S+adUOp&#xA;a/5WkkaTTPq66jAjVIimWRYpOO+3qK61/wBX51VfWWKuxV2KuxVI/PHlSy82+UdV8t3jcINTt3h9&#xA;UCpjf7UcgHfhIFantir84vOPk3zF5P1240TXrR7W8gYgEg8JUBoJIm6OjdiMVSTFXYq7FV8M00Eq&#xA;TQu0UsZDRyISrKw6EEbg4q+ifyb/AOcstc0e5t9G8+TPqmjMQi6uwL3dvU/alIBadB3r8fuemKvs&#xA;DT9QsdSsYL+wnS6srpFlt7iJgyOjCqsrDqDiqIxV2KvnT/nKX89de8o3Fr5S8rz/AFPU7qD61qGo&#xA;qA0kUTsUjjiqCFduDFm6gUp1rirwRvNH/OQXkuPTvNF5qOuWdpqJElpcX8001vcVHMCSOZnRuS1Y&#xA;BxUjcYq+0fye/MWL8wfIdh5i9JYLxy1vqNuleKXMRo/GtfhYEOu/Q+OKs1xV2KuxV5Z+aP8Azjn5&#xA;A8+tLfPCdH156k6rZqoMjE1rcRbJL89m/wArFXyV+YH5K/mZ+WF6NRkSR7CJq2+v6Yz+mp2pzZeM&#xA;kLb0+Kgr0JxVrRf+cj/zo0gFYfM09zGackvUiu68f8uZHce9G3xVl2nf85mfmvapwurXSr/feSW3&#xA;lR+lNvRmjX3+ziqP/wCh2fzE/wCrJpH/AAFz/wBV8VQt9/zmj+aM8TR22naRaFgKSrDcO4INTTnO&#xA;U3G26nFWI61/zkv+dOrR+lJ5iktIuvGyihtj/wAjI0En/DYq881XWtZ1e5a61W/uNQuWJLT3UrzO&#xA;SevxOWOKoLFXYqjdH0XV9a1CLTdIs5r+/nPGK2t0aR2+hQdvE4q+4/8AnG/8krr8utEu77W+B8y6&#xA;vwFxHGwdbeCOpWEOKhmLHk5G3QDpUqvZMVdirsVdirsVS3X/ACz5d8w2Rstd0221O1INIrqJJQpY&#xA;UJXkDxb3XfFXk3mH/nET8odUaSSyhvNGlcHiLK4LRhvHhcCfb2BH0Yq861z/AJwfvFBfQvNMcp7Q&#xA;31s0dP8AnrE8lf8AkXiry7zZ/wA4z/nB5bjknk0f9KWkZatxpji5FFr8XpALPSgr/d4q8vlikika&#xA;KVDHIhKujAhgRsQQehxVZir6O/5xG/Nu80vzAnkLU5i+kaqWbSi+/oXYBYop7JMAdv56U6mqr7Gx&#xA;V2KvkH/nMv8AL7WIvMlp52toWm0m5to7O+kQFvQniZghk/lWRGAU+IPiMVec/mB+fPnP8wfKuk+V&#xA;NQtLZYrOSJ2ktUf1rmeNGijJWrAbOfhUbt92Kvrb/nHHyJqvkv8AK6y0/V0aHU7yaW/urVqVhM3E&#xA;JGaftCNFLDsSRir07FXYq7FXYqsmhhnhkgnjWWGVSksTgMrKwoysp2II6jFXzt+bX/OImia00+re&#xA;Rnj0fUmq8mlSVFlK3U+mRUwE+ABT2XFXgPlr8hPzD1Dz9aeVdW0W+01WmAv74wloYrcNR51m/uXX&#xA;Y8SHox2GKvUNV/5wf1+OQ/onzRaXMdKj63byW7V8P3bXH3/hiqTyf84U/meHIj1bRGTsWmu1P3C1&#xA;b9eKrf8AoSr80/8Aq66H/wBJF5/2SYqvi/5wo/M4uBNq+iondkmu3P3G2X9eKso0X/nB5eAfW/NR&#xA;5nrDZWuw/wCessm//IvFXoWh/wDOI/5N6ZIHubW81cjoL65bjXxpbC3B+nbFXqHlzyh5X8tWptfL&#xA;+lWulwGgdbaJYy9OhdgOTn3YnFU3xV2KuxV2KuxV2KuxV2KuxV2KvPPzV/I7yV+YllK19bLZ66Ep&#xA;a61AoE6sFoglpT1UG3wt26EYq+CPOXlLWPKPma/8u6vGI77T5DG5WvB1I5JIhIFUdCGX2OKqXlPU&#xA;59K80aPqcDFJrG9t7iNh1DRSq4/Vir9P8Vdiq2WGKaJ4pkWSKQFXjcBlZTsQQdiMVSTS/IfkbSb0&#xA;X+leXdM0++FaXVrZ28Mu/X440Vt6+OKp7irsVdirsVdirsVdirsVdirsVdirsVdirsVdirsVdirs&#xA;VdirsVdirsVdirsVdirsVfHP/ObWnWsPnXQL+NAtxd6e8c7AAchDMeBPif3lPlir5+0S3e51mwto&#xA;/tzXMUafN3AH68VfqPirsVdirsVdirsVdirsVdirsVdirsVdirsVdirsVdirsVdirsVdirsVdirs&#xA;VdirsVdirsVdirsVfG3/ADmzqEcvnzQrBWBa20z1XUdjNO4FfoixVgv/ADjV5Tm8x/m/olEJttIk&#xA;/St1IBUKLWjRV/1p/TX6cVfoHirsVdirsVdirsVdirsVdirsVdirsVdirsVdirsVdirsVdirsVdi&#xA;qhf6hYadZy3uoXMVnZwDlNc3DrFEi1pVnchVHzOKvJNf/wCcsPyc0m5NvFf3Oqsv23sLcvGDWlA8&#xA;phVvGqkj3xVkv5efnh+Xfn6d7TQdQYakil2066QwzlF6soNVcDvwY074qjfzN/NPyt+XWhrqmuyO&#xA;zzsY7GxhAae4kUVIQEqAq1HJiaD5kAqvCh/znLbevxPkxxb1/vP0iOfHx4fVqV9uWKvcfyx/Nzyf&#xA;+Y2mS3egzOtxbcRe6dcAJcQlvsllBYFWoaMpI+nFWaYq7FXYq/O78/fNaeaPza8wahAwe0hnFjaF&#xA;dwY7RRDyHs7IW+nFX1R/zi7+U8vkrya2r6rD6fmDzAEmmjYDlBagEwReKs3Lm48aA7rir2nFXYq7&#xA;FXYq7FXYq7FXYq7FXYq7FXYq7FXYq7FXYq7FXYq7FXYq85/N388fKf5bWFLxvr+vTLys9GhYCRh2&#xA;eVqH0o/cip/ZB3oq+JfzI/N3zt+YOoG4129Is0Ym10uCqWsI/wAlKnk3+U5Le+KsLxVH6DrepaFr&#xA;VlrOmSmC/wBPmS4tpR2dDUV8QehHcYq9J/5yV89t5v8AzDjuImpYWunWS2kQPIJ9Zt0u5B0FWDz8&#xA;WNP2cVeT4qzb8m/PV35J/MTSNaikK2pmW21KMHaS0nYLKCO/EfGv+UoxV+j2KuxV5v8An9+ZkXkP&#xA;8v7y6gk463qQay0dFNHE0i0aYUINIVPKv83Ed8VeP/8AOOH/ADjbIslt5188WhEgIm0jRZ1oQRut&#xA;xco3fuiH5nsMVfVGKuxV2KuxV2KuxV2KuxV2KuxV2KuxV2KuxV2KuxV2KuxV2KuxV4N+fP8Azkxp&#xA;3k0XHlzys0d95qAKXFzs8Fi3fkNxJMP5Oi/tfylV8XapqmparqE+o6lcyXl9dOZLi5mYvI7HqWY4&#xA;qhcVdiqb+UvK2seavMVjoGjwNPf30gjjVRUKvV5H8ERasx7DFWR/ndoB8vfmfrOiVLJYC1hic0q0&#xA;a2kPpsaE7slDirBcVdir9PPJl/JqPk/QtQlYvJeafaXDuxJYtLAjkkknffxxVOMVYzq/5b+UtZ82&#xA;WfmnVrQ3+p6dF6Nglw7Pbw/Fz9RID+79Sv7RFengMVZNirsVdirsVdirsVdirsVdirsVdirsVdir&#xA;sVdirsVdirsVdiriQASTQDck9KYq+V/z9/5yl4m58rfl/c1beLUPMEZBG4o0do33gy/8B/Nir5Vd&#xA;2di7ks7ElmJqST1JOKrcVdirOPy0/J3zv+Yd96Wh2ZSwjYC61W4qlrFuKjnT43FfsJVvo3xV9tfl&#xA;H+SnlT8ttNZLBTeazcqBfavMo9V6fsRgf3cdf2R1/aJ2xV8t/wDOYGjS2P5vyXrf3erWNtcxkf8A&#xA;FYNsQff9xirxHFXYq/SL8mbxLv8AKbyfKilQukWcJB61ggWJjt4lKjFWZYq7FXYq7FXYq7FXYq7F&#xA;XYq7FXYq7FXYq7FXYq7FXYq7FXYq7FUPqOpWGmWE+oahcR2llaoZLi5lYIiIvVmY9MVfGP59/wDO&#xA;TF/5uafy35TkksvLAJjubsVSe+oSPYpCf5erftfy4q8BxV2KozSdH1XWNQh07SrSa+v7huMNtbo0&#xA;kjH2VQTir6j/ACl/5w9ij9HV/wAxJOb7PHoFs/wg7GlzMvX3SM/7Ltir6d07TdP02yhsNOtorOyt&#xA;14QW0CLHGi+CooAGKojFXzB/zm75bMmmeW/MkUX+8802n3Uo8JlEsIPyMUn3/LFXyVirsVfol/zj&#xA;5MZvyY8qOabWfDb/ACJHT/jXFXoWKuxV2KuxV2KuxV2KuxV2KuxV2KuxV2KuxV2KuxV2KuxV2KpR&#xA;5r82+XvKehz63r94llp1uPikfcsx+ykaj4nduyrvir4X/Oz8/PMH5j3xs4een+VoH5WmmA/FIR0l&#xA;uCPtt4L0XtvuVXlWKuxV7H+VH/OMnnfzuIdR1BToPl56MLy4U+vMvX9xAaMQa/bai+FemKvsP8vf&#xA;yq8k+QLD6r5dsFimccbnUJaSXc29f3ktAabfZWi+2KsuxV2KuxV57+f3lP8AxR+UvmCwRA11bW5v&#xA;7Ota+rZn1qLT9p0VkH+tir87cVdir76/5xX1KO9/JLQ41/vLGS7tpulOQuZJFpQn9iReuKvWsVdi&#xA;rsVdirsVdirsVdirsVdirsVdirsVdirsVdirsVdirEPzM/NHyt+Xmgtqmtz1meq2GnRkG4uZB+zG&#xA;p/ZH7TnZfmQCq+D/AM0fzZ81fmNrZv8AWJTHZwlhp+lxsfQt0Y/sjbk5FOTkVPyoAqwrFWWeQPyu&#xA;86+fdR+p+XdPeeNCBc3z/BbQA95JT8IPgoqx7DFX1/8AlR/zi75L8mehqWshfMHmBKMJp0H1WB6f&#xA;7phatSp6O9T3AXFXtOKuxV2KuxV2KuxV+b/5xeSm8mfmRrehKpW0inM1gTQ1tp/3sO4A+yrcTt1B&#xA;xVheKvsP/nCbzELjylr3l93X1NPvUu4lJ+L07qMIaDwDW/44q+kcVdirsVdirsVdirsVdirsVdir&#xA;sVdirsVdirsVdirsVeZfnR+evlz8ttNaIlb/AMy3CVsNKVuldhLcEbpGPvboO5Cr4U84+c/MfnDX&#xA;Z9b8wXjXd9Oep2SNB9mOJBsiL2A/XiqX6To+q6xqEOnaVaTX1/cNxhtrdGkkY+yqCcVfT35Uf84d&#xA;msOq/mHLts6aBav3r9m5nT2/ZiP+y7Yq+ntH0bSdG06HTdJs4bGwt14w20CCNFHyXv4nFUZirsVd&#xA;irsVdirsVdir5s/5zN/L1r/QdP8AO9nGWuNJIstS4iv+iSsTE59o5mp/s8VfH2KvUf8AnHL8xofI&#xA;/wCZNpcX0npaNqinT9Sc/ZRZGBjlPtHIqkn+WuKv0DBBAINQdwR0pirsVdirsVdirsVdirsVdirs&#xA;VdirsVdirsVdirsVeGfnz/zknpvkmOfy/wCW2jvvNpBSVyA8FjUfak3o8u/wp0H7X8pVfFOqarqe&#xA;r6jPqOpXMl5f3bmS4uJWLu7sdyScVewflT/zi35184iHUtZDeX9Ako6zTp/pUyHcGGE0IDDo70Hc&#xA;csVfX3kD8rvJXkLT/qnlzT1gkZeNxfSfvLqbof3kpFaVFeIoo7DFWV4q7FXYq7FXYq7FXYq7FXYq&#xA;gtc0bT9c0a90fUYhNYahC9vcxmm6SKVNK1oRXY9jir84vzL/AC71zyD5ru9B1WNuKMXsbulEubck&#xA;+nKh6bj7Q/Zao7YqxXFX1D/zjr/zkxbafbWnk3zxc+naRAQ6TrkpJWNeiQXLHog6JJ0UbNsKhV9Y&#xA;xSxSxJLE6yRSKGjkUhlZWFQQRsQRiq7FXYq7FXYq7FXYq7FXYq7FXYq7FXYq7FXzB+fv/OUaWZuP&#xA;K3kG6D3YrFqGvxEFY/GO0YH4m7GToP2d9wq+fvy8/Kfz1+YmotFodm0kAf8A0zVbglLaIsdy8pB5&#xA;N34rVvbFX2D+VP8AzjP5G8kLDf30a675iSjG+uUBhhcf8s8Bqq/6zVbwp0xV6/irsVdirsVdirsV&#xA;dirsVdirsVdirsVYn+ZP5ZeVvzC0E6Rr0JJjJeyvYqLPbyEU5RsQev7SnY9+goq+MfzL/wCcafzE&#xA;8lzTXFtavr2hoSU1GxQu6oN6zwDlJHQdSKqP5sVeTEEEgihHUYq9M/K3/nIHz7+XxjtLWcanoINW&#xA;0e7JaNRvX0H3aE71+H4a9VOKvq/8vf8AnJj8svOCxW8t6NC1d9jYaiyxqW8I7j+6evYEhj/Lir1g&#xA;EEAg1B3BHSmKuxV2KuxV2KuxV2KuxV2KuxVSvLy0srWW7vJ47a1gUvPcTMscaIu5Z3YhVA8Tir5J&#xA;/OH8+vM/5ialL5F/LC2urjTZeUV3d2sbG4vFH2ggA5RW/iTQsOtFqCqnP5Uf84dwQ+jqv5hyiaYU&#xA;ZNBtn/dgggj6xOh+L3WPb/KPTFX01p2m6fpljDYadbRWdjbrwgtYEWONF60VFAAxVEYq7FXYq7FX&#xA;Yq7FXYq7FXYq7FXYq7FXYq7FXYqw/wA2/lD+Wnm12l17y/aXNy5Je8RTBcMT3aaExyN9LYq8n8wf&#xA;84VeRLv4tD1m/wBKkNarMI7yIeFFpC/3ucVeZeYP+cMfzKsVaTSL7T9YjBosYd7aYjffjKvp/wDJ&#xA;TFUk05P+cmvytBW2ttXs9PtyQ0Pp/X7AdjsPXgWtOq0+eKvQfKX/ADmxewlbbzj5fWUqQsl5prGN&#xA;wBsxNvMSC3/PRcVe3eTfz8/KnzZ6cWna7DbXsg2sL/8A0WatacR6lEdj4IzYq9BxV2KuxV2KuxV2&#xA;KuxV4n+fn+E/r9l/j/8AxD/g2kdP0Z6f6K9fka/XvS/0rn04fs/y/FXFWb/lZ/yqj9Ar/wAq6/R/&#xA;6OoPV+pU9atTT6xz/f8ALrT1d/oxVmuKuxV2KuxV2KuxV2KuxV2KuxV2KuxV2KuxV2KuxV2KuxV2&#xA;KuxV2KsJ8+/8qb4y/wCOP0H6nAc/0l9W9fjTbh6n72tOnHfwxV5Zp3/Ql/6ctvq36L+vesvo+t9d&#xA;+rc6/Dz9b/RuPjz+HxxV/9k=</xapGImg:image>
               </rdf:li>
            </rdf:Alt>
         </xap:Thumbnails>
         <xap:CreatorTool>Adobe Illustrator CS3</xap:CreatorTool>
         <xap:ModifyDate>2008-01-04T01:14-08:00</xap:ModifyDate>
         <xap:MetadataDate>2008-01-04T01:14-08:00</xap:MetadataDate>
      </rdf:Description>
      <rdf:Description rdf:about=""
            xmlns:xapTPg="http://ns.adobe.com/xap/1.0/t/pg/"
            xmlns:stDim="http://ns.adobe.com/xap/1.0/sType/Dimensions#"
            xmlns:xapG="http://ns.adobe.com/xap/1.0/g/">
         <xapTPg:MaxPageSize rdf:parseType="Resource">
            <stDim:w>612.000000</stDim:w>
            <stDim:h>792.000000</stDim:h>
            <stDim:unit>Points</stDim:unit>
         </xapTPg:MaxPageSize>
         <xapTPg:NPages>1</xapTPg:NPages>
         <xapTPg:HasVisibleTransparency>False</xapTPg:HasVisibleTransparency>
         <xapTPg:HasVisibleOverprint>False</xapTPg:HasVisibleOverprint>
         <xapTPg:PlateNames>
            <rdf:Seq>
               <rdf:li>Cyan</rdf:li>
               <rdf:li>Magenta</rdf:li>
               <rdf:li>Yellow</rdf:li>
               <rdf:li>Black</rdf:li>
            </rdf:Seq>
         </xapTPg:PlateNames>
         <xapTPg:SwatchGroups>
            <rdf:Seq>
               <rdf:li rdf:parseType="Resource">
                  <xapG:groupName>Default Swatch Group</xapG:groupName>
                  <xapG:groupType>0</xapG:groupType>
               </rdf:li>
            </rdf:Seq>
         </xapTPg:SwatchGroups>
      </rdf:Description>
      <rdf:Description rdf:about=""
            xmlns:dc="http://purl.org/dc/elements/1.1/">
         <dc:format>image/svg+xml</dc:format>
      </rdf:Description>
      <rdf:Description rdf:about=""
            xmlns:xapMM="http://ns.adobe.com/xap/1.0/mm/">
         <xapMM:InstanceID>uuid:D3ABF190A4BADC11828F907C0EB444D3</xapMM:InstanceID>
      </rdf:Description>
   </rdf:RDF>
</x:xmpmeta>
                                                                                                    
                                                                                                    
                                                                                                    
                                                                                                    
                                                                                                    
                                                                                                    
                                                                                                    
                                                                                                    
                                                                                                    
                                                                                                    
                                                                                                    
                                                                                                    
                                                                                                    
                                                                                                    
                                                                                                    
                                                                                                    
                                                                                                    
                                                                                                    
                                                                                                    
                                                                                                    
                           
<?xpacket end="w"?>
	</metadata>
<g id="Layer_1" i:layer="yes" i:dimmedPercent="50" i:rgbTrio="#4F008000FFFF">
	<g>
		<g id="surface0" i:knockout="Off">
			<path fill="none" stroke="#000000" stroke-width="0.1" stroke-miterlimit="10" d="M168.724,49.939
				c8.953-1.121,18.478,3.936,22.118,12.292c5.506,10.405-0.06,24.562-10.904,28.857c-6.945,3.2-15.429,2.026-21.52-2.489
				c-6.908-5.356-10.573-15.094-7.605-23.525C153.2,57.081,160.459,51.01,168.724,49.939z"/>
			<path d="M168.724,49.939c8.953-1.121,18.478,3.936,22.118,12.292c5.506,10.405-0.06,24.562-10.904,28.857
				c-6.945,3.2-15.429,2.026-21.52-2.489c-6.908-5.356-10.573-15.094-7.605-23.525C153.2,57.081,160.459,51.01,168.724,49.939z"/>
			<path fill="none" stroke="#000000" stroke-width="0.1" stroke-miterlimit="10" d="M10.747,71.773
				c6.156-4.572,14.543-3.907,21.086-0.562c6.746,4.546,11.623,12.762,9.509,21.074c10.124,6.374,20.469,12.39,30.655,18.664
				c2.702,1.75,5.719,3.015,8.929,3.421c21.194,4.064,44.053,1.951,63.223-8.374c4.555-2.114,9.595-4.81,14.751-3.446
				c5.676,2.219,6.318,10.538,2.172,14.51c-5.068,5.054-12.504,6.104-19.209,7.469c-5.962,0.875-11.858,2.563-17.933,2.356
				c-9.845,0.131-19.798,0.251-29.461-1.923c0.455,2.661-1.667,5.183-4.47,4.108c-6.046-3.132-11.594-7.157-17.557-10.451
				c-4.789-2.858-10.075-4.969-14.274-8.724c-6.597-4.29-13.407-8.256-20.106-12.39c-6.64,4.73-15.847,4.289-22.58-0.02
				c-4.674-3.831-8.993-9.078-9.018-15.424C6.619,78.315,6.863,73.633,10.747,71.773z"/>
			<path d="M10.747,71.773c6.156-4.572,14.543-3.907,21.086-0.562c6.746,4.546,11.623,12.762,9.509,21.074
				c10.124,6.374,20.469,12.39,30.655,18.664c2.702,1.75,5.719,3.015,8.929,3.421c21.194,4.064,44.053,1.951,63.223-8.374
				c4.555-2.114,9.595-4.81,14.751-3.446c5.676,2.219,6.318,10.538,2.172,14.51c-5.068,5.054-12.504,6.104-19.209,7.469
				c-5.962,0.875-11.858,2.563-17.933,2.356c-9.845,0.131-19.798,0.251-29.461-1.923c0.455,2.661-1.667,5.183-4.47,4.108
				c-6.046-3.132-11.594-7.157-17.557-10.451c-4.789-2.858-10.075-4.969-14.274-8.724c-6.597-4.29-13.407-8.256-20.106-12.39
				c-6.64,4.73-15.847,4.289-22.58-0.02c-4.674-3.831-8.993-9.078-9.018-15.424C6.619,78.315,6.863,73.633,10.747,71.773z"/>
			<path fill="none" stroke="#FFFFFF" stroke-width="0.1" stroke-miterlimit="10" d="M12.941,79.104
				c0.286-2.646,3.303-3.168,5.104-4.514c3.76-0.081,7.736,0.333,11.01,2.323c2.883,2.459,5.815,5.373,6.598,9.237
				c0.284,2.708-0.173,6.224-3.045,7.412C23.61,98.18,10.733,89.306,12.941,79.104z"/>
			<path fill="#FFFFFF" d="M12.941,79.104c0.286-2.646,3.303-3.168,5.104-4.514c3.76-0.081,7.736,0.333,11.01,2.323
				c2.883,2.459,5.815,5.373,6.598,9.237c0.284,2.708-0.173,6.224-3.045,7.412C23.61,98.18,10.733,89.306,12.941,79.104z"/>
			<path fill="none" stroke="#000000" stroke-width="0.1" stroke-miterlimit="10" d="M217.05,97.608
				c5.187-1.526,10.712-1.809,16.06-1.087c10.449,1.976,20.814,5.398,29.581,11.56c4.985,3.89,9.851,8.752,11.154,15.188
				c2.757,13.268-1.659,27.805-11.414,37.248c-3.067,2.81-5.935,6.013-9.554,8.095l-1.619-0.112
				c6.924-8.983,10.238-20.378,10.299-31.641c0-5.284-2.709-10.368-7.182-13.206c-10.895-7.411-24.852-6.378-36.767-11.119
				c-3.694-1.315-6.003-4.826-7.004-8.46C210.568,100.496,214.09,98.552,217.05,97.608z"/>
			<path d="M217.05,97.608c5.187-1.526,10.712-1.809,16.06-1.087c10.449,1.976,20.814,5.398,29.581,11.56
				c4.985,3.89,9.851,8.752,11.154,15.188c2.757,13.268-1.659,27.805-11.414,37.248c-3.067,2.81-5.935,6.013-9.554,8.095
				l-1.619-0.112c6.924-8.983,10.238-20.378,10.299-31.641c0-5.284-2.709-10.368-7.182-13.206
				c-10.895-7.411-24.852-6.378-36.767-11.119c-3.694-1.315-6.003-4.826-7.004-8.46C210.568,100.496,214.09,98.552,217.05,97.608z"
				/>
			<path fill="none" stroke="#000000" stroke-width="0.1" stroke-miterlimit="10" d="M207.615,157.812
				c3.602-7.059,14.701-6.346,18.875-0.266c3.557,4.711,3.938,10.843,4.536,16.495c0.926,13.231,0.168,26.912,4.794,39.575
				c4.015,9.951,13.409,16.21,22.715,20.69c10.887,5.605,22.906,8.273,34.314,12.525c-2.428,3.109-7.002,1.354-10.309,0.986
				c-11.182-2.529-22.366-5.047-33.55-7.557c-10.097-2.486-20.708-6.726-26.716-15.701c-7.891-14.547-13.304-30.415-16.07-46.729
				C205.438,171.23,204.505,163.965,207.615,157.812z"/>
			<path d="M207.615,157.812c3.602-7.059,14.701-6.346,18.875-0.266c3.557,4.711,3.938,10.843,4.536,16.495
				c0.926,13.231,0.168,26.912,4.794,39.575c4.015,9.951,13.409,16.21,22.715,20.69c10.887,5.605,22.906,8.273,34.314,12.525
				c-2.428,3.109-7.002,1.354-10.309,0.986c-11.182-2.529-22.366-5.047-33.55-7.557c-10.097-2.486-20.708-6.726-26.716-15.701
				c-7.891-14.547-13.304-30.415-16.07-46.729C205.438,171.23,204.505,163.965,207.615,157.812z"/>
			<path fill="none" stroke="#000000" stroke-width="0.1" stroke-miterlimit="10" d="M184.461,156.667
				c4.109-1.944,9.04-3.316,13.447-1.535c4.569,1.858,6.26,7.379,6.299,11.915c-0.662,6.375-6.433,10.312-11.321,13.582
				c-34.555,21.877-70.118,42.1-105.087,63.301c-4.949,2.574-9.95,5.697-15.617,6.218c1.672-1.704,3.77-2.868,5.643-4.318
				c28.1-24.605,56.606-48.757,84.855-73.198C169.545,166.812,176.416,160.824,184.461,156.667z"/>
			<path d="M184.461,156.667c4.109-1.944,9.04-3.316,13.447-1.535c4.569,1.858,6.26,7.379,6.299,11.915
				c-0.662,6.375-6.433,10.312-11.321,13.582c-34.555,21.877-70.118,42.1-105.087,63.301c-4.949,2.574-9.95,5.697-15.617,6.218
				c1.672-1.704,3.77-2.868,5.643-4.318c28.1-24.605,56.606-48.757,84.855-73.198C169.545,166.812,176.416,160.824,184.461,156.667z
				"/>
		</g>
	</g>
	<g i:knockout="Off">
		<path i:knockout="Off" d="M18.375,113.375c4.971,0,9,4.029,9,9s-4.029,9-9,9s-9-4.029-9-9S13.404,113.375,18.375,113.375
			 M18.375,119.375c-1.654,0-3,1.346-3,3s1.346,3,3,3s3-1.346,3-3S20.029,119.375,18.375,119.375L18.375,119.375z"/>
	</g>
</g>
</svg>
