<?xml version="1.0" encoding="UTF-8" standalone="no"?>
<svg
   xmlns:dc="http://purl.org/dc/elements/1.1/"
   xmlns:cc="http://web.resource.org/cc/"
   xmlns:rdf="http://www.w3.org/1999/02/22-rdf-syntax-ns#"
   xmlns:svg="http://www.w3.org/2000/svg"
   xmlns="http://www.w3.org/2000/svg"
   xmlns:sodipodi="http://sodipodi.sourceforge.net/DTD/sodipodi-0.dtd"
   xmlns:inkscape="http://www.inkscape.org/namespaces/inkscape"
   width="300"
   height="300"
   viewBox="0 0 300 300"
   version="1.0"
   id="svg2578"
   sodipodi:version="0.32"
   inkscape:version="0.45"
   sodipodi:docname="Olympic_pictogram_Roller_hockey.svg"
   inkscape:output_extension="org.inkscape.output.svg.inkscape"
   sodipodi:docbase="C:\Dokumente und Einstellungen\David Herrmann\Desktop\temp"
   sodipodi:modified="true">
  <metadata
     id="metadata2631">
    <rdf:RDF>
      <cc:Work
         rdf:about="">
        <dc:format>image/svg+xml</dc:format>
        <dc:type
           rdf:resource="http://purl.org/dc/dcmitype/StillImage" />
      </cc:Work>
    </rdf:RDF>
  </metadata>
  <sodipodi:namedview
     inkscape:window-height="975"
     inkscape:window-width="1280"
     inkscape:pageshadow="2"
     inkscape:pageopacity="0.0"
     guidetolerance="10.0"
     gridtolerance="10.0"
     objecttolerance="10.0"
     borderopacity="1.0"
     bordercolor="#666666"
     pagecolor="#ffffff"
     id="base"
     width="300px"
     height="300px"
     inkscape:zoom="1.421756"
     inkscape:cx="345.95163"
     inkscape:cy="122.58124"
     inkscape:window-x="-4"
     inkscape:window-y="-4"
     inkscape:current-layer="svg2578" />
  <defs
     id="defs2580">
    <clipPath
       id="clip0">
      <rect
         width="300"
         height="300"
         id="rect2583"
         x="0"
         y="0" />
    </clipPath>
  </defs>
  <path
     sodipodi:type="arc"
     style="fill:#000000;fill-opacity:1;stroke:none;stroke-width:1.20000005;stroke-linejoin:round;stroke-miterlimit:4;stroke-dasharray:none;stroke-opacity:1"
     id="path2780"
     sodipodi:cx="197.69562"
     sodipodi:cy="54.061672"
     sodipodi:rx="20.391247"
     sodipodi:ry="20.391247"
     d="M 218.08686 54.061672 A 20.391247 20.391247 0 1 1  177.30437,54.061672 A 20.391247 20.391247 0 1 1  218.08686 54.061672 z"
     transform="matrix(1.0731707,0,0,1.0731707,-12.97349,-2.4636897)" />
  <path
     style="fill:#000000;fill-opacity:1;stroke:none;stroke-width:1.20000005;stroke-linejoin:round;stroke-miterlimit:4;stroke-dasharray:none;stroke-opacity:1"
     d="M 250.53125 229.875 C 245.65824 229.875 241.71874 233.81449 241.71875 238.6875 C 241.71875 243.56051 245.65824 247.53126 250.53125 247.53125 C 255.40426 247.53125 259.37501 243.56051 259.375 238.6875 C 259.375 233.81449 255.40426 229.87499 250.53125 229.875 z M 250.53125 236.09375 C 251.97256 236.09374 253.15625 237.24619 253.15625 238.6875 C 253.15626 240.12881 251.97256 241.3125 250.53125 241.3125 C 249.08994 241.31251 247.9375 240.12881 247.9375 238.6875 C 247.93749 237.24619 249.08994 236.09375 250.53125 236.09375 z "
     id="path2775" />
  <path
     id="path2596"
     d="M 156.95563,67.995148 C 161.33727,65.339478 167.32523,68.422562 168.82455,73.063766 C 173.36385,83.610092 168.57948,95.18541 170.62401,106.12849 C 173.14839,119.29208 173.54614,133.33546 180.70683,145.10043 C 173.83995,128.10826 175.01945,109.06781 179.75806,91.694458 C 180.92232,87.798721 183.1741,83.793503 187.01373,82.032166 C 192.33861,79.473175 198.4308,84.785568 198.78239,90.170868 C 199.17539,99.75383 195.32843,108.81064 194.7045,118.2971 C 193.92677,127.73315 192.08684,137.3629 194.18611,146.7585 C 195.9955,155.34215 199.13942,163.72755 203.901,171.11743 C 206.85684,174.28133 207.7749,178.60069 209.41238,182.47963 C 217.23952,202.29636 225.03626,222.12532 232.89371,241.93039 C 234.92468,246.77374 237.27112,252.40076 242.65895,254.27594 C 245.884,255.883 249.98175,255.09767 252.0136,252.02979 C 253.16093,250.13794 256.47093,249.03561 257.53388,251.56021 C 258.87636,254.29022 256.33388,256.80412 254.44841,258.47714 C 251.47089,261.44417 246.98846,260.97565 243.16563,260.68453 C 236.45046,259.65126 231.54646,254.23358 228.54285,248.48883 C 219.4303,225.22958 210.2175,202.00583 201.05186,178.76672 C 200.50713,176.47873 198.18427,175.66736 196.35158,174.64995 C 187.29091,170.23457 180.19601,162.86436 173.28258,155.71582 C 167.93253,150.21854 163.49323,143.91118 159.76971,137.21992 C 154.01447,126.37346 151.3434,114.18419 150.12361,102.0473 C 149.29163,94.653305 148.50903,87.139175 149.59372,79.730118 C 150.40271,75.140625 152.35872,69.968643 156.95563,67.995148 z "
     style="fill:#000000;fill-rule:nonzero;stroke:none" />
  <path
     style="fill:#000000;fill-rule:nonzero;stroke:none"
     d="M 124.21831,118.2646 C 128.42171,115.6391 133.75186,117.07974 137.76683,119.22061 C 146.15095,123.6912 150.23807,133.07301 153.46353,141.60013 C 157.07376,154.07204 161.0164,166.83246 160.33789,179.9727 C 159.19765,193.19786 152.95444,205.21835 146.76065,216.71272 C 140.08881,229.61276 127.1767,237.24059 117.23027,247.29336 C 122.68266,251.95378 128.34908,256.35803 133.83934,260.97562 C 132.5229,262.49957 131.18477,264.00589 129.85651,265.52219 C 121.0959,258.75006 112.58009,251.65736 104.02312,244.62921 C 105.36823,242.83782 106.52037,241.4508 107.87172,239.75874 C 110.32838,241.70674 112.75841,243.68892 115.15181,245.71811 C 119.86864,239.46725 124.53708,233.13809 128.18939,226.18895 C 135.02931,214.56732 141.46835,201.84554 141.11343,187.99712 C 140.47195,178.56859 139.57489,168.69493 134.58604,160.41487 C 128.86299,150.7392 121.18016,141.55292 119.78246,130.01018 C 119.25104,125.77933 119.88355,120.31168 124.21831,118.2646 z "
     id="path2604"
     sodipodi:nodetypes="cscccccccccccccc" />
  <path
     id="path2600"
     d="M 97.288864,106.32671 C 99.599199,104.16448 103.02145,105.16954 105.34462,106.62402 C 109.7935,109.70422 112.62117,114.6004 114.65498,119.50661 C 119.02434,130.77167 120.45123,142.97463 120.43495,154.99327 C 120.22783,162.92246 119.39329,171.33043 115.27951,178.29323 C 110.64774,184.64014 103.93034,190.10425 95.928177,191.19492 C 83.402878,192.89514 70.707031,189.82127 59.237778,184.87383 C 55.245148,183.31769 52.343597,180.11246 49.402939,177.14327 C 46.929443,183.80818 44.075302,190.32358 41.426559,196.92021 C 39.531372,196.36313 37.714432,195.58357 35.918503,194.77269 C 40.020492,184.43086 44.293564,174.24757 48.299927,163.92096 C 50.185242,164.3672 52.023193,164.98337 53.852142,165.6223 C 52.898481,168.41388 52.039444,170.9303 51.109467,173.57619 C 58.220001,175.66487 65.546692,177.50177 73.025635,176.73489 C 81.798431,175.93454 91.598923,174.71722 98.017288,168.00865 C 100.95836,165.34985 99.491119,161.02583 99.172058,157.62601 C 97.797287,145.90997 93.760254,134.69289 92.537796,122.96027 C 91.870895,117.13945 92.774385,110.55178 97.288864,106.32671 z "
     style="fill:#000000;fill-rule:nonzero;stroke:none"
     sodipodi:nodetypes="cccccccccccccccccs" />
  <path
     sodipodi:type="arc"
     style="fill:#000000;fill-opacity:1;stroke:none;stroke-width:1.20000005;stroke-linejoin:round;stroke-miterlimit:4;stroke-dasharray:none;stroke-opacity:1"
     id="path2773"
     sodipodi:cx="102.82659"
     sodipodi:cy="251.50862"
     sodipodi:rx="4.2274537"
     sodipodi:ry="4.2274537"
     d="M 107.05405 251.50862 A 4.2274537 4.2274537 0 1 1  98.599138,251.50862 A 4.2274537 4.2274537 0 1 1  107.05405 251.50862 z"
     transform="translate(-69.50431,-66.271552)" />
  <path
     sodipodi:type="arc"
     style="fill:#000000;fill-opacity:1;stroke:none;stroke-width:1.20000005;stroke-linejoin:round;stroke-miterlimit:4;stroke-dasharray:none;stroke-opacity:1"
     id="path2771"
     sodipodi:cx="102.82659"
     sodipodi:cy="251.50862"
     sodipodi:rx="4.2274537"
     sodipodi:ry="4.2274537"
     d="M 107.05405 251.50862 A 4.2274537 4.2274537 0 1 1  98.599138,251.50862 A 4.2274537 4.2274537 0 1 1  107.05405 251.50862 z"
     transform="translate(-61.17374,-86.538462)" />
  <path
     sodipodi:type="arc"
     style="fill:#000000;fill-opacity:1;stroke:none;stroke-width:1.20000005;stroke-linejoin:round;stroke-miterlimit:4;stroke-dasharray:none;stroke-opacity:1"
     id="path2765"
     sodipodi:cx="102.82659"
     sodipodi:cy="251.50862"
     sodipodi:rx="4.2274537"
     sodipodi:ry="4.2274537"
     d="M 107.05405 251.50862 A 4.2274537 4.2274537 0 1 1  98.599138,251.50862 A 4.2274537 4.2274537 0 1 1  107.05405 251.50862 z"
     transform="translate(17.531499,13.552718)" />
  <path
     sodipodi:type="arc"
     style="fill:#000000;fill-opacity:1;stroke:none;stroke-width:1.20000005;stroke-linejoin:round;stroke-miterlimit:4;stroke-dasharray:none;stroke-opacity:1"
     id="path2761"
     sodipodi:cx="102.82659"
     sodipodi:cy="251.50862"
     sodipodi:rx="4.2274537"
     sodipodi:ry="4.2274537"
     d="M 107.05405 251.50862 A 4.2274537 4.2274537 0 1 1  98.599138,251.50862 A 4.2274537 4.2274537 0 1 1  107.05405 251.50862 z" />
</svg>
