<?xml version="1.0" encoding="UTF-8" standalone="no"?>
<!-- Created with Inkscape (http://www.inkscape.org/) -->

<svg
   xmlns:dc="http://purl.org/dc/elements/1.1/"
   xmlns:cc="http://creativecommons.org/ns#"
   xmlns:rdf="http://www.w3.org/1999/02/22-rdf-syntax-ns#"
   xmlns:svg="http://www.w3.org/2000/svg"
   xmlns="http://www.w3.org/2000/svg"
   xmlns:sodipodi="http://sodipodi.sourceforge.net/DTD/sodipodi-0.dtd"
   xmlns:inkscape="http://www.inkscape.org/namespaces/inkscape"
   id="svg2826"
   version="1.1"
   inkscape:version="0.47 r22583"
   width="300"
   height="300"
   sodipodi:docname="Scuba diving pictogram.png">
  <metadata
     id="metadata2832">
    <rdf:RDF>
      <cc:Work
         rdf:about="">
        <dc:format>image/svg+xml</dc:format>
        <dc:type
           rdf:resource="http://purl.org/dc/dcmitype/StillImage" />
        <dc:title></dc:title>
      </cc:Work>
    </rdf:RDF>
  </metadata>
  <defs
     id="defs2830">
    <inkscape:perspective
       sodipodi:type="inkscape:persp3d"
       inkscape:vp_x="0 : 0.5 : 1"
       inkscape:vp_y="0 : 1000 : 0"
       inkscape:vp_z="1 : 0.5 : 1"
       inkscape:persp3d-origin="0.5 : 0.33333333 : 1"
       id="perspective2834" />
    <inkscape:perspective
       id="perspective3634"
       inkscape:persp3d-origin="0.5 : 0.33333333 : 1"
       inkscape:vp_z="1 : 0.5 : 1"
       inkscape:vp_y="0 : 1000 : 0"
       inkscape:vp_x="0 : 0.5 : 1"
       sodipodi:type="inkscape:persp3d" />
    <inkscape:perspective
       id="perspective3656"
       inkscape:persp3d-origin="0.5 : 0.33333333 : 1"
       inkscape:vp_z="1 : 0.5 : 1"
       inkscape:vp_y="0 : 1000 : 0"
       inkscape:vp_x="0 : 0.5 : 1"
       sodipodi:type="inkscape:persp3d" />
    <inkscape:perspective
       id="perspective3656-4"
       inkscape:persp3d-origin="0.5 : 0.33333333 : 1"
       inkscape:vp_z="1 : 0.5 : 1"
       inkscape:vp_y="0 : 1000 : 0"
       inkscape:vp_x="0 : 0.5 : 1"
       sodipodi:type="inkscape:persp3d" />
    <inkscape:perspective
       id="perspective3656-9"
       inkscape:persp3d-origin="0.5 : 0.33333333 : 1"
       inkscape:vp_z="1 : 0.5 : 1"
       inkscape:vp_y="0 : 1000 : 0"
       inkscape:vp_x="0 : 0.5 : 1"
       sodipodi:type="inkscape:persp3d" />
    <inkscape:perspective
       id="perspective3656-8"
       inkscape:persp3d-origin="0.5 : 0.33333333 : 1"
       inkscape:vp_z="1 : 0.5 : 1"
       inkscape:vp_y="0 : 1000 : 0"
       inkscape:vp_x="0 : 0.5 : 1"
       sodipodi:type="inkscape:persp3d" />
    <inkscape:perspective
       id="perspective3656-2"
       inkscape:persp3d-origin="0.5 : 0.33333333 : 1"
       inkscape:vp_z="1 : 0.5 : 1"
       inkscape:vp_y="0 : 1000 : 0"
       inkscape:vp_x="0 : 0.5 : 1"
       sodipodi:type="inkscape:persp3d" />
    <inkscape:perspective
       id="perspective3656-5"
       inkscape:persp3d-origin="0.5 : 0.33333333 : 1"
       inkscape:vp_z="1 : 0.5 : 1"
       inkscape:vp_y="0 : 1000 : 0"
       inkscape:vp_x="0 : 0.5 : 1"
       sodipodi:type="inkscape:persp3d" />
    <inkscape:perspective
       id="perspective3656-7"
       inkscape:persp3d-origin="0.5 : 0.33333333 : 1"
       inkscape:vp_z="1 : 0.5 : 1"
       inkscape:vp_y="0 : 1000 : 0"
       inkscape:vp_x="0 : 0.5 : 1"
       sodipodi:type="inkscape:persp3d" />
    <inkscape:perspective
       id="perspective3656-52"
       inkscape:persp3d-origin="0.5 : 0.33333333 : 1"
       inkscape:vp_z="1 : 0.5 : 1"
       inkscape:vp_y="0 : 1000 : 0"
       inkscape:vp_x="0 : 0.5 : 1"
       sodipodi:type="inkscape:persp3d" />
  </defs>
  <sodipodi:namedview
     pagecolor="#ffffff"
     bordercolor="#666666"
     borderopacity="1"
     objecttolerance="10"
     gridtolerance="10"
     guidetolerance="10"
     inkscape:pageopacity="0"
     inkscape:pageshadow="2"
     inkscape:window-width="1440"
     inkscape:window-height="850"
     id="namedview2828"
     showgrid="false"
     inkscape:zoom="2.02"
     inkscape:cx="150"
     inkscape:cy="150"
     inkscape:window-x="0"
     inkscape:window-y="0"
     inkscape:window-maximized="1"
     inkscape:current-layer="svg2826" />
  <path
     sodipodi:type="arc"
     style="color:#000000;fill:#000000;fill-opacity:1;fill-rule:nonzero;stroke:none;stroke-width:0.1;marker:none;visibility:visible;display:inline;overflow:visible;enable-background:accumulate"
     id="path3610"
     sodipodi:cx="239.62357"
     sodipodi:cy="168.18939"
     sodipodi:rx="21.527302"
     sodipodi:ry="21.703754"
     d="m 261.15087,168.18939 a 21.527302,21.703754 0 1 1 -43.05461,0 21.527302,21.703754 0 1 1 43.05461,0 z"
     transform="matrix(1.0082081,0,0,1,-2.495978,0)" />
  <path
     style="fill:#000000;stroke:none;stroke-width:1px;stroke-linecap:butt;stroke-linejoin:miter;stroke-opacity:1"
     d="m 263.62121,244.94657 c 0,0 -31.40868,-40.58425 -53.28889,-75.87491 0,0 -8.46976,-10.23429 -15.17498,-5.2936 -6.70523,4.94069 -2.11744,13.05754 -2.11744,13.05754 0,0 14.11626,22.23312 41.64297,44.81914 27.52672,22.58602 29.29125,24.35055 28.93834,23.29183 z"
     id="path3612" />
  <g
     id="g3618"
     transform="matrix(0.8884427,0.45898756,-0.45898756,0.8884427,87.376372,-72.630423)">
    <path
       transform="matrix(1.0135137,0,0,1,-5.9771261,1.4116263)"
       d="m 214.2143,134.66327 c 0,7.30893 -5.84606,13.234 -13.05755,13.234 -7.21148,0 -13.05754,-5.92507 -13.05754,-13.234 0,-7.30894 5.84606,-13.234 13.05754,-13.234 7.21149,0 13.05755,5.92506 13.05755,13.234 z"
       sodipodi:ry="13.233996"
       sodipodi:rx="13.057544"
       sodipodi:cy="134.66327"
       sodipodi:cx="201.15675"
       id="path3614"
       style="color:#000000;fill:#000000;fill-opacity:1;fill-rule:nonzero;stroke:none;stroke-width:0.1;marker:none;visibility:visible;display:inline;overflow:visible;enable-background:accumulate"
       sodipodi:type="arc" />
    <rect
       y="122.8409"
       x="130.92834"
       height="26.467993"
       width="67.405159"
       id="rect3616"
       style="color:#000000;fill:#000000;fill-opacity:1;fill-rule:nonzero;stroke:none;stroke-width:0.1;marker:none;visibility:visible;display:inline;overflow:visible;enable-background:accumulate" />
  </g>
  <path
     style="fill:#000000;stroke:none;stroke-width:1px;stroke-linecap:butt;stroke-linejoin:miter;stroke-opacity:1"
     d="m 66.607849,71.264255 c 0,0 0.482081,49.150025 3.293795,59.837275 0.523282,1.98898 0.422444,4.81688 8.966441,8.41747 0,0 40.074505,16.65196 58.739335,12.07725 0,0 15.55403,-5.12368 7.68553,-18.48185 0,0 -4.9407,-6.95357 -28.54623,-18.84782 L 31.29105,67.055517 95.886024,125.24589 c 0,0 -12.077247,-0.54896 -12.443224,-3.84276 L 66.607849,71.264255 z"
     id="path3622"
     sodipodi:nodetypes="cscccccccc" />
  <path
     sodipodi:type="arc"
     style="color:#000000;fill:none;stroke:#000000;stroke-width:2.98292344;stroke-miterlimit:4;stroke-dasharray:none;marker:none;visibility:visible;display:inline;overflow:visible;enable-background:accumulate"
     id="path3624"
     sodipodi:cx="262.62375"
     sodipodi:cy="150"
     sodipodi:rx="3.2178218"
     sodipodi:ry="2.9702971"
     d="m 265.84157,150 a 3.2178218,2.9702971 0 1 1 -6.43564,0 3.2178218,2.9702971 0 1 1 6.43564,0 z"
     transform="matrix(0.48313456,0,0,0.52339576,134.36648,72.617771)" />
  <path
     sodipodi:type="arc"
     style="color:#000000;fill:none;stroke:#000000;stroke-width:1.76785628;stroke-miterlimit:4;stroke-dasharray:none;marker:none;visibility:visible;display:inline;overflow:visible;enable-background:accumulate"
     id="path3624-1"
     sodipodi:cx="262.62375"
     sodipodi:cy="150"
     sodipodi:rx="3.2178218"
     sodipodi:ry="2.9702971"
     d="m 265.84157,150 a 3.2178218,2.9702971 0 1 1 -6.43564,0 3.2178218,2.9702971 0 1 1 6.43564,0 z"
     transform="matrix(0.81519825,0,0,0.88313148,49.991521,3.3306969)"
     inkscape:transform-center-x="-3.2771248"
     inkscape:transform-center-y="-3.2771247" />
  <path
     sodipodi:type="arc"
     style="color:#000000;fill:none;stroke:#000000;stroke-width:1.76785628;stroke-miterlimit:4;stroke-dasharray:none;marker:none;visibility:visible;display:inline;overflow:visible;enable-background:accumulate"
     id="path3624-1-7"
     sodipodi:cx="262.62375"
     sodipodi:cy="150"
     sodipodi:rx="3.2178218"
     sodipodi:ry="2.9702971"
     d="m 265.84157,150 a 3.2178218,2.9702971 0 1 1 -6.43564,0 3.2178218,2.9702971 0 1 1 6.43564,0 z"
     transform="matrix(0.81519825,0,0,0.88313148,44.070545,-0.89438621)"
     inkscape:transform-center-x="-3.2771248"
     inkscape:transform-center-y="-3.2771247" />
  <path
     sodipodi:type="arc"
     style="color:#000000;fill:none;stroke:#000000;stroke-width:1.20972679;stroke-miterlimit:4;stroke-dasharray:none;marker:none;visibility:visible;display:inline;overflow:visible;enable-background:accumulate"
     id="path3624-1-0"
     sodipodi:cx="262.62375"
     sodipodi:cy="150"
     sodipodi:rx="3.2178218"
     sodipodi:ry="2.9702971"
     d="m 265.84157,150 a 3.2178218,2.9702971 0 1 1 -6.43564,0 3.2178218,2.9702971 0 1 1 6.43564,0 z"
     transform="matrix(1.1913048,0,0,-1.2905803,-50.50298,310.89066)"
     inkscape:transform-center-x="-4.789083"
     inkscape:transform-center-y="4.7890814" />
  <path
     sodipodi:type="arc"
     style="color:#000000;fill:none;stroke:#000000;stroke-width:1.76785628;stroke-miterlimit:4;stroke-dasharray:none;marker:none;visibility:visible;display:inline;overflow:visible;enable-background:accumulate"
     id="path3624-1-4"
     sodipodi:cx="262.62375"
     sodipodi:cy="150"
     sodipodi:rx="3.2178218"
     sodipodi:ry="2.9702971"
     d="m 265.84157,150 a 3.2178218,2.9702971 0 1 1 -6.43564,0 3.2178218,2.9702971 0 1 1 6.43564,0 z"
     transform="matrix(0.81519825,0,0,0.88313148,47.678034,-26.146812)"
     inkscape:transform-center-x="-3.2771248"
     inkscape:transform-center-y="-3.2771247" />
  <path
     sodipodi:type="arc"
     style="color:#000000;fill:none;stroke:#000000;stroke-width:1.24547296;stroke-miterlimit:4;stroke-dasharray:none;marker:none;visibility:visible;display:inline;overflow:visible;enable-background:accumulate"
     id="path3624-1-8"
     sodipodi:cx="262.62375"
     sodipodi:cy="150"
     sodipodi:rx="3.2178218"
     sodipodi:ry="2.9702971"
     d="m 265.84157,150 a 3.2178218,2.9702971 0 1 1 -6.43564,0 3.2178218,2.9702971 0 1 1 6.43564,0 z"
     transform="matrix(1.1571133,0,0,1.2535395,-38.031435,-93.910408)"
     inkscape:transform-center-x="-4.651634"
     inkscape:transform-center-y="-4.6516307" />
  <path
     sodipodi:type="arc"
     style="color:#000000;fill:none;stroke:#000000;stroke-width:0.88101132;stroke-miterlimit:4;stroke-dasharray:none;marker:none;visibility:visible;display:inline;overflow:visible;enable-background:accumulate"
     id="path3624-1-45"
     sodipodi:cx="262.62375"
     sodipodi:cy="150"
     sodipodi:rx="3.2178218"
     sodipodi:ry="2.9702971"
     d="m 265.84157,150 a 3.2178218,2.9702971 0 1 1 -6.43564,0 3.2178218,2.9702971 0 1 1 6.43564,0 z"
     transform="matrix(1.6357944,0,0,1.7721106,-174.52896,-173.5378)"
     inkscape:transform-center-x="-6.5759524"
     inkscape:transform-center-y="-6.5759581" />
  <path
     sodipodi:type="arc"
     style="color:#000000;fill:none;stroke:#000000;stroke-width:1.76785628;stroke-miterlimit:4;stroke-dasharray:none;marker:none;visibility:visible;display:inline;overflow:visible;enable-background:accumulate"
     id="path3624-1-1"
     sodipodi:cx="262.62375"
     sodipodi:cy="150"
     sodipodi:rx="3.2178218"
     sodipodi:ry="2.9702971"
     d="m 265.84157,150 a 3.2178218,2.9702971 0 1 1 -6.43564,0 3.2178218,2.9702971 0 1 1 6.43564,0 z"
     transform="matrix(0.81519825,0,0,0.88313148,49.25631,-55.683132)"
     inkscape:transform-center-x="-3.2771248"
     inkscape:transform-center-y="-3.2771247" />
  <path
     sodipodi:type="arc"
     style="color:#000000;fill:none;stroke:#000000;stroke-width:1.28339599;stroke-miterlimit:4;stroke-dasharray:none;marker:none;visibility:visible;display:inline;overflow:visible;enable-background:accumulate"
     id="path3624-1-11"
     sodipodi:cx="262.62375"
     sodipodi:cy="150"
     sodipodi:rx="3.2178218"
     sodipodi:ry="2.9702971"
     d="m 265.84157,150 a 3.2178218,2.9702971 0 1 1 -6.43564,0 3.2178218,2.9702971 0 1 1 6.43564,0 z"
     transform="matrix(1.1229218,0,0,1.2164987,-36.833295,-112.81486)"
     inkscape:transform-center-x="-4.514184"
     inkscape:transform-center-y="-4.5141776" />
  <path
     sodipodi:type="arc"
     style="color:#000000;fill:none;stroke:#000000;stroke-width:0.96139163;stroke-miterlimit:4;stroke-dasharray:none;marker:none;visibility:visible;display:inline;overflow:visible;enable-background:accumulate"
     id="path3624-1-76"
     sodipodi:cx="262.62375"
     sodipodi:cy="150"
     sodipodi:rx="3.2178218"
     sodipodi:ry="2.9702971"
     d="m 265.84157,150 a 3.2178218,2.9702971 0 1 1 -6.43564,0 3.2178218,2.9702971 0 1 1 6.43564,0 z"
     transform="matrix(1.4990284,0,0,1.6239475,-132.9851,-189.85751)"
     inkscape:transform-center-x="-6.0261563"
     inkscape:transform-center-y="-6.0261367" />
</svg>
