<?xml version="1.0" encoding="utf-8"?>
<!-- Generator: Adobe Illustrator 13.0.0, SVG Export Plug-In . SVG Version: 6.00 Build 14948)  -->
<!DOCTYPE svg PUBLIC "-//W3C//DTD SVG 1.1//EN" "http://www.w3.org/Graphics/SVG/1.1/DTD/svg11.dtd" [
	<!ENTITY ns_flows "http://ns.adobe.com/Flows/1.0/">
	<!ENTITY ns_extend "http://ns.adobe.com/Extensibility/1.0/">
	<!ENTITY ns_ai "http://ns.adobe.com/AdobeIllustrator/10.0/">
	<!ENTITY ns_graphs "http://ns.adobe.com/Graphs/1.0/">
	<!ENTITY ns_vars "http://ns.adobe.com/Variables/1.0/">
	<!ENTITY ns_imrep "http://ns.adobe.com/ImageReplacement/1.0/">
	<!ENTITY ns_sfw "http://ns.adobe.com/SaveForWeb/1.0/">
	<!ENTITY ns_custom "http://ns.adobe.com/GenericCustomNamespace/1.0/">
	<!ENTITY ns_adobe_xpath "http://ns.adobe.com/XPath/1.0/">
]>
<svg version="1.1"
	 xmlns:x="&ns_extend;" xmlns:i="&ns_ai;" xmlns:graph="&ns_graphs;" i:viewOrigin="156.5 545.5" i:rulerOrigin="0 0" i:pageBounds="0 792 612 0"
	 xmlns="http://www.w3.org/2000/svg" xmlns:xlink="http://www.w3.org/1999/xlink" xmlns:a="http://ns.adobe.com/AdobeSVGViewerExtensions/3.0/"
	 x="0px" y="0px" width="300px" height="300px" viewBox="0 0 300 300" enable-background="new 0 0 300 300" xml:space="preserve">
<metadata><?xpacket begin="﻿" id="W5M0MpCehiHzreSzNTczkc9d"?>
<x:xmpmeta xmlns:x="adobe:ns:meta/" x:xmptk="Adobe XMP Core 4.1-c036 46.277092, Fri Feb 23 2007 14:17:08        ">
   <rdf:RDF xmlns:rdf="http://www.w3.org/1999/02/22-rdf-syntax-ns#">
      <rdf:Description rdf:about=""
            xmlns:xap="http://ns.adobe.com/xap/1.0/"
            xmlns:xapGImg="http://ns.adobe.com/xap/1.0/g/img/">
         <xap:Thumbnails>
            <rdf:Alt>
               <rdf:li rdf:parseType="Resource">
                  <xapGImg:width>256</xapGImg:width>
                  <xapGImg:height>156</xapGImg:height>
                  <xapGImg:format>JPEG</xapGImg:format>
                  <xapGImg:image>/9j/4AAQSkZJRgABAgEASABIAAD/7QAsUGhvdG9zaG9wIDMuMAA4QklNA+0AAAAAABAASAAAAAEA&#xA;AQBIAAAAAQAB/+4ADkFkb2JlAGTAAAAAAf/bAIQABgQEBAUEBgUFBgkGBQYJCwgGBggLDAoKCwoK&#xA;DBAMDAwMDAwQDA4PEA8ODBMTFBQTExwbGxscHx8fHx8fHx8fHwEHBwcNDA0YEBAYGhURFRofHx8f&#xA;Hx8fHx8fHx8fHx8fHx8fHx8fHx8fHx8fHx8fHx8fHx8fHx8fHx8fHx8fHx8f/8AAEQgAnAEAAwER&#xA;AAIRAQMRAf/EAaIAAAAHAQEBAQEAAAAAAAAAAAQFAwIGAQAHCAkKCwEAAgIDAQEBAQEAAAAAAAAA&#xA;AQACAwQFBgcICQoLEAACAQMDAgQCBgcDBAIGAnMBAgMRBAAFIRIxQVEGE2EicYEUMpGhBxWxQiPB&#xA;UtHhMxZi8CRygvElQzRTkqKyY3PCNUQnk6OzNhdUZHTD0uIIJoMJChgZhJRFRqS0VtNVKBry4/PE&#xA;1OT0ZXWFlaW1xdXl9WZ2hpamtsbW5vY3R1dnd4eXp7fH1+f3OEhYaHiImKi4yNjo+Ck5SVlpeYmZ&#xA;qbnJ2en5KjpKWmp6ipqqusra6voRAAICAQIDBQUEBQYECAMDbQEAAhEDBCESMUEFURNhIgZxgZEy&#xA;obHwFMHR4SNCFVJicvEzJDRDghaSUyWiY7LCB3PSNeJEgxdUkwgJChgZJjZFGidkdFU38qOzwygp&#xA;0+PzhJSktMTU5PRldYWVpbXF1eX1RlZmdoaWprbG1ub2R1dnd4eXp7fH1+f3OEhYaHiImKi4yNjo&#xA;+DlJWWl5iZmpucnZ6fkqOkpaanqKmqq6ytrq+v/aAAwDAQACEQMRAD8A9U4qxjzv+XHlbzlarHq0&#xA;Dx3kQpa6paOYL2Dev7qdfiAr+yar7Yq8B84yf85L/lEz31lrUnnDynGwdrm9i+tSRqD9m6BP1lBQ&#xA;buknH3B2xVvyt/zm5aNwi81eXXiNf3l3pkgcUp2gm4nr/wAW4q9d8r/85EflB5jEaW3mGCyuZNvq&#xA;uo1tHB/l5ShYiT24ufvxV6Hb3FvcwJPbypNBIOUcsbB0YeIYVBxVUxV2KuxV2KuxV2KuxV2KvOvz&#xA;e/PHyp+WllGL4Nf61cqXs9IgYK7KDT1JXIb0o67cqEnsDQ0VfLWv/wDOXP5w6jdtLp15baLb1+C3&#xA;traGag/ynulnJPypiqnov/OW35z2F0kt7qFtq8INXt7q0gjUjw5WywMPvxV9Lfk5/wA5EeVfzFK6&#xA;a6HSfMoQsdMlbmswUFna3kovPiBUqQGA8QCcVesYq7FXYq7FXYq7FXYq7FXYq7FXYq7FXYq7FXYq&#xA;7FXEAggioOxB6UxV4d+af/OKfkrzYZtS8vlfLuuPVm9FK2Uzbn95AKcCT+1HTxKscVfJn5gflN57&#xA;8h3XpeYdNeK2ZuMGoxfvbWXw4yrsCf5Wo3tiqUeXvOXmzy3N62g6xeaY52b6rM8asCa0ZVPFhUdC&#xA;MVet+Vv+cwfzT0kLFqy2mvW6gAm4j9Geg8JIOC18SyHFXsnlP/nMn8t9UKRa7a3egTsaGRl+t2wF&#xA;P9+Qj1ev/FX9ir2Ty55w8q+ZrX6z5f1a11OGlWNtKsjLX+dAeSH2YDFU4xV2KuxV2KpH55812flL&#xA;yhq3mS8XnDplu8wirT1JPsxx1oac5Cq198Vfm35n8y6x5m16913WLhrnUb6QyzSHoK9FUfsqo2UD&#xA;oMVSvFXYqitM1K/0vUbbUdPne2vrSRZra4jJV0kQ1VgR4HFX6N/lN56j88+QNJ8x0Vbm5i9O+iTo&#xA;lzETHKKdgWXko/lIxVl+KuxV2KuxV2KuxV2KuxV2KuxV2KuxV2KuxV2KuxV2KqF9YWOoWktlf28V&#xA;3Zzrwntp0WSJ18HRwVYfMYq+bvzU/wCcPNMvhLqf5fzCwu/tPotyxNu+3+6ZW5NGSf2WqvuoxV8r&#xA;+Y/LHmDy1qkmla9YTadfxfagnUqSOzKfsup7MpIOKpXiqvZX17Y3Md1ZXElrdRHlFPC7RyKfFWUg&#xA;jFXrnkz/AJyr/Njy6UhvbyPzBZLsYdSUtKB/k3CFJa/65b5Yq+gvI3/OXH5aeYWS21n1fLV821Lv&#xA;97ak12AuEAp85EUe+KvabO9s761ju7KeO6tZhyhuIXWSN18VdSQR8sVVsVeLf85eT3Mf5NXSQswj&#xA;mvrRLgKTQxhy4DU7c0U/PFXwpirsVdirsVfZ3/OFFxfP+XmswyCtnDqrfVn/AMtreIyLX2+E/Tir&#xA;6GxV2KuxV2KuxV2KuxV2KuxV2KuxV2KuxV2KuxV2KuxV2KuxVIPOfkPyn500o6Z5j06O+txy9F2H&#xA;GWJmFC0Ui0dG2HQ798VfJX5rf84k+aPLvran5Pd9e0dasbOg+vwrXpwUUnAHdKN/k98VeAyRyRSN&#xA;HIpSRCVdGBDBgaEEHoRiq3FXYq9D/J785vMn5c67FNbzSXOgzOBqekMxMckZNGeMHZJVG6sPkajF&#xA;X6E6bqNnqenWuo2Ugls72GO4tpRsGilUOjb+KsDirG/zW8mHzn+Xut+W0IW4vretozdBcQsJoak9&#xA;AZI1B9sVfm7d2lzZ3c1pdRNBdW7tFPC4oyOh4srDsQRiqjirsVbVWZgqgszGiqNyScVfof8AkD5D&#xA;uPJX5X6VpV5GYtTuOV9qUbbFJ7ih4EdjHGEQ+4xV6JirsVdirsVdirsVdirsVdirsVdirsVdirsV&#xA;dirsVdirsVdirsVdirzj8z/yE8g/mBHJPfWv1DWyPg1izASYkDb1V+zKP9YV8GGKvkT8z/8AnHb8&#xA;wfIZlvJLb9LaCm41WyUsqLX/AHfH9uL5mq/5WKvLcVXwwyzSpDCjSTSMEjjQFmZmNAqgbkk4q/SH&#xA;8n/L+qeXvyx8uaNqo4ahaWaC5jqSY2cl/TNe6cuJ+WKswxV4R+fP/ONFn54nk8xeWni0/wAzcSbq&#xA;F/hgvSo2LEfYloKcqUP7Xjir5O8y/lR+Y/lq4aHWPLt9bhWKidYWlgYj+WaLnG30NiqjoP5Z/mFr&#xA;8/o6P5d1C7aoDSLbyLEpNac5XCxpWn7TDFX1F+Rf/OLK+WdQt/M3nRobvWLciSw0uI+pDbyDdZZH&#xA;6PIp+yB8KnepNKKvozFXYq7FXYq7FXYq7FXYq7FXYq7FXYq7FXYq7FXYq7FXYq7FXYq7FXYq7FXY&#xA;qwPWvyH/ACg1m7e7v/K1mbiQ8pHgD23I+JFu0QJPfxxVG+Wfyg/LPyxerfaH5dtLS9QAR3XEyypT&#xA;aqPKXZT4kHfFWX4q7FXYq7FVK6urW0t3uLqZLe3jFZJpWCIo8WZiAMVQ+na7omplxpuoW18Y93Ft&#xA;NHLx+fAtTFUbirsVdirsVdirsVdirsVdirsVdirsVdirsVdirsVdirsVdirsVdirsVdirsVdirsV&#xA;dirsVdirsVfC3/OV3nnV9a/M++0JriQaNoXpQW1nUrGZWiWSWUp0LFnKhv5QMVePabqeo6XfQ3+m&#xA;3Utne27B4LmB2jkRgagqykEYq+xPyE/5yes/M3oeW/Ok0dn5hNEs9SIEcF4eyvT4Y5j9Ct2oaAqv&#xA;obFXYq7FXYq7FXYq7FXYq7FXYq7FXYq7FXYq7FXYq7FXYq7FXYq7FXYq7FXYq7FXYq7FXYq7FXxx&#xA;/wA5ifltqNj5rTz1axtLperJFBfyKK+jdQoIk506LJEi8T4g+2KvnLFWwSDUdcVfVP8Azjx/zk4a&#xA;23lDz5d1qVh0rXZSKDbisN05+5ZT/svHFX1VirsVdirsVdirsVdirsVdirsVdirsVdirsVdirsVd&#xA;irsVdirsVdirsVdirsVdirsVdirsVQ2pabp+p2E+n6jbx3djcoY7i2mUPG6HqGU7Yq+Ufzf/AOcQ&#xA;720a41n8vSbq0+KSXQZW/foBufq0h/vB4I3xeBY4q+aLu0urO5ltbuF7e5gYpNBKpR0dTQqytQgj&#xA;FVHFX0v/AM47f85LtpPoeUfPF2X0qgj0vWJSWNtQUWGdtyYuyt+x0Pw/ZVfXiOkiK6MHRwGVlNQQ&#xA;dwQRireKuxV2KuxV2KuxV2KuxV2KuxV2KuxV2KuxV2KuxV2KuxV2KuxV2KuxV2KrJ54LeF555Fhh&#xA;jBaSWQhVVR1LMdgMVeZebP8AnJX8n/LbPDJrQ1S7Q8WttLU3R6b/AL0FYNun95X8cVeV65/znBaL&#xA;zTQfK0km/wC7nvrkJt/lRRI//JzFWNn/AJza8+eqCug6WIu6n6wW/wCC9QD8MVZr5J/5zS8v391B&#xA;Z+bNHfSPUPF9StZDcQKSdmeIqsiKB14lzir078x/yZ/L78z9NjvLuNY7+WFXsNfsuPqlGWsZZh8M&#xA;0dCCA3b7JHXFXx9+aP8Azj55+8gPJdT2/wClNBBPDV7NSyKv/F8e7wnf9r4fBjirzHFX0J/zj3/z&#xA;kpceVmt/K3m+d5/LW0djfkF5LLfZWpVng9uq9ttsVfZtvcW9zbxXFvKk1vMiyQzRsHR0cVVlYVBB&#xA;BqCMVX4q7FXYq7FXYq7FXYq7FXYq7FXYq7FXYq7FXYq7FXYq7FXYq7FVskkcUbSysEjQFndiAqqB&#xA;Ukk9AMVfPv5qf85deWtAebS/JsSa9qqVVr9iRYxMKdCtGn7/AGSF/wAo9MVfLXnb80vPnna5MvmL&#xA;V5rqKtY7NT6VsnQfBAnGMdOtKnucVYpirsVdirsVfdf/ADiLr13qv5PwwXMhlOkX1xYQk7kRhUnV&#xA;Sf8AJ9eg9qDFXtJAIIIqDsQelMVeKfmZ/wA4q+QPNazXuioPLmtPVhLaoDayN/xZbgqor4x8fE1x&#xA;V8ofmN+S3n/yBOx1vTzJpvLjDq9rWW0eteNXABjY0+zIFOKsv/Ij/nIrVfIE0ei6z6moeUpH/uh8&#xA;U1oXIrJDXqndo/pFD1Vfbuia5pGu6VbatpF3He6ddoJLe5hPJWU/iCOhB3B2O+Ko7FXYq7FXYq7F&#xA;XYq7FXYq7FXYq7FXYq7FXYq7FXYqxD81PzJ0f8vfKNzr2o/vJa+jp9mDRri5YEpGPAChZj2UHvQY&#xA;q+C/O/5tefvOeqvqGsatPxLlrexgkeK2gFRQRRKaCnEfEfiNNyTir0D8iv8AnInzf5c8x6douv6h&#xA;Lqvlm8lS1kS7cyyWvqMEWWKRqvxQndCSOPQA4qzX/nMT81NQjvYPy/0qd4LYRLda40ZKmUybw27E&#xA;U+AL8bDoar4Yq+WcVdirsVdirsVdir7V/wCcKv8AyVmqf9ty4/6hLXFXv+KuxVTuLe3uYJLe4iSa&#xA;CVSksMih0ZTsVZTUEHFXzL/zkX+Q35VaJ5bufN1o03l6cSpF9Ws4xNbSyykgD0GeP0/EmNqAD7Bx&#xA;V5F+Rn546h+WetyWlwzaj5TvZB9fto68kbp9Ytw/GjgfaU05jY7gEKvtvy5+YPkjzLDBJoeuWV81&#xA;wodIIp4zMARWjQ19RWHcMtcVZBirsVY/5s/MDyV5RgE3mTWbbTQw5JFK9ZnXcVSFeUj9P2VOKvHf&#xA;MX/OZ35f2chh0HTL/W5uRVXIW0hbsCrPzl394xiqUR/nx/zkX5jE3+F/y7FrAwPpz3cNy/ENXiVl&#xA;ka1idgP8n6MVal/PL/nJHyvBHdebfIMdzpse9xcW8U0b8RuxeWKS5ij2HUoBir1z8qPzp8o/mVYy&#xA;yaSz2up2oDXulXHETRg7c0oaSR8tuQ+kCoxVn2KuxV2KuxV2KuxV2KuxV8Jf85T/AJjt5s/MWXSr&#xA;SQto/lsvZQAH4Xua/wCkydSPtrwHsvvirxjFV0ZkEimOvqAjhx61rtTFXq//ADlRFOn55+YWkVgk&#xA;qWTQk9CgsYVJX25qw+eKvJsVdiqceWPJ/mfzTqA0/wAvaZPqd31ZIELBB05O5oqL7sQMVfRn5e/8&#xA;4XXMhivfPepiFPtHSdOIZ+nSS5YcVoeoRW9mxV89/mDpVjpHn7zLpOnx+lYafqt7a2kVS3CGC5eO&#xA;NeTEsaKoFScVY/ir7p/5xC0+S1/Ju3nZSq39/d3EZP7SqywVH0wkYq9rxV2KuxVj/nnyH5Z88aGd&#xA;E8x2zXNh6izoqSyQssqKyq4aNlrQOdmqPbFXjes/84Wfl1crXS9V1LTpa9HaG4jp/qlI3/4fFWEa&#xA;v/zhD5kikJ0TzPZ3KjdfrkEtqQfCsRufv/DFUoX8mP8AnKjymsn6DvbuS3j6rpuqUjYJ0IhlkiLe&#xA;w4V9sVS7XfzT/wCcqPLWjSwa7JqlhYsPTOoXNhGpUuei3fo/aNaD46jtir0T8nf+ccfI/m/y7Y+d&#xA;/NWr3Xma71iP1p4fVeKNJSaSRyyKxneSN1Kk81+WKvoPy95G8m+XI+Gg6JZab4vbwRo5PSrOByY/&#xA;M4qnmKu64q+VPzy0GL8qPzY8tfmR5bhWz0/Ubgpq9pDSOIupHrrxGwFxCzdBsylupxV9V4q7FXYq&#xA;7FXYq7FXYqwv84vPSeSPy61jXlYLexxehpqk/aup/gioKGvAnmR4KcVfnDJI8jtI7FnclmY7kk7k&#xA;nFVuKsu/KXytL5p/Mjy9oiqWjuLyN7niKkW8J9WY/wDItGxV9yfmz+SPlD8yraE6r6lnqtopS01S&#xA;24+qqE19NwwIkSu9D07EVOKvIF/5wb06o5eb5ivcCxUGn/I84qyfy3/zht+WOmyJNq9zfa3IpqYZ&#xA;ZFt4CPdIQsn/ACUxV7XoXl/Q9A02PTNEsYNOsIvsW9sixpWgHIhR8TGm7Hc98VR+KvzB823L3Xmr&#xA;WbmQkvPfXMjljyNXmZjUnr1xVKcVfo1+Rmivo35ReVLGQBZDYR3LqK7G7JuSDXuPV398VZ1irsVd&#xA;irsVdirsVdiqC1vRdL1zSbvSNVt0utOvo2hubeQVVkYfgR1BG4O4xV8tQ3XnP/nG3zZNBNBNrX5Y&#xA;6tPyhdac4mbpQmircKi0KmiyAV2/ZVfS/lDzp5Z836PHq/l6/jvrOQDkUNHjYivCVD8SMPBhiqd4&#xA;q7FXzR/zmVdNqUvkzyjaAyX+o3kkqxruRy4W8Xw9TyaVqfLFX0virsVdirsVdirsVdir48/5zM/M&#xA;Iaj5isPJVlNytdHAu9SVTsbuZf3asK0rFCa/7M4q+bsVdir6y/5wx/Lgw21/59voqNcBrDR+Q/3W&#xA;rA3Ey1HdlEYI8GHfFX1FirsVdirsVdir8tdUkeTU7yRzV3nkZj0qS5J6YqreXtHuNb1/TdHtgWuN&#xA;SuobSIDrymkCDr/rYq/T+0tLeztIbS2T07e3jWKGMVIVEAVRvU7AYqq4q7FXYq7FXYq7FXYq+Y/+&#xA;cxvzK8x6O+leUdIupbG3v7drzUp4WKSSpzMccPNSGC1Riw77Yq+a7O+1/wAn31s7SRTW2oW8N1c6&#xA;f60dzbXVrNRxFdRxsy7gbq1HQ7ihocVfRmqf84/edfK88Hnb8l9VntxdQpctoM8qiThInP0wz/uZ&#xA;1HLZJen8xOKphov/ADlzqGh3P6I/MzyreaXqcXFZJ7VCpbsXNtcGMqO9VkavYYqn2q/85j/lTa2M&#xA;kthFqGoXYH7q1EAhBP8AlSSNRR7gE+2Ksd/Jjyj5v/Mb8yH/ADf872ptLO2+Hy9YOpVTxBEZjVvi&#xA;9OEMWDEfE55DocVfTGKuxV2KuxV2KuxVi/5l+ftK8h+Tr/zHqBB+rrws7YkBp7lwfSiX5ndqdFBP&#xA;bFX5wazq9/rOrXmrajKZr6/mkuLmU/tSSsWY/ecVQWKsl/LryNqnnjzhp/lzTgQ93IDcT0qsNuu8&#xA;srf6q9PE0HfFX6QeX9C0zQNEsdF0uEQafp8KW9tGKfZQUq1AKs3Vj3O+Ko/FXYq7FXYq1JJHHG0k&#xA;jBI0BZ3Y0AA3JJPQDFX5WszMxZiWZjVmO5JOKvZf+cTvKX6d/Nq1vpYw9poMMl/LyrT1aelANu4k&#xA;k5j/AFcVfd2KuxV2KuxV2KuxV2KuxV5T+fX5GW35m6Xay2lylh5h03kLK5lBMMkchBaKbiCwFRVW&#xA;ANN9jXFXjHkf/nDDzKdegm8439mmiwOHmtrGSSWacKa+nyZIhGrd2rXwHfFX14iJGixxqERAFRFF&#xA;AANgABiqF1LSNK1S3+ranZQX1vWvo3MSTJWlPsuGGKpRa/lx+XlpcfWbTyvpFvchuQmisLZH5da8&#xA;ljBrirIsVdirsVdirsVdirxz8zv+coPy/wDJwlstOlHmHXEFBa2bqbeNvCa5HJR7qnI9jTFXx9+Z&#xA;P5q+b/zD1cX+v3I9GKostPhBS3gUnoiVNSe7MSx8aUxVh+Kqlvb3FzcRW1vG01xO6xwwxgs7u54q&#xA;qqNySTQDFX3p/wA46/kxH+Xvlk3epIreaNWVX1B9j6EfVLZW/wAnq57t7AYq9cxV2KuxV2KuxVKv&#xA;NsqxeVdZlavGOxuWanWghY4q/MDFX21/zh75IfRfy8n8wXKcbvzHP6kdaV+q23KOL3+JzI3yIxV7&#xA;1irsVdirsVdirsVdirsVdirsVdirsVdirsVdirsVS/XPMOg6DZNfa1qNvptotaz3UqRKab0Bcip9&#xA;hvirw7z1/wA5j+RdJEtt5WtZvMF4AQlywNtZhqdeTj1X4nqAgB7N3xV84fmD+ff5l+ePUg1PUzaa&#xA;W5P+4qxBgt6Hs9CXl/56McVed4q7FVeysry+u4bOygkubu4cRwW8Sl5HdjQKqrUknFX2Z/zjt/zj&#xA;jH5SSHzT5sgSXzO45WVk1HSxU/tEiqtOfEfZ7b74q+gcVdirsVdirsVdirHvzFmMH5feZ5gwUxaT&#xA;fOGPQcbZzU1xV+dfkLyhf+cfN+l+W7EH1tQnWN5AK+nEPillOx2SMFsVfpXpOl2Wk6XaaXYxiKys&#xA;YY7e2iH7McShEH3DFUVirsVdirsVdirsVdirsVdirsVdirsVdirsVeW+df8AnInyR5c9SCygvvMF&#xA;8lQIdNt3eEMDT4rhgsRHuhbFXg3nD/nJ386tdd7by9o0nl+2k5KvoW0lzdFW2oZZU4ggdCkanFXk&#xA;175Z/NvzTfS3l5pGva3ejeWeS2vLqQA9Kkq5A22xVVg/JT83JvseUNVG1fjtZY+v+uFxVObD/nGn&#xA;87r2pj8sSxKpAZp7i1gpXvSSVWI+QxVObX/nEf8AOeanqWNnbV6+rdxGm/8AxX6mKs68tf8AOEWp&#xA;tIr+Z/McMMYpyg0yN5WYd6TTiLj/AMizir378vvyc/L7yFHXy/pirfMOMup3B9a7cGtR6jfYB7qg&#xA;UHwxVmuKuxV2KuxV2KuxV2KsJ/O29ay/KLzdKoUl9LuYKN0/0hDCfp/ebe+KvN/+cVvyYn8p6NJ5&#xA;s163MWv6vGEtLeQUe2szRqMD9mSUgFh2AA61GKvfsVdirsVdirsVdirsVdirsVdirsVdirsVdirs&#xA;VdirsVdirsVdirsVdirsVdirsVdirsVdirsVdiqH1D9H/VW/SHo/VKpz+scfT5cxwrz+GvOlPfFU&#xA;RirsVdirsVdirsVdirsVdirsVdirsVdirsVdirsVf//Z</xapGImg:image>
               </rdf:li>
            </rdf:Alt>
         </xap:Thumbnails>
         <xap:CreatorTool>Adobe Illustrator CS3</xap:CreatorTool>
         <xap:ModifyDate>2008-01-04T13:14:23-08:00</xap:ModifyDate>
         <xap:MetadataDate>2008-01-04T13:14:23-08:00</xap:MetadataDate>
      </rdf:Description>
      <rdf:Description rdf:about=""
            xmlns:xapTPg="http://ns.adobe.com/xap/1.0/t/pg/"
            xmlns:stDim="http://ns.adobe.com/xap/1.0/sType/Dimensions#"
            xmlns:xapG="http://ns.adobe.com/xap/1.0/g/">
         <xapTPg:MaxPageSize rdf:parseType="Resource">
            <stDim:w>612.000000</stDim:w>
            <stDim:h>792.000000</stDim:h>
            <stDim:unit>Points</stDim:unit>
         </xapTPg:MaxPageSize>
         <xapTPg:NPages>1</xapTPg:NPages>
         <xapTPg:HasVisibleTransparency>False</xapTPg:HasVisibleTransparency>
         <xapTPg:HasVisibleOverprint>False</xapTPg:HasVisibleOverprint>
         <xapTPg:PlateNames>
            <rdf:Seq>
               <rdf:li>Cyan</rdf:li>
               <rdf:li>Magenta</rdf:li>
               <rdf:li>Yellow</rdf:li>
               <rdf:li>Black</rdf:li>
            </rdf:Seq>
         </xapTPg:PlateNames>
         <xapTPg:SwatchGroups>
            <rdf:Seq>
               <rdf:li rdf:parseType="Resource">
                  <xapG:groupName>Default Swatch Group</xapG:groupName>
                  <xapG:groupType>0</xapG:groupType>
               </rdf:li>
            </rdf:Seq>
         </xapTPg:SwatchGroups>
      </rdf:Description>
      <rdf:Description rdf:about=""
            xmlns:dc="http://purl.org/dc/elements/1.1/">
         <dc:format>image/svg+xml</dc:format>
      </rdf:Description>
      <rdf:Description rdf:about=""
            xmlns:xapMM="http://ns.adobe.com/xap/1.0/mm/">
         <xapMM:InstanceID>uuid:0D10B316AEBADC11828F907C0EB444D3</xapMM:InstanceID>
      </rdf:Description>
   </rdf:RDF>
</x:xmpmeta>
                                                                                                    
                                                                                                    
                                                                                                    
                                                                                                    
                                                                                                    
                                                                                                    
                                                                                                    
                                                                                                    
                                                                                                    
                                                                                                    
                                                                                                    
                                                                                                    
                                                                                                    
                                                                                                    
                                                                                                    
                                                                                                    
                                                                                                    
                                                                                                    
                                                                                                    
                                                                                                    
                           
<?xpacket end="w"?>
	</metadata>
<g id="Layer_1" i:layer="yes" i:dimmedPercent="50" i:rgbTrio="#4F008000FFFF">
	<g>
		<g id="surface0" i:knockout="Off">
			<path fill="none" stroke="#000000" stroke-width="0.1" stroke-miterlimit="10" d="M15.338,62.52
				c2.934,0.439,5.825,1.138,8.646,2.055c27.21,7.782,55.021,13.99,81.076,25.289c4.725,1.9,8.41,6.173,9.515,11.137
				c0.944,4.639-3.089,8.78-7.526,9.216c-3.777,0.271-7.802,0.633-11.333-1.034c-18.147-9.46-35.379-20.537-53.254-30.479
				C32.977,74.083,24.292,68.053,15.338,62.52z"/>
			<path d="M15.338,62.52c2.934,0.439,5.825,1.138,8.646,2.055c27.21,7.782,55.021,13.99,81.076,25.289
				c4.725,1.9,8.41,6.173,9.515,11.137c0.944,4.639-3.089,8.78-7.526,9.216c-3.777,0.271-7.802,0.633-11.333-1.034
				c-18.147-9.46-35.379-20.537-53.254-30.479C32.977,74.083,24.292,68.053,15.338,62.52z"/>
			<path fill="none" stroke="#000000" stroke-width="0.1" stroke-miterlimit="10" d="M147.667,64.953
				c5.62-0.766,11.438,1.053,15.955,4.404c5.181,3.9,7.921,10.295,8.524,16.625c-0.292,6.198-2.81,12.498-7.566,16.618
				c-5.786,4.997-14.323,6.783-21.515,3.987c-9.506-3.207-15.771-13.864-13.977-23.726C130.639,73.69,138.406,66.107,147.667,64.953
				z"/>
			<path d="M147.667,64.953c5.62-0.766,11.438,1.053,15.955,4.404c5.181,3.9,7.921,10.295,8.524,16.625
				c-0.292,6.198-2.81,12.498-7.566,16.618c-5.786,4.997-14.323,6.783-21.515,3.987c-9.506-3.207-15.771-13.864-13.977-23.726
				C130.639,73.69,138.406,66.107,147.667,64.953z"/>
			<path fill="none" stroke="#000000" stroke-width="0.1" stroke-miterlimit="10" d="M154.497,119.427
				c2.606-2.212,6.336-2.371,9.537-1.632c4.358,1.058,7.169,4.832,10.659,7.353c13.609,12.094,26.258,25.224,40.168,36.996
				c3.775,3.112,6.716,7.174,10.654,10.072c7.778,1.641,15.672,2.94,23.537,4.101c9.168-5.257,19.61-7.317,29.94-8.877
				c5.513,0.19,11.857,1.33,15.353,6.058c5.695,7.258,3.859,18.32-2.102,24.846c-4.666,4.822-12.197,4.014-18.066,2.285
				c-9.898-3.813-19.047-10.195-25.081-19.025c-12.508-2.155-25.04-4.164-37.55-6.301c0.301-1.734,0.611-3.464,0.922-5.192
				c2.588,0.411,5.17,0.924,7.655,1.78c-10.704-4.738-20.882-10.573-31.28-15.93c-8.609-4.434-16.738-9.709-24.898-14.903
				c-4.139-2.629-8.556-5.555-10.592-10.211C151.82,127.206,151.617,122.47,154.497,119.427z"/>
			<path d="M154.497,119.427c2.606-2.212,6.336-2.371,9.537-1.632c4.358,1.058,7.169,4.832,10.659,7.353
				c13.609,12.094,26.258,25.224,40.168,36.996c3.775,3.112,6.716,7.174,10.654,10.072c7.778,1.641,15.672,2.94,23.537,4.101
				c9.168-5.257,19.61-7.317,29.94-8.877c5.513,0.19,11.857,1.33,15.353,6.058c5.695,7.258,3.859,18.32-2.102,24.846
				c-4.666,4.822-12.197,4.014-18.066,2.285c-9.898-3.813-19.047-10.195-25.081-19.025c-12.508-2.155-25.04-4.164-37.55-6.301
				c0.301-1.734,0.611-3.464,0.922-5.192c2.588,0.411,5.17,0.924,7.655,1.78c-10.704-4.738-20.882-10.573-31.28-15.93
				c-8.609-4.434-16.738-9.709-24.898-14.903c-4.139-2.629-8.556-5.555-10.592-10.211
				C151.82,127.206,151.617,122.47,154.497,119.427z"/>
			<path fill="none" stroke="#000000" stroke-width="0.1" stroke-miterlimit="10" d="M112.773,163.863
				c10.751-7.418,23.419-11.88,36.281-13.877c6.313-0.729,13.424-0.876,18.815,3.014c4.917,4.593,3.722,12.024,3.916,18.088
				c-1.328,18.278-5.692,36.46-13.423,53.107c-2.529,5.271-5.31,10.646-9.911,14.43c1.132-16.175,1.711-32.384,2.266-48.59
				c0.205-5.004,0.941-9.993,0.57-15.01c-6.381,3.079-12.937,5.783-19.262,8.977c-5.378,2.252-11.345,3.014-17.142,2.736
				c-4.524,0.062-8.947-4.028-8.736-8.637C105.95,172.662,108.038,166.9,112.773,163.863z"/>
			<path d="M112.773,163.863c10.751-7.418,23.419-11.88,36.281-13.877c6.313-0.729,13.424-0.876,18.815,3.014
				c4.917,4.593,3.722,12.024,3.916,18.088c-1.328,18.278-5.692,36.46-13.423,53.107c-2.529,5.271-5.31,10.646-9.911,14.43
				c1.132-16.175,1.711-32.384,2.266-48.59c0.205-5.004,0.941-9.993,0.57-15.01c-6.381,3.079-12.937,5.783-19.262,8.977
				c-5.378,2.252-11.345,3.014-17.142,2.736c-4.524,0.062-8.947-4.028-8.736-8.637C105.95,172.662,108.038,166.9,112.773,163.863z"
				/>
			<path fill="none" stroke="#000000" stroke-width="0.1" stroke-miterlimit="10" d="M82.226,172.229
				c2.46-3.689,6.066-7.445,10.791-7.619c4.196,0.41,8.866,2.922,9.908,7.316c2.189,8.385-0.548,17.092-4.28,24.616
				c-4.993,10.152-11.294,19.802-19.515,27.646c-5.867,5.909-14.072,9.011-22.139,10.39c-18.153,1.43-36.349,3.063-54.572,2.693
				c17.462-6.693,35.657-11.788,52.074-20.93c3.785-1.979,7.752-4.104,10.205-7.736C72.142,197.289,75.271,183.803,82.226,172.229z"
				/>
			<path d="M82.226,172.229c2.46-3.689,6.066-7.445,10.791-7.619c4.196,0.41,8.866,2.922,9.908,7.316
				c2.189,8.385-0.548,17.092-4.28,24.616c-4.993,10.152-11.294,19.802-19.515,27.646c-5.867,5.909-14.072,9.011-22.139,10.39
				c-18.153,1.43-36.349,3.063-54.572,2.693c17.462-6.693,35.657-11.788,52.074-20.93c3.785-1.979,7.752-4.104,10.205-7.736
				C72.142,197.289,75.271,183.803,82.226,172.229z"/>
			<path fill="none" stroke="#FFFFFF" stroke-width="0.1" stroke-miterlimit="10" d="M252.938,178.945
				c7.715-4.127,16.452-5.48,24.912-7.256c4.418-0.174,9.475,0.389,12.672,3.801c2.191,2.547,3.507,5.963,2.961,9.35
				c-0.234,4.993-2.444,10.892-7.619,12.574c-7.376,1.791-14.381-2.148-20.392-5.958
				C260.557,188.197,255.275,184.598,252.938,178.945z"/>
			<path fill="#FFFFFF" d="M252.938,178.945c7.715-4.127,16.452-5.48,24.912-7.256c4.418-0.174,9.475,0.389,12.672,3.801
				c2.191,2.547,3.507,5.963,2.961,9.35c-0.234,4.993-2.444,10.892-7.619,12.574c-7.376,1.791-14.381-2.148-20.392-5.958
				C260.557,188.197,255.275,184.598,252.938,178.945z"/>
		</g>
	</g>
	<g i:knockout="Off">
		<path i:knockout="Off" d="M253.813,191.875c4.177,0,7.563,3.386,7.563,7.563S257.989,207,253.813,207s-7.563-3.386-7.563-7.563
			S249.636,191.875,253.813,191.875 M253.813,197.875c-0.861,0-1.563,0.701-1.563,1.563s0.701,1.563,1.563,1.563
			s1.563-0.701,1.563-1.563S254.674,197.875,253.813,197.875L253.813,197.875z"/>
	</g>
</g>
</svg>
