<?xml version="1.0" encoding="utf-8"?>
<!-- Generator: Adobe Illustrator 13.0.0, SVG Export Plug-In . SVG Version: 6.00 Build 14948)  -->
<!DOCTYPE svg PUBLIC "-//W3C//DTD SVG 1.1//EN" "http://www.w3.org/Graphics/SVG/1.1/DTD/svg11.dtd" [
	<!ENTITY ns_flows "http://ns.adobe.com/Flows/1.0/">
	<!ENTITY ns_extend "http://ns.adobe.com/Extensibility/1.0/">
	<!ENTITY ns_ai "http://ns.adobe.com/AdobeIllustrator/10.0/">
	<!ENTITY ns_graphs "http://ns.adobe.com/Graphs/1.0/">
	<!ENTITY ns_vars "http://ns.adobe.com/Variables/1.0/">
	<!ENTITY ns_imrep "http://ns.adobe.com/ImageReplacement/1.0/">
	<!ENTITY ns_sfw "http://ns.adobe.com/SaveForWeb/1.0/">
	<!ENTITY ns_custom "http://ns.adobe.com/GenericCustomNamespace/1.0/">
	<!ENTITY ns_adobe_xpath "http://ns.adobe.com/XPath/1.0/">
]>
<svg version="1.1"
	 xmlns:x="&ns_extend;" xmlns:i="&ns_ai;" xmlns:graph="&ns_graphs;" i:viewOrigin="156.5 545.5" i:rulerOrigin="0 0" i:pageBounds="0 792 612 0"
	 xmlns="http://www.w3.org/2000/svg" xmlns:xlink="http://www.w3.org/1999/xlink" xmlns:a="http://ns.adobe.com/AdobeSVGViewerExtensions/3.0/"
	 x="0px" y="0px" width="300px" height="300px" viewBox="0 0 300 300" enable-background="new 0 0 300 300" xml:space="preserve">
<metadata><?xpacket begin="﻿" id="W5M0MpCehiHzreSzNTczkc9d"?>
<x:xmpmeta xmlns:x="adobe:ns:meta/" x:xmptk="Adobe XMP Core 4.1-c036 46.277092, Fri Feb 23 2007 14:17:08        ">
   <rdf:RDF xmlns:rdf="http://www.w3.org/1999/02/22-rdf-syntax-ns#">
      <rdf:Description rdf:about=""
            xmlns:xap="http://ns.adobe.com/xap/1.0/"
            xmlns:xapGImg="http://ns.adobe.com/xap/1.0/g/img/">
         <xap:Thumbnails>
            <rdf:Alt>
               <rdf:li rdf:parseType="Resource">
                  <xapGImg:width>256</xapGImg:width>
                  <xapGImg:height>200</xapGImg:height>
                  <xapGImg:format>JPEG</xapGImg:format>
                  <xapGImg:image>/9j/4AAQSkZJRgABAgEASABIAAD/7QAsUGhvdG9zaG9wIDMuMAA4QklNA+0AAAAAABAASAAAAAEA&#xA;AQBIAAAAAQAB/+4ADkFkb2JlAGTAAAAAAf/bAIQABgQEBAUEBgUFBgkGBQYJCwgGBggLDAoKCwoK&#xA;DBAMDAwMDAwQDA4PEA8ODBMTFBQTExwbGxscHx8fHx8fHx8fHwEHBwcNDA0YEBAYGhURFRofHx8f&#xA;Hx8fHx8fHx8fHx8fHx8fHx8fHx8fHx8fHx8fHx8fHx8fHx8fHx8fHx8fHx8f/8AAEQgAyAEAAwER&#xA;AAIRAQMRAf/EAaIAAAAHAQEBAQEAAAAAAAAAAAQFAwIGAQAHCAkKCwEAAgIDAQEBAQEAAAAAAAAA&#xA;AQACAwQFBgcICQoLEAACAQMDAgQCBgcDBAIGAnMBAgMRBAAFIRIxQVEGE2EicYEUMpGhBxWxQiPB&#xA;UtHhMxZi8CRygvElQzRTkqKyY3PCNUQnk6OzNhdUZHTD0uIIJoMJChgZhJRFRqS0VtNVKBry4/PE&#xA;1OT0ZXWFlaW1xdXl9WZ2hpamtsbW5vY3R1dnd4eXp7fH1+f3OEhYaHiImKi4yNjo+Ck5SVlpeYmZ&#xA;qbnJ2en5KjpKWmp6ipqqusra6voRAAICAQIDBQUEBQYECAMDbQEAAhEDBCESMUEFURNhIgZxgZEy&#xA;obHwFMHR4SNCFVJicvEzJDRDghaSUyWiY7LCB3PSNeJEgxdUkwgJChgZJjZFGidkdFU38qOzwygp&#xA;0+PzhJSktMTU5PRldYWVpbXF1eX1RlZmdoaWprbG1ub2R1dnd4eXp7fH1+f3OEhYaHiImKi4yNjo&#xA;+DlJWWl5iZmpucnZ6fkqOkpaanqKmqq6ytrq+v/aAAwDAQACEQMRAD8A9U4q7FXYq7FXYq7FXYq7&#xA;FXYq7FXYq7FXYq7FXYq7FXYq7FXYq7FUDrmt6VoWj3esatcLaadYxNNc3D9FRR95J6ADcnYb4q+K&#xA;vzX/AOcp/Onmm7nsfLU8vl/y8CVjELcLyZenKWZfiSv8iEU7lsVeJT3FxcStNcSvNK27SSMWY/Mm&#xA;pxVlXkz82fzC8m3KS6DrVxBCpq1lI5mtX2p8UEnJOncCo7HFX2n+R357aP8AmXpz280aaf5ms0DX&#xA;2nAko6bD14C25Qk7qd16GuxKr1PFXYq7FXYq7FXYq7FXYq7FXYq7FXYq7FXYq7FXYq7FXYq7FXYq&#xA;7FXYq7FXYq7FXYq7FXyn/wA5q+eblZ9G8k20hSBo/wBJ6iqnZyXaO3RhT9n03ale48MVfK+KuxV2&#xA;Ksh8geb77yf5x0rzHZMRJYTq8qAkepCfhljNOzxkrir9L7W5guraK6t3EkE6LLDIOjI45KRXxBxV&#xA;UxV2KuxV2KuxV2KuxV2KuxV2KuxV2KuxV2KuxV2KuxV2KuxV2KuxV2KuxV2KuxV2KviH/nMnT7i3&#xA;/NiG6kA9G90y3khYV/YeSNlNR1BSvyIxV4TirsVdirYBJAAqT0GKv078mWNzYeT9Csbrl9atNPtY&#xA;J+VQ3qRwIrVr3qMVTjFXYq7FXYq7FXYq7FXYq7FXYq7FXYq7FXYq7FXYq7FXYq7FXYq7FXYq7FXY&#xA;q7FXYq8X/wCcoPyluvPHk+LUtHh9bzBoJeaCFacp7ZwDNCNqs44BkHsQN2xV8KMrKxVgQwNCDsQR&#xA;irWKuxV7D/zjV+Ul352862+qXsB/w1ocq3F7K4PCaZCGitl7MS1Gcfy/MYq+88VdirsVdirsVdir&#xA;sVdirsVdirsVdirsVdirsVdirsVdirsVdirsVdirsVdirsVdirFPMX5sflt5cnNtrXmOxtLpSVe2&#xA;MyyTKQaEPFHzdfpGKpr5a82+WfM9j9f8v6nb6nag8XktpFfg38rqPiRvZgDirzT80v8AnGLyL55u&#xA;5dUtnfQddmPKa8tUV4ZW7tNbkoGb/KVlJ71xV4ndf84TfmKs9LXW9Ilgr9uV7qJ6f6iwSD/hsVZV&#xA;5N/5wntYbmO484a79aiRqtp+moUVwOzXEnxUJ6hYwfcYq+k9A8vaJ5e0mDSNFs4rDTrZeMNtCKKP&#xA;EnuzHux3PfFUwxV2KuxV2KuxV2KuxV2KuxV2KuxV2KuxV2KuxV2KuxV2KuxV2KuxV2KuxV2Ksb8+&#xA;/mH5U8iaK2r+Y7wW8JqtvAo5zzyAV9OGPYs34DuQMVfGP5p/85N+fPOkktlp0r6BoDVUWVq5E0qm&#xA;o/fzjizVHVVovseuKvHiSSSTUnqcVezf84k6zqll+clhYWrsLLVLe6h1GMfZKRW7zxsR4rJGtD7+&#xA;+Kvu3FUr8w+afLnlyxN9r2pW2mWorSW5kWMMR2QMasfZd8VeL+af+cyvy30x3h0S0vNdlUkCVVFr&#xA;bmng8v7z/klirDT/AM5yXBvEI8nILKlJE+vkyk1+0G+rhRt+zx+nFXuX5U/nN5Q/MnT5ZdHd7fUb&#xA;UKb7S7igmjDbBwRVXQn9pfpAxVnmKuxV2KuxV2KuxV2KuxV2KuxV2KuxV2KuxV2KuxV2KuxV2Kux&#xA;V2KuxV53+cH51+WPy20rndsLzXbhCdP0eNqSP29SUivpxA/tHr0Wu9FXwj568++ZvPGvS635guzc&#xA;XL/DDEKiGCOtRFClSEQfidzU74qx3FVa1tLm7mENtE0srdFUV28T4D3xV7r+T3mz8s/yiiu9e1m6&#xA;/T3nK6iaC207Sws0NpFUEh7puMJkkYfE0TPRR3qcVd50/wCcxPzF1jnB5ft7fy7aNyAdALq6odt5&#xA;ZV4D/Yxg++KvEtZ13Wtbvnv9Yv59RvZPt3F1I0rn25OSaeAxVA4q7FX0B/zht5c165/MS4162Vo9&#xA;G0+0lgv5iSEd56enCKfaao507cflir7UxV2KuxV2KuxV2KuxV2KuxV2KuxV2KuxV2KuxV2KuxV2K&#xA;uxV2KuxV4T+eX/OTekeTRPoPlhotT80AFJpqh7azbp8ZGzyj+QdP2vAqvi/Wtb1bW9TuNU1e7kvd&#xA;QumLz3MzcnZj+oeAGwxVA4q7FV3qScCgYhDuVrsT8sVW4q7FXYqm2geU/M/mK5FtoWlXWpzE0K2s&#xA;Ly0/1ioIUe5xV73+W/8Azhv5jv5ob7zzdLpVhszaZbMst2/Q8XcViiBHcFj7DFX1f5a8saD5Z0eD&#xA;RtCso7HTrcUjgiHU92ZjVmY92Y1OKppirsVdirsVdirsVdirsVdirsVdirsVdirsVdirsVSPzd53&#xA;8qeUNMOpeY9Sh0613EZkJLyEdVjjWrud+ig4q+WPzM/5y18z+Y5m0P8AL20m0y2nb0lvuPPUZydq&#xA;QonIRVr+zyfwK9MVSWH8wP8AnLTywq/WYtaeB1WSt7p/1pePXeV4nZTvuOQPjiqM03/nM38zrEm3&#xA;1XStNvJImKyFopreaoO6txk4gjp9jFUP+Yn/ADl15w8z6Euk6JYjy36yldQuoZzPNIDtxifhEYlP&#xA;elW/yvFV4KzMzFmJLE1JO5JOKtYqyLRfy78/a5CJ9H8ualf25PH6xBaTPFXw9QLw/HFWXaT/AM4z&#xA;/nXqa808uPax1oXu5reA/wDAPIJP+FxVmOk/84XfmVcor6hqWl6eD1j9SaaQfMJGE+58VZjpv/OD&#xA;unqiHU/NksjkAultZrGAabgM8slQD34j5YqzHTv+cOvygtHVp21PUApBKXF0qht+h9CKA/ccVZvo&#xA;n5F/lDosgksfKtgZAKK9yhuyN61BuTNQ+/XFWa2tra2lulvawpb28YpHDEoRFHgqqABiqrirsVdi&#xA;rsVdirsVdirsVdirsVdiqEvNX0mykWO8vYLaRhyVJpUjJHSoDEbYqls3n3yLCOU3mPS41rSr3tuo&#xA;r4bviqBuvza/K21V2n836MpjFXQX9sz0pXZFcsfkBiqUy/8AOQP5MxEBvNlka/yGR/8AiKnFUBN/&#xA;zk3+RsQq3mhDvT4LW9f/AIjAcVSe6/5y6/JmFnWO8vbkKxUNFaSAMAftD1PTND77+2KsK/MH/nM/&#xA;SV0w2/kSwmk1KXkrX2pRqkUK0oGjiR2Mj+HKgHcN0xV8v655o1rzHrR1bzLe3Gq3MjD15JJKOYwa&#xA;lIyVZYxT7ICcR4Yq9V/L78/PI/kGNW8vfl7GdQK8ZtVvNR+sXb12NJPqqCNTTdY1AxVl0v8AznBr&#xA;5B9HyraIa/CXupGoPeiLirHdf/5y782avzim8reXp7SRCjw31tNdk8hRqlpkUgjtxxVg2o+f5dcj&#xA;4HyF5fVZTsbCwubYsa9Fa2njI3H7Py8cVYuPK/ma5d5INEvOBYnhFbzsq13CgkMdvc4qmsH5Sfmn&#xA;PQxeT9aKsOSsdPuVUg9wzIBiqZWX5MfnRGwltPK+rQOdgwikib8eJGKvuH8l9I17SPyw0DT/ADAJ&#xA;l1iGBzeLcv6kqtJM7hWardFYDrirNcVdirsVdirsVdirsVdirsVdirsVdirsVfL4/Ib/AJyfmC/W&#xA;PzKMZU9ItT1Pp8xHHX6cVQjf84n/AJsXJb675+D1PLeS8lqxrUnky74qil/5wrv5xyv/AD5NKzqP&#xA;WQWLN8VOnJ7o8gPdcVVof+cHtCAX1/Nd05r8XC1jSo9qyPTFUzs/+cJvy9QP9d1zVpyacDC1tDTx&#xA;ryhmr+GKpnD/AM4a/lJGatPq0opSj3MQ+n4IVxVHW3/OI35MRNGZLK8uAjAssl3IA4Brxb0+Gx6f&#xA;DQ4qm0X/ADjH+RsVePlhDXrzu75/+JTnFUfD/wA4+fkxCap5UsztT4/Uf/ibtiqOuvyV/KO5t0t5&#xA;PKGkrGgorRWsUT7Cm8kYR2+k4qgYv+cfPyYjbkvlSzJ6fF6jj7mcjFU3t/ym/K23WNYfKGiqYgFR&#xA;zp9qz0Apu7RlifcmuKo2LyD5EhBWLy5pcanchLK3UV+hMVTKz0bSLGQy2Vjb2shXgXhiSNitQeNV&#xA;A22GKozFXYq7FXYq7FXYq7FXYq7FXYq7FXYq7FXYq7FXYqlWv+bPLHl6D6xrurWmmRcSym7mjiLA&#xA;fyByCx9lxV5R5l/5y6/KTSeaafNd65Oo+EWcBSIt4GS49Lb3VWxV7ZirsVdirsVdirsVdirsVdir&#xA;sVdirsVdirsVdirsVQuqapp2ladcalqVzHaWFohlubmZgiIi9SxOKvlz8wP+c0bpb2az8i6XC1ol&#xA;UGqakHZnNKc44EZOIB+zzY17qOmKrPyk/wCcuPMeoebLPRvOsNq+n6lKtvFqFshhe3lkIVDICxRo&#xA;y2zdCK1qaUxV9YYqoXmoWFkiyXtzFbIx4q8zrGCetAWIxVfb3NvcwrPbypNC+6SxsHU0NNmFQcVV&#xA;MVdirsVdirsVdirzr80vz28i/l3E0Oo3BvdbKhotGtSGn+IVVpSfhiQ+Lb+AOKvl3zf/AM5Qfm55&#xA;yvf0f5fLaLbztwgsdKVnu3qTxBnoZS2/+6wvyxVD+XP+cYvzo82T/XtUtv0Wk55SXmsTMJm7kmIe&#xA;pPX/AF1GKvXPK/8AzhP5WtgkvmXXLrUZaAtb2SJaxBu4LP6zsPlxxV9J4q7FXYq7FXYq7FXYq7FX&#xA;Yq7FXYq7FXYq7FXYq7FXxT/zlP8AnRL5n1+Tyfos/wDzr2kSFbx42+G6u0NGJI6xxHZfFqnwoq8B&#xA;xVNPK2n3Go+ZtI0+2BNxeXtvBCF+1zklVFp71OKvqL89/wDnKl9Nurryv5CkVruEtDf68QGWNx8L&#xA;R2qnZmU7GQ7fy1+1ir5W1fWtY1m9e+1a+n1C8kNXuLmR5ZCf9ZyTirOfyG/MLWPJ/wCYukNbXLpp&#xA;eo3UNnqtpUmKSGdxGXKD9qPlyUjfanQnFX6HYq7FXYq7FXYq+f8A/nIv/nIxfJ4l8q+VZVk8zuo+&#xA;u3mzLYqwBAAIIaZlPT9kbnfFXjX5Qf8AOO3mz8yrn/EvmS5nsNAuJDLJfTEveXzE1ZofUrse8rbe&#xA;HLeir6/8kflr5J8kWQtfLelQ2bFAk13TnczdCfVmartUitK0HYDFWTYq7FXYq7FXYq7FXYq7FXYq&#xA;7FXYq7FXYq7FXYq7FXYq8q/5yP8AzOPkX8vZ/qUvp67rPKy0sqaMlV/fTj/jEh2/yiuKvgEkkkk1&#xA;J3JOKtYqrWd5c2dwlzayGKeOvpyqaMpIIqD2O/XFVHFXYq9I/wCcefKk/mX83fL8CR87fT7hdTvG&#xA;IqqxWZEo5ezSBE+nFX6GYq7FXYq7FXnP57fmtb/l15JlvoWVtdv+Vto0DUNZafFKynqkKnkfeg74&#xA;q+Xv+cd/yhuvzL823PmPzJ6lz5fsZzNqMsrEte3jn1PRLncgk85T1pt+1XFX3LFFFDEkMKLHFGoS&#xA;ONAFVVUUCqBsABiq7FXYq7FXYq7FXYq7FXYq7FXYq7FXYq7FXYq7FXYq7FXYq/Pr/nIj8yx57/MS&#xA;6uLOX1NE0sGx0qn2WRGPqTDp/evUj/J4+GKvMMVdirsVdirsVfcX/OKf5VyeUvJz+YNTh9PW/MKp&#xA;KEYfHDZjeFDUbGSvNh/q13GKvcsVdirsVQ+pajY6Zp9xqF/OltZWkbTXNxIaIkaDkzE+wxV8Eeff&#xA;M3mL87/zbhttJid4biUWOh2pG0NqhLNNIB025SyHsNugGKvuDyH5L0nyX5U0/wAuaWoFvYxhXlpR&#xA;ppTvJM+5+KRqnrt06DFU/wAVdirsVdirsVdirsVdirsVdirsVdirsVdirsVdirsVdirxj/nKP80B&#xA;5P8AIb6TYy8dd8wh7W34n4oralLib/gTwX3ao+zir4SxV2KuxV2KuxV7p/zjL+SEvnLXI/M2t25/&#xA;wtpctURxteXKUIiAPWNDQueh+z40VfcGKuxV2KqV5eWllay3d5PHbWsCl57iZljjRF3LO7EKoHic&#xA;VfGH/ORf/OQredpW8peU3f8Aw0ki/WbpQyvfyqaqoXZvRVt1BFWah7DFXsX/ADjJ+ST+SdEbzDr1&#xA;vw806qgAhf7VpamjCIjtI53k8Nl7Gqr3LFXYq7FXYq7FXYq7FXYq7FXYq7FXYq7FXYq7FXYq7FXY&#xA;qpXl3a2dpPeXcqwWttG008zmipHGpZmY9gAKnFX5zfnF+Ytz5/8APl/rzFhY1+r6VC+xjtIifTFK&#xA;mhapdv8AKY4qwnFXYq7FXYq9g/IP8g9S/MTUl1PU1ktPKNpJS5uR8L3Lr1ggP/E3/Z+eKvurStK0&#xA;3SNNttM0y2jtLC0jEVtbRDiiIvQAYqt1PW9G0qNZdUv7awiapV7qVIVPH7VC5XpXfFWEa5/zkH+T&#xA;ejGRbnzRaTyRj7FlzvKmlQoa3WRa/Tt3xV5f5s/5zX8sWyPF5W0S51GelFuL5ltoQ3jwQyyOP+Bx&#xA;V4frnnb85/zq1f8ARka3GoxFw8ejWCGOyhFTxaQV4/Dy2kmYkeOKvov8jP8AnGLTfJc8HmLzO8ep&#xA;+Zko9rAg5W1m38yV/vJR/ORRf2RX4sVe8Yq7FXYq7FXYq7FXYq7FXYq7FXYq7FXYq7FXYq7FXYq7&#xA;FXYq+dP+cwfzQ/RHl2DyRps1NQ1pfV1MqRWOyU7IRTb1nHj9lSO+KvjbFXYq7FXYq9c/KD8lIfMF&#xA;o3nDzrdjQvIFlyaa9mcRPdMn+64OW9CdiwBqfhWrdFXpHmr/AJy90nRLOPQPyz0KKLTbJPQtby8V&#xA;kiCKKAxWyFW96u1fFcVebHzz/wA5IfmM8n1C61m+t3+F00uN7a2Cnbi7W6xx0/1ziqYab/zif+dm&#xA;sSrNqFvbWDS7tNf3iuwFK1b0PrDYqzPRv+cH9Yd6615ot7dB1Syt3nJ9uUrQU/4E4q9H8sf84g/l&#xA;RpJSXU1vNdnX7QupvShJ7ERwCI/QznFXsOjaFouiWKWGjWFvp1khqttaxJDHWgBPFABU03OKo7FX&#xA;Yq7FXYq7FXYq7FXYq7FXYq7FXYq7FXYq7FXYq7FXYq7FUv8AMOvaZ5f0O+1vU5RDYadC9xcPtXig&#xA;rRakVZuijudsVfm158846l5y83an5j1An19QmZ0iqWEUQ2iiWvZEAXFUgxV2KuxV7b+Xf5M6RpPl&#xA;z/lY/wCafOw8rQcX07RiCtzqMjAmNONVZUelVGxYb7JuVUk17zD+Yf53+crbSdJsytlD8GkaHb/B&#xA;Z2NsgChnICotFA5OR7L2XFX0n+V3/OKvkbyrDDe+YY08xa6KMzTrWzibwigbZ6fzSV8QFxV7bFFF&#xA;DEkMKLHFGoSONAFVVUUCqBsABiq7FXYq7FXYq7FXYq7FXYq7FXYq7FXYq7FXYq7FXYq7FXYq7FXY&#xA;q7FXYq7FXyv/AM5k/mfRbX8vtOl3PC91wrXp9q3gPz/vGH+pir5TxV2KrkR3dURSzsQqqoqSTsAA&#xA;MVfV35F/8402WjWi+dvzIiSNraM3dto9yAI7dIwWM14rbclUcuB2X9rfYKvKvzb/ADE8w/nJ+Ytt&#xA;pmiRSS6cs31Py7pw2Lc2o08gOwaSnJidlUexOKvrz8m/yl0j8t/Kyabb8Z9WuQsmr6iAazTAfZWu&#xA;4jStEH09ScVZ7irsVdirsVdirsVdirsVdirsVdirsVdirsVdir5T/KT/AJyG876j+dc/l/zNdLNp&#xA;WrXE1lb2wiEa2s0PP0fTp8XxFeDciete2KvqzFXYq7FXYq7FXYq7FXYqkvnXzZpnlHyrqXmPUmAt&#xA;dOgaUpWhkfpHEpofikchB7nFX5seZfMOp+Y9fv8AXdTk9W/1Gd7i4YbDk5rxUdlUbKOwxVLMVV7K&#xA;yu767hs7OF7i7uHWKCCJS7u7miqqjcknFX2d/wA4/wD/ADjVa+URb+ZvNsSXXmegktLI0eKxPY1B&#xA;KvN/ldF/Z3+LFWPf85f/AJuC3tl/LzR5v384WfX5UP2YvtRW3zfZ39uPicVTf/nEz8nRoWiDzzrM&#xA;FNY1aKmlxSLvBZvQ+oK9Hn6g/wAlP5jir6JxV2KuxV2KuxV2KuxV2KuxV2KuxV2KuxV2KuxV2Kvg&#xA;38+fLes/l1+dc2u2CmGK8vF1zRrniOBkMglkSgJH7uaoK/y02oRir61/K/8AOfyX+YOmQSadeR2+&#xA;sFB9b0WZwtxHIFq4RTQyoKGjr260O2Ks9xV2KuxV2KuxV2KuxV8gf85ifmiuo6vb+Q9NlDWmlstz&#xA;q7oQQ10V/dxVH++karD+Y+K4q+ayCOopXcV8DiqaeWPK2v8AmjWrfRdBs5L7Ubk0jhjHQd3dj8KI&#xA;v7TMaDFX3F+R3/OPmh/l1bLqd8U1HzZMhWW+p+7t1YUaK2B6V6M5+I+w2xVlP5ufmZpn5eeTbrXL&#xA;opJfMDDpVkxNZ7lh8K0G/BftOf5R40xV8g/kb+XWqfmx+ZFxrPmAtdaTaz/X9euZAaXEsjl1t6in&#xA;96wNadEB9sVfeKIkaKiKERAFVVFAANgABireKuxV2KuxV2KuxV2KuxV2KuxV2KuxV2KuxV2KuxVj&#xA;Xn78u/KvnzRDpHmK09eAEvbzoeE8ElKc4noeJ+dQe4OKvkPz5/zib+ZXly9e58tJ/iDTEPOGa3ZY&#xA;rtBXYNCzAlh4xlvHbFUitvzR/wCchvy/kW2vL/VrFI1Ea22sQtNHwH2VT62j0G23AjbpirPPLn/O&#xA;bPmy29OPzDoNnqMaijzWjyWsp/yiG9dK+wA+jFXqPlv/AJzB/KfU+Camb3Q5m+2bmAzQg9qPbmVv&#xA;pKDFXqPl38wvIvmRYzoWvWOoPLXhBDPGZtutYSRIv0rirIMVdirDPze/MO18geQ9Q8wScWuwPq+m&#xA;QNWkl3KD6SmnZaF2/wAlTir4MfR7tdPfzn5rLyHVZJJdLt5qiXUZyxMs7dCLdGPxv+03wL+0yKpx&#xA;+Vv5L+dfzN1Qy2kf1TSBJ/p2tzrSFPFYlHH1H8ETYdyoxV9u/ln+VPlL8vNGGn6Hb1uZQPr2pSgG&#xA;4uHHd27KP2UX4R86kqp75m8zaJ5Y0S61vW7pLPTrNOc0z/gqjqzMdlUbk4q+FfO3m3zj+ev5m2tl&#xA;psDelI5ttE00n93bW9avNKRtUhecre1BsBir7U/LP8vNG8g+UbTy9pg5+kPUvLsgB7i4cD1JWp49&#xA;FHZQB2xVlWKuxV2KuxV2KuxV2KuxV2KuxV2KuxV2KuxV2KuxV2KuxV2KrJoYZ4nhmjWWKQFXjcBl&#xA;YHqCDscVYN5j/Ij8o/MIY3/lizjmYEGezQ2clT+0WtzFyI/yq4q8t8xf84T+Tbol9A1290xiP7u5&#xA;SO8jr7U+ruPpY4q8v1//AJw8/NjTW9TSXsdZQboLef6vLUdKrcCJB9DnFWPxap/zkh+XaoC+vaXa&#xA;RtWNZ0lns6jcgCQSwfPFWWeXP+c0PzEsfTj1vTrDWYlaskgV7Sdh3HOMtEP+RWKp9qP59fk5+YXm&#xA;LR73z7aajaadpCsbbRfTS4sTcyEcri4liZZpQFChY/SoKH7XIriq/wAkeV/y3/MvzE/nbz/5t02a&#xA;SQ8NO8oRXCWiW1tCeMETrI0cnBUH2UUV6ljUjFX0N/jn8rvL2mpbrr2jabYWiFYbZLq2jVFT9mON&#xA;W/4VRirz/wA4f85bflVokTppU0/mG9A+CK0Ro4eXg88wUAe6K2KvmrzX56/ND88/NdrpdvbNJHz/&#xA;ANA0W05C2gHQzSs3cA/FI5oO1Btir6y/I78kdI/LXRSzlbzzLfIBqeoAbAfa9CGu4jU/Sx3PYBV6&#xA;dirsVdirsVdirsVdirsVdirsVdirsVdirsVdirsVdirsVdirsVdirsVdirsVU7qZoLaaZY2maJGc&#xA;QxiruVFeKjxPQYq/Pfzh5m/MH82/M0/1PQBLIsrvHp+m2KmWIEmvrTpH6zn+ZpGpXsMVTTTf+cVv&#xA;zrvoklbRY7NHoR9ZurdWAPcoruy/IiuKpva/84c/m9NMI5H0u2WhPqy3Lldu37uKRvwxVMrf/nCf&#xA;8ymelxrOjRp/NHJdSH7jbx/rxVnXlj/nCby3bSJL5k1+51Ggq1rZxLapy8DI5mdl+QU4q948o+Rf&#xA;KXk/TxYeW9Lg063NPUMa1kkI6GWVqySH/WY4qnuKuxV2KuxV2KuxV2KuxV2KuxV2KuxV2KuxV2Ku&#xA;xV2Kv//Z</xapGImg:image>
               </rdf:li>
            </rdf:Alt>
         </xap:Thumbnails>
         <xap:CreatorTool>Adobe Illustrator CS3</xap:CreatorTool>
         <xap:ModifyDate>2008-01-04T13:14:55-08:00</xap:ModifyDate>
         <xap:MetadataDate>2008-01-04T13:14:55-08:00</xap:MetadataDate>
      </rdf:Description>
      <rdf:Description rdf:about=""
            xmlns:xapTPg="http://ns.adobe.com/xap/1.0/t/pg/"
            xmlns:stDim="http://ns.adobe.com/xap/1.0/sType/Dimensions#"
            xmlns:xapG="http://ns.adobe.com/xap/1.0/g/">
         <xapTPg:MaxPageSize rdf:parseType="Resource">
            <stDim:w>612.000000</stDim:w>
            <stDim:h>792.000000</stDim:h>
            <stDim:unit>Points</stDim:unit>
         </xapTPg:MaxPageSize>
         <xapTPg:NPages>1</xapTPg:NPages>
         <xapTPg:HasVisibleTransparency>False</xapTPg:HasVisibleTransparency>
         <xapTPg:HasVisibleOverprint>False</xapTPg:HasVisibleOverprint>
         <xapTPg:PlateNames>
            <rdf:Seq>
               <rdf:li>Cyan</rdf:li>
               <rdf:li>Magenta</rdf:li>
               <rdf:li>Yellow</rdf:li>
               <rdf:li>Black</rdf:li>
            </rdf:Seq>
         </xapTPg:PlateNames>
         <xapTPg:SwatchGroups>
            <rdf:Seq>
               <rdf:li rdf:parseType="Resource">
                  <xapG:groupName>Default Swatch Group</xapG:groupName>
                  <xapG:groupType>0</xapG:groupType>
               </rdf:li>
            </rdf:Seq>
         </xapTPg:SwatchGroups>
      </rdf:Description>
      <rdf:Description rdf:about=""
            xmlns:dc="http://purl.org/dc/elements/1.1/">
         <dc:format>image/svg+xml</dc:format>
      </rdf:Description>
      <rdf:Description rdf:about=""
            xmlns:xapMM="http://ns.adobe.com/xap/1.0/mm/">
         <xapMM:InstanceID>uuid:0F10B316AEBADC11828F907C0EB444D3</xapMM:InstanceID>
      </rdf:Description>
   </rdf:RDF>
</x:xmpmeta>
                                                                                                    
                                                                                                    
                                                                                                    
                                                                                                    
                                                                                                    
                                                                                                    
                                                                                                    
                                                                                                    
                                                                                                    
                                                                                                    
                                                                                                    
                                                                                                    
                                                                                                    
                                                                                                    
                                                                                                    
                                                                                                    
                                                                                                    
                                                                                                    
                                                                                                    
                                                                                                    
                           
<?xpacket end="w"?>
	</metadata>
<g id="Layer_1" i:layer="yes" i:dimmedPercent="50" i:rgbTrio="#4F008000FFFF">
	<g>
		<g id="surface0" i:knockout="Off">
			<path fill="none" stroke="#000000" stroke-width="0.1" stroke-miterlimit="10" d="M210.597,35.895
				c7.245-0.696,14.901,2.292,19.448,8.051c3.164,3.603,4.6,8.365,5.104,13.052c-0.203,7.203-3.877,14.25-9.923,18.25
				c-5.739,3.65-13.171,4.8-19.608,2.394c-9.703-3.019-16.346-13.74-14.541-23.764C192.799,44.414,201.033,36.858,210.597,35.895z"
				/>
			<path d="M210.597,35.895c7.245-0.696,14.901,2.292,19.448,8.051c3.164,3.603,4.6,8.365,5.104,13.052
				c-0.203,7.203-3.877,14.25-9.923,18.25c-5.739,3.65-13.171,4.8-19.608,2.394c-9.703-3.019-16.346-13.74-14.541-23.764
				C192.799,44.414,201.033,36.858,210.597,35.895z"/>
			<path fill="none" stroke="#000000" stroke-width="0.1" stroke-miterlimit="10" d="M182.424,81.659
				c3.496-0.929,8.359-1.18,10.459,2.408c3.699,5.1-0.119,11.975-4.859,14.885c-7.322,4.46-15.729,6.64-23.506,10.147
				c12.85-4.8,25.762-9.431,38.715-13.948c9.024-3.136,17.837-8.092,27.656-7.837c4.917,0.089,11.109,4.112,9.672,9.707
				c-1.494,3.464-4.624,5.865-7.728,7.826c-9.004,5.439-19.634,6.915-29.821,8.667c-15.725,1.837-31.307,4.896-47.096,6.147
				c4.994,0.271,9.963,0.865,14.897,1.688c-0.205,2.008-0.437,4.014-0.653,6.023c-21.048,1-42.086,2.169-63.132,3.194
				c-5.045,0.089-10.094,1.009-15.131,0.308c-3.957-0.5-7.95-0.116-11.907,0.17c-26.665,1.39-53.329,2.779-79.991,4.219v-3.984
				c29.478-1.758,58.986-2.956,88.457-4.828c7.385-5.434,15.952-8.996,23.586-14.063c7.645,1.202,15.291,2.407,22.955,3.484
				c9.087-6.834,18.026-13.882,26.5-21.469C167.661,89.025,174.479,83.991,182.424,81.659z"/>
			<path d="M182.424,81.659c3.496-0.929,8.359-1.18,10.459,2.408c3.699,5.1-0.119,11.975-4.859,14.885
				c-7.322,4.46-15.729,6.64-23.506,10.147c12.85-4.8,25.762-9.431,38.715-13.948c9.024-3.136,17.837-8.092,27.656-7.837
				c4.917,0.089,11.109,4.112,9.672,9.707c-1.494,3.464-4.624,5.865-7.728,7.826c-9.004,5.439-19.634,6.915-29.821,8.667
				c-15.725,1.837-31.307,4.896-47.096,6.147c4.994,0.271,9.963,0.865,14.897,1.688c-0.205,2.008-0.437,4.014-0.653,6.023
				c-21.048,1-42.086,2.169-63.132,3.194c-5.045,0.089-10.094,1.009-15.131,0.308c-3.957-0.5-7.95-0.116-11.907,0.17
				c-26.665,1.39-53.329,2.779-79.991,4.219v-3.984c29.478-1.758,58.986-2.956,88.457-4.828c7.385-5.434,15.952-8.996,23.586-14.063
				c7.645,1.202,15.291,2.407,22.955,3.484c9.087-6.834,18.026-13.882,26.5-21.469C167.661,89.025,174.479,83.991,182.424,81.659z"
				/>
			<path fill="none" stroke="#FFFFFF" stroke-width="0.1" stroke-miterlimit="10" d="M102.39,124.695
				c4.038-1.576,7.618-4.063,11.522-5.914c9.117,1.377,18.202,3.015,27.357,4.125C128.301,123.351,115.358,124.299,102.39,124.695z"
				/>
			<path fill="#FFFFFF" d="M102.39,124.695c4.038-1.576,7.618-4.063,11.522-5.914c9.117,1.377,18.202,3.015,27.357,4.125
				C128.301,123.351,115.358,124.299,102.39,124.695z"/>
			<path fill="none" stroke="#000000" stroke-width="0.1" stroke-miterlimit="10" d="M261.896,150.768
				c10.646-9.288,24.807-12.296,38.104-15.718v6.339c-11.883,3.338-24.697,5.881-34.318,14.175
				c-7.59,6.054-11.406,15.249-17.153,22.829c-4.822,7.551-12.004,13.579-20.332,16.904c-12.854,5.686-27.392,4.73-40.502,9.537
				c-6.444,2.608-12.359,6.697-16.756,12.118c-11.089,13.063-17.823,29.591-30.961,40.952c-6.299,5.542-14.77,7.65-22.914,8.547
				c-9.759,0.544-19.993-0.434-29.159,3.662c-2.651,1.504-4.83-2.338-3.17-4.335c1.713-2.07,4.487-2.681,6.827-3.74
				c-18.467-3.727-36.679-8.669-55.095-12.655c-3.744-0.563-6.792-2.935-9.893-4.915c-5.505-3.786-7.337-11.075-7.212-17.419
				c0.718-0.439,2.153-1.318,2.872-1.758c4.167,1.887,3.303,7.025,5.108,10.526c2.083,4.606,7.309,6.312,11.807,7.589
				c21.287,5.143,42.622,10.095,63.89,15.318c0.557-0.598,1.116-1.191,1.676-1.781l-1.568-0.047
				c5.469-7.43,11.436-14.473,17.015-21.816c-6.8,7.688-13.832,15.551-22.719,20.857c3.616-7.947,8.583-15.188,12.537-22.966
				c9.441-18.083,19.273-35.955,29.208-53.771c5.49-9.787,9.673-20.421,16.817-29.195c3.504-4.15,8.334-7.922,14.051-7.75
				c3.956-0.631,7.066,3.25,7.484,6.848c0.362,4.373-0.959,8.677-2.334,12.778c5.331-7.595,13.843-15.403,23.876-13.569
				c4.112,0.468,6.335,4.926,6.114,8.709c-0.414,5.801-3.309,11.039-6.168,15.975c-2.996,4.6-6.031,9.246-9.963,13.117
				c-11.275,12.075-24.061,22.594-36.391,33.551c-14.82,13.553-29.718,27.333-47.292,37.297l-0.443-0.711
				c-0.132,1.02-0.264,2.041-0.396,3.066c3.448,0.365,6.838,1.541,10.343,1.133c7.7-0.719,15.884-2.357,21.719-7.824
				c15.843-14.222,21.858-36.902,39.962-48.969c16.829-11.442,39.412-6.502,56.243-17.866
				C245.871,177.164,249.656,160.274,261.896,150.768z"/>
			<path d="M261.896,150.768c10.646-9.288,24.807-12.296,38.104-15.718v6.339c-11.883,3.338-24.697,5.881-34.318,14.175
				c-7.59,6.054-11.406,15.249-17.153,22.829c-4.822,7.551-12.004,13.579-20.332,16.904c-12.854,5.686-27.392,4.73-40.502,9.537
				c-6.444,2.608-12.359,6.697-16.756,12.118c-11.089,13.063-17.823,29.591-30.961,40.952c-6.299,5.542-14.77,7.65-22.914,8.547
				c-9.759,0.544-19.993-0.434-29.159,3.662c-2.651,1.504-4.83-2.338-3.17-4.335c1.713-2.07,4.487-2.681,6.827-3.74
				c-18.467-3.727-36.679-8.669-55.095-12.655c-3.744-0.563-6.792-2.935-9.893-4.915c-5.505-3.786-7.337-11.075-7.212-17.419
				c0.718-0.439,2.153-1.318,2.872-1.758c4.167,1.887,3.303,7.025,5.108,10.526c2.083,4.606,7.309,6.312,11.807,7.589
				c21.287,5.143,42.622,10.095,63.89,15.318c0.557-0.598,1.116-1.191,1.676-1.781l-1.568-0.047
				c5.469-7.43,11.436-14.473,17.015-21.816c-6.8,7.688-13.832,15.551-22.719,20.857c3.616-7.947,8.583-15.188,12.537-22.966
				c9.441-18.083,19.273-35.955,29.208-53.771c5.49-9.787,9.673-20.421,16.817-29.195c3.504-4.15,8.334-7.922,14.051-7.75
				c3.956-0.631,7.066,3.25,7.484,6.848c0.362,4.373-0.959,8.677-2.334,12.778c5.331-7.595,13.843-15.403,23.876-13.569
				c4.112,0.468,6.335,4.926,6.114,8.709c-0.414,5.801-3.309,11.039-6.168,15.975c-2.996,4.6-6.031,9.246-9.963,13.117
				c-11.275,12.075-24.061,22.594-36.391,33.551c-14.82,13.553-29.718,27.333-47.292,37.297l-0.443-0.711
				c-0.132,1.02-0.264,2.041-0.396,3.066c3.448,0.365,6.838,1.541,10.343,1.133c7.7-0.719,15.884-2.357,21.719-7.824
				c15.843-14.222,21.858-36.902,39.962-48.969c16.829-11.442,39.412-6.502,56.243-17.866
				C245.871,177.164,249.656,160.274,261.896,150.768z"/>
		</g>
	</g>
</g>
</svg>
