<?xml version="1.0" encoding="utf-8"?>
<!-- Generator: Adobe Illustrator 13.0.0, SVG Export Plug-In . SVG Version: 6.00 Build 14948)  -->
<!DOCTYPE svg PUBLIC "-//W3C//DTD SVG 1.1//EN" "http://www.w3.org/Graphics/SVG/1.1/DTD/svg11.dtd" [
	<!ENTITY ns_flows "http://ns.adobe.com/Flows/1.0/">
	<!ENTITY ns_extend "http://ns.adobe.com/Extensibility/1.0/">
	<!ENTITY ns_ai "http://ns.adobe.com/AdobeIllustrator/10.0/">
	<!ENTITY ns_graphs "http://ns.adobe.com/Graphs/1.0/">
	<!ENTITY ns_vars "http://ns.adobe.com/Variables/1.0/">
	<!ENTITY ns_imrep "http://ns.adobe.com/ImageReplacement/1.0/">
	<!ENTITY ns_sfw "http://ns.adobe.com/SaveForWeb/1.0/">
	<!ENTITY ns_custom "http://ns.adobe.com/GenericCustomNamespace/1.0/">
	<!ENTITY ns_adobe_xpath "http://ns.adobe.com/XPath/1.0/">
]>
<svg version="1.1"
	 xmlns:x="&ns_extend;" xmlns:i="&ns_ai;" xmlns:graph="&ns_graphs;" i:viewOrigin="156.5 545.5" i:rulerOrigin="0 0" i:pageBounds="0 792 612 0"
	 xmlns="http://www.w3.org/2000/svg" xmlns:xlink="http://www.w3.org/1999/xlink" xmlns:a="http://ns.adobe.com/AdobeSVGViewerExtensions/3.0/"
	 x="0px" y="0px" width="300px" height="300px" viewBox="0 0 300 300" enable-background="new 0 0 300 300" xml:space="preserve">
<metadata><?xpacket begin="﻿" id="W5M0MpCehiHzreSzNTczkc9d"?>
<x:xmpmeta xmlns:x="adobe:ns:meta/" x:xmptk="Adobe XMP Core 4.1-c036 46.277092, Fri Feb 23 2007 14:17:08        ">
   <rdf:RDF xmlns:rdf="http://www.w3.org/1999/02/22-rdf-syntax-ns#">
      <rdf:Description rdf:about=""
            xmlns:xap="http://ns.adobe.com/xap/1.0/"
            xmlns:xapGImg="http://ns.adobe.com/xap/1.0/g/img/">
         <xap:Thumbnails>
            <rdf:Alt>
               <rdf:li rdf:parseType="Resource">
                  <xapGImg:width>256</xapGImg:width>
                  <xapGImg:height>140</xapGImg:height>
                  <xapGImg:format>JPEG</xapGImg:format>
                  <xapGImg:image>/9j/4AAQSkZJRgABAgEASABIAAD/7QAsUGhvdG9zaG9wIDMuMAA4QklNA+0AAAAAABAASAAAAAEA&#xA;AQBIAAAAAQAB/+4ADkFkb2JlAGTAAAAAAf/bAIQABgQEBAUEBgUFBgkGBQYJCwgGBggLDAoKCwoK&#xA;DBAMDAwMDAwQDA4PEA8ODBMTFBQTExwbGxscHx8fHx8fHx8fHwEHBwcNDA0YEBAYGhURFRofHx8f&#xA;Hx8fHx8fHx8fHx8fHx8fHx8fHx8fHx8fHx8fHx8fHx8fHx8fHx8fHx8fHx8f/8AAEQgAjAEAAwER&#xA;AAIRAQMRAf/EAaIAAAAHAQEBAQEAAAAAAAAAAAQFAwIGAQAHCAkKCwEAAgIDAQEBAQEAAAAAAAAA&#xA;AQACAwQFBgcICQoLEAACAQMDAgQCBgcDBAIGAnMBAgMRBAAFIRIxQVEGE2EicYEUMpGhBxWxQiPB&#xA;UtHhMxZi8CRygvElQzRTkqKyY3PCNUQnk6OzNhdUZHTD0uIIJoMJChgZhJRFRqS0VtNVKBry4/PE&#xA;1OT0ZXWFlaW1xdXl9WZ2hpamtsbW5vY3R1dnd4eXp7fH1+f3OEhYaHiImKi4yNjo+Ck5SVlpeYmZ&#xA;qbnJ2en5KjpKWmp6ipqqusra6voRAAICAQIDBQUEBQYECAMDbQEAAhEDBCESMUEFURNhIgZxgZEy&#xA;obHwFMHR4SNCFVJicvEzJDRDghaSUyWiY7LCB3PSNeJEgxdUkwgJChgZJjZFGidkdFU38qOzwygp&#xA;0+PzhJSktMTU5PRldYWVpbXF1eX1RlZmdoaWprbG1ub2R1dnd4eXp7fH1+f3OEhYaHiImKi4yNjo&#xA;+DlJWWl5iZmpucnZ6fkqOkpaanqKmqq6ytrq+v/aAAwDAQACEQMRAD8A9U4q7FXYq7FXYq7FXYq7&#xA;FXYq7FXYq7FXYq7FXYq7FXYq7FXYq7FXYq84/On86tC/LTQxJKFvdfvFP6L0sNQtTYyykbrEp+lj&#xA;sO5Cr4m87/nD+YnnS6kl1vWZzbMxZNOgYw2qDoAsSEKaDarVb3xVh8M88EglgkaKRd1dCVYfIjFX&#xA;sP5X/wDOT/n/AMo3cNtrF1L5h0DZZbW7cvcRpt8UE7fHUAbK5K/Lrir7a8reZ9F80aDZ67otwLnT&#xA;r6MSQyDqP5kcfsuh2ZexxVNcVdirsVdirsVdirsVdirsVdirsVdirsVdirsVdirsVdirsVdirsVd&#xA;irsVdirsVdirsVfmz+a/ni887eftX1+eQvBNM0VghNRHaRErCi02+zufEknvirEcVdirsVfS/wDz&#xA;hb54ubfzBqnky4mrZX0Bv7GNqkLcwlVkVOw9SJuTbfsfeq+vcVdirsVdirsVdirsVdirsVdirsVd&#xA;irsVdirsVdirsVdirsVdirsVdirsVdirsVdiqG1O1e7066tI5PSkuIZIkl/lLqVDbU6VxV+XE8Es&#xA;E8kEylJYmKSIeoZTQg/TiqnirsVdir2X/nEmxurn86dOmhUtHZWt5PckCoWNoTCCfb1JVGKvu/FX&#xA;Yq7FXYq7FXYq7FXYq7FXYq7FXYq7FXYq7FXYq7FXYq7FXYq7FWMecfzN8heTYufmTWrawkIqtqWM&#xA;lwwIJBWCMPKRt140xV4z5h/5zY8mWkhTQtCvdVAH97cSJZoT/k7XD0+ajFWB3n/ObXn1yfqWg6VC&#xA;Owm+sTf8RlhxVDxf85r/AJnBwZtI0V07qkN2h+83LfqxV6Z+Wv8AzmD5a8wajb6T5psP0DdXBEcV&#xA;+knq2bSE0Aeqq8NelTyHiQMVfQuKvh7/AJym/KO88recLjzTp8DN5d16ZpmkRfht7x/iliemyiRq&#xA;un0j9nFXhmKuxVsAk0HXFX23/wA4pflJe+UfLdz5j1uAwa3rqoIrdwRJBZr8Sq4PRpW+Jh2AXvUY&#xA;q94xV2KuxV2KuxV2KuxV2KuxV2KuxV2KuxV2KuxV2KuxV2KuxVLvMPmLRfLuj3Osa1dx2OnWil5p&#xA;5TQeyqOrM3RVG5PTFXx9+af/ADlx5s12abT/ACby0HR6sovdjfTLXZuW4hr4J8X+VirwK4ubi5nk&#xA;uLmV555SWlmkYu7MepZmqScVUsVdirsVV7Kyu767hs7OF7i7uHWKCCJS7u7miqqjcknFX6X+QtK1&#xA;XSfJGgaXq0hl1Ox0+2t7xyQx9WOJVcclqG4kU5d+uKpnq+kaXrGm3GmaraxXun3SencWsyh43Xru&#xA;D4EVHgd8VfN3nf8A5wq0u6uZbvydrJ09Xaq6bfq0sSV6hJ1PqBR2DKx98VYdb/8AOE/5jNMRca1o&#xA;8cNdnje6kan+qYIx/wANir2L8sP+cVvI3k68h1XU5n8w6zAwe3luEEVtE4oVdLcF6uCNi7N7AHfF&#xA;Xs11d2tpCZ7qaO3hWgaWVgignYVZiBiqojq6h0IZGAKsDUEHoQcVbxV2KuxV2KuxV2KuxV2KuxV2&#xA;KuxV2KuxV2KuxV2KuxV2Kvgz/nI785rnz55qk0zTbg/4U0mQx2MakhbiVaq90w713Edei+5OKvLd&#xA;E0HWtd1GLTdGsZtQv5jSO2t0aRz70HQDuTsMVfQXkb/nC/zNqEUd15v1SPRo2Ab6hagXNzTwd6iJ&#xA;D/ql8VeyaL/zij+S2nRFZ9Kn1SQ0HrXt1NyH+xgMCb/6uKpnP/zjV+SExbn5WhHLrwuLuP7uEy0+&#xA;jFUnn/5xK/JaSVnTTrqFWNREl5MVX2HMu33nFWZ+Tvye/LTydcC68vaDb2l4BQXj855wOh4yztI6&#xA;1rvxIxVmOKuxV2KuxVQv7yKysbi8lDNFbRPNIFoWKxqWNKkCtBir82vzB/MXzR571+bV9du3l5Mf&#xA;qtpWkNvFX4Y4kHwgAdT1bqanFWRfkl+cHmLyF5qsVS7kk8u3U6RapprsWhMUjBWljQmiSIPiDCla&#xA;UO2Kv0KxV2KuxV2KuxV2KuxV2KuxV2KuxV2KuxV2KuxV2KuxV5Z/zkt54l8p/lTqUlrJ6eo6uV0y&#xA;zYEcl9cEysK+EKvQjoaYq+Rfya/JPzD+ZerskBNloVow/SOqstVWu/pRD9uUjt0HU9qqvujyH+XP&#xA;lDyLpI03y5YpbIQPrFy1GuJ2UfbmlpVj7dB2AxVkuKuxV2KuxV2KuxV2KuxV2Kqdzbw3NvLbzrzh&#xA;mRo5UNRVXFGG3iDir8wvM+g3fl/zFqeh3gpc6Zcy2svuYnK8h7GlRiqWYq/TnyPqx1jyXoOqmT1W&#xA;v9Ptbh5K1JaWFWavXep3xVO8VdirsVdirsVdirC/zZ/M/R/y68pza1fUmu3Po6ZYcuLXE5FQveiq&#xA;N3bsPcjFXx/YQ/8AORf5uXN55g0qS/voYpPSYw3kdjaxE/F6UKSTQr8I68anpyxVG/8AKjf+cpP+&#xA;WXUP+4xa/wDZXirv+VG/85Sf8suof9xi1/7K8Vd/yo3/AJyk/wCWXUP+4xa/9leKu/5Ub/zlJ/yy&#xA;6h/3GLX/ALK8VQ+oflB/zk5pVjcanc2+ppb2UbTyvFqsMsirGORZUiuXkYgDoqk4q9f/AOccf+cj&#xA;Y9YspvLvnvVIodTs0Eljq95IkK3EIoDHK7lV9VOoJ3Ye43Veqah+e/5PWDsk/m3TnK9Tby/WR0rs&#xA;YBIDirHdT/5yt/JOyoItYmv235LbWlxtSlN5UiU1r2OKvnj/AJyT/O3y9+ZEuh2vl9LqPT9M+sSX&#xA;DXMaxl5ZiiqVVXfZVjPWnXFWS+Vf+csvLHkzyvZ+XvLXkpxa2cYUSTXqo0kpH7yaXjA/Jnbc7+wo&#xA;KYqsk/5zc85M/wC58uacqkiis87H33DL+rFX1vomonU9GsNSa3ktGvraK5NrMKSRGVA/puP5l5UO&#xA;KozFXYq7FXYq7FXYq7FXYq7FXyN/zmL+VstrqkP5gabDWzvAlrrXAfYuFHGGZh4SIAhPiB3bFXzJ&#xA;ir7f/wCcR/zCs9d/L5PLE0qjV/LpaP0iQGktJHLxSKK1IQsY2oNvh8cVe64q7FXYq7FXYq7FXx5/&#xA;zm5qFy/nHy7pxY/VrfTnuESvwh552RzTxpAuKvpv8r/L+m+X/wAvfL+l6dGI4IrGB2IABeWWMSSy&#xA;NT9p3YscVZRirsVdirsVcRXY9MVfnv8AmD5Giu/z+1TyhpQSwTUNYFtaht4ojdsrDZeiAybAdBir&#xA;1XTf+cHdSep1PzbDDSlFtrNpq9eXxPLDSm1NjirINP8A+cIfKSOp1DzJf3CD7a28UMBO3Yv69N/Y&#xA;4qyK0/5w6/KCCnqnU7qn+/bpRXb/AIqjjxVk1p/zjZ+SNqaxeVoW/wCM091N7/7tlfFWS6X+WH5c&#xA;aV6R0/yvpVtJCQ0cyWcHqhlNVb1Cheo8a4qybFXYq7FXYq7FXYq7FXYq7FXYqgta0bTNb0m70nVL&#xA;dLrT72Nobm3kFVZGFD8j3B7HfFXwN+d35Ja3+XGuOyRyXXli6kP6M1OnICtSIZiAAsqgf7IbjuAq&#xA;wfyt5q17yrrltrmhXb2epWrVjlXcEHZkdTsyMNip2OKvs/8AKv8A5yp8k+aoYLHzHJH5d180Rlma&#xA;llM3SsUzbJU/syH2BbFXtsckcsayxMHjcBkdSCrKRUEEdQcVXYq7FXYq7FXxx/zm2Y/8daAB/ejS&#xA;zy/1frEnH8a4q+sfKP8Ayimi/wDMBbf8mVxVNsVdirsVdirsVfn5+e2qX+lfn55h1LTpmtr6zvop&#xA;rW4SnJJEhjKsK13BxVux/OP/AJyF1CEz2Gs6vdwhihlgh9VQwAJHJIyK74qiP+Vo/wDOSv8Ay365&#xA;/wBIrf8AVLFXf8rR/wCclf8Alv1z/pFb/qlirv8AlaP/ADkr/wAt+uf9Irf9UsVd/wArR/5yV/5b&#xA;9c/6RW/6pYq7/laP/OSv/Lfrn/SK3/VLFXf8rR/5yV/5b9c/6RW/6pYq7/laP/OSv/Lfrn/SK3/V&#xA;LFXf8rR/5yV/5b9c/wCkVv8Aqlirv+Vo/wDOSv8Ay365/wBIrf8AVLFXf8rR/wCclf8Alv1z/pFb&#xA;/qlirv8AlaP/ADkr/wAt+uf9Irf9UsVd/wArR/5yV/5b9c/6RW/6pYq7/laP/OSv/Lfrn/SK3/VL&#xA;FXf8rR/5yV/5b9c/6RW/6pYq7/laP/OSv/Lfrn/SK3/VLFUHrHnj/nIDWtNn0zVpNXvtPuV4T2s9&#xA;kXRh7gxdR1B7Yqwn/Bvm/wD6seof9Is3/NOKu/wb5v8A+rHqH/SLN/zTiqf+X7z85vLqGPQm1/TY&#xA;iQWhtlu44yR0rGBwPXuMVZEn5nf85KIoUahrpA6VtnY/eYicVb/5Wj/zkr/y365/0it/1SxV99Yq&#xA;7FXxx/zm3bsvnnQLkg8JNMMYNNqx3EjGh8f3gxV9T/l5qlnqnkTy9qFk/qW1xp1syN32iUMp91YE&#xA;H3xVkGKuxV2KuxV2KvgbzB5ek/NH8+/M1losjPHcT6hLDcgBlIsoXEbbH7EkkSKD4MNu2Ks8/wCc&#xA;KvOX1XzBrPlGeSkOowi+slJP9/b/AAyKo8Xiap/1MVfXuKuxV2KuxV2KuxV2KuxV2KuxV2KuxV2K&#xA;uxV2KuxV2KuxV2KuxV2KuxV2KvOPz1/KS3/Mnyh9RiZYNb09muNIuX2USEUeJzQ/BIAK+BAPbFXy&#xA;h5R/Ob82fybF75ReygAimMh07Vopn9B2+0YTHLD8En2tiVPUdSSqyL/odX80/wDq1aH/ANI95/2V&#xA;4q7/AKHV/NP/AKtWh/8ASPef9leKu/6HV/NP/q1aH/0j3n/ZXirv+h1fzT/6tWh/9I95/wBleKoL&#xA;Wv8AnLz819b0q60dLPTLRtQjNuLiyguRcr6nwn0i9xIAxrQfCfbfFXtP/OLf5LXnkzR5/MuvwmDz&#xA;FrEYjjtHFHtbSobg3cSSsAzjsAo61xV4X55jn/Kf/nJJtUhV0sYtRTVIQGAL2d6eU8alei0eWLcd&#xA;u/dV91RSxTRJNC6yRSKHjkQhlZWFQykbEEYquxV2KuxV2KuxV2KuxV2KuxV2KuxV2KuxV2KuxV2K&#xA;uxV2KuxV2KuxV2KuxVDXumabfcPrtpDdenX0/WjSTjypWnIGlaDFXxB+Raqn/OUVmqgKq3+sBVGw&#xA;AFrdbDFX3RirsVfIX/OYnnG41rzdo/kLSyZzYcZrq3joS97d0WCPx5LE23+vir6Z/Ljyfb+TvI+j&#xA;eW4eJOn26pcSKKCSdvjnkpU/blZj1xVkmKvmP/nNfyWs+k6L5xt4qy2ch06+dQK+jLWSEsetEkDj&#xA;5vir0z/nGzzj/ij8o9HklkMl7pSnS7ytK1tqCLp1rAYzU96/PFXqGKuxV2KuxV2KuxV2KuxV2Kux&#xA;V2KuxV2KuxV2KuxV2KuxV2KuxV2KuxV2KuxV8Mfkb/61Ja/9tDWP+oW7xV9z4qgtc1ix0XRr7WL9&#xA;/TstPgkubhz2jiUu300G2Kvjr/nHbR778x/zx1Dztqyc4dOlfVZwSGUXM7MtrFuOibsv+oMVfaWK&#xA;uxViv5peT4/OH5f635eKgzXls31QsK8biP8AeQN2/wB2IuKvmb/nC/za+necNY8pXRMaarB9Yt42&#xA;BBFzZk809i0TsTX+XFX2HirsVdirsVdirsVdirsVdirsVdirsVdirsVdirsVdirsVdirsVdiqF1P&#xA;VdL0q0a81O8gsLRNnubmRIYxXxdyqjFXnt7/AM5K/khZTGKbzTEzAkVgt7uddv8ALhhkX8cVRejf&#xA;85Afk3rE6QWfmqzWWTZBdepZgnw5XKQiuKvlf8iZI5P+cobOSNg8b3+rsjqQQQbW6III6g4q+6cV&#xA;fP3/ADmN57Oj+RrXyvay8bzzDLW4Ckgi0tiHfcdOchQe45YqyP8A5xc8i/4X/KuyubiPhqOvt+kr&#xA;mtaiOQAW670/3UA3zY4q9exV2KrZJI4o2kkYJGgLO7EAADqSTir4F84a9o3kr/nIWfzH5Xvob/S7&#xA;bU11BZLR+cZSejXUAZdv25E+EkUxV98W1zBdW8VzbuJYJ0WSGRdwyOOSsPYg4qqYq7FXYq7FXYq7&#xA;FXYq7FXYq7FXYq7FXYq7FXYq7FXYq7FXYq+UfzI/5zNmf1bDyDY+ku6/pm/UFvnDb7qPYyE/6uKv&#xA;MNJ/Ln89PzevF1a5W7vbeTdNW1WQw2qqx/3SG/YB7QoQPDFXqWjf84PMbcNrXmoJcHrDZ2vJB/z0&#xA;kkUt/wAAMVQPmP8A5wj1yCJpfLvmO3vXAYi2vYWtiadFEkbTgk+6jFXlEGmfmV+SvnjT9d1DRja3&#xA;9i8n1V7lfVtJhLE0ThZYm4NWOQ/ZaoxV9Sfln/zlX5C81mOx1ojy3rDUUJdODaSMdv3dx8IHykC+&#xA;1cVeGebbiX85/wDnJGLS4CZdFhuhYRsK8RYWJZriSqnb1SJCpqPtKOuKvt2KKOGJIolCRRqERFFA&#xA;FUUAA9sVXYqwL80Pzq8k/l3ZFtWufrGqutbbSLchrh9tiw6Rp/lN9FcVfJ2u+evzm/PbXW0fSbeU&#xA;aYCD+ibMlLSFK7PdTNQN83NK/ZUYq9U8hf8AOFukWrRXfnbVW1CUUZtMsKxQVqPhedv3rr48VQ++&#xA;KvpLTtPs9N0+106xiEFlZxJb2sK1ISKJQiKK1OygDFURirsVdirsVdirsVdirsVdirsVdirsVdir&#xA;sVdirsVdirsVdirxn8s/+cWvy/8AKAjvNVjHmPWlo31i8QfV42/4qtqsv0vyPhTFXswAAAAoBsAO&#xA;lMVdirsVQuqaVpmq2E2n6naxXtjOvGa2nRZI2HurAjFXzl+Zn/OG2k3zTaj5Duxptwat+h7ss9sx&#xA;60im+KSOvg3Ie4GKvEdKT82vyN80NrE2imyuniktPWvIfrFpJGzIzBJo24E1Vd1evbvir0+1/wCc&#xA;4tZWFRdeU7eWb9p4rx4lPyVopSP+CxVjXmX/AJyr/NzzbKNK8s2qaSbmiJDpsb3N65O1FkYMd+3p&#xA;oD74qj/y6/5xQ88eZ9QGsefp5dKspmEs8UjiXUbiu55El/SJ7mSrf5OKvrTyp5Q8ueU9Gi0fy/Yx&#xA;2FhFvwjHxO3d5HPxO57sxriqcYq7FXYq7FXYq7FXYq7FXYq7FXYq7FXYq7FXYq7FXYq7FXYq7FXY&#xA;q7FXYq7FXYq7FXYqo3v1L6pN9e9P6nwPr+vx9PhTfny+GnjXFXnF7/0LP9Yb69/gv6z+36/6K59e&#xA;/LfrirLvKf8AgL0JP8I/or0NvV/RP1fh1NOX1fbx64qn+KuxV2KuxV2KuxV2KuxV2KuxV2KuxV2K&#xA;uxV2KuxV2KuxV2KuxV2KuxV2Kv8A/9k=</xapGImg:image>
               </rdf:li>
            </rdf:Alt>
         </xap:Thumbnails>
         <xap:CreatorTool>Adobe Illustrator CS3</xap:CreatorTool>
         <xap:ModifyDate>2008-01-04T01:33:31-08:00</xap:ModifyDate>
         <xap:MetadataDate>2008-01-04T01:33:31-08:00</xap:MetadataDate>
      </rdf:Description>
      <rdf:Description rdf:about=""
            xmlns:xapTPg="http://ns.adobe.com/xap/1.0/t/pg/"
            xmlns:stDim="http://ns.adobe.com/xap/1.0/sType/Dimensions#"
            xmlns:xapG="http://ns.adobe.com/xap/1.0/g/">
         <xapTPg:MaxPageSize rdf:parseType="Resource">
            <stDim:w>612.000000</stDim:w>
            <stDim:h>792.000000</stDim:h>
            <stDim:unit>Points</stDim:unit>
         </xapTPg:MaxPageSize>
         <xapTPg:NPages>1</xapTPg:NPages>
         <xapTPg:HasVisibleTransparency>False</xapTPg:HasVisibleTransparency>
         <xapTPg:HasVisibleOverprint>False</xapTPg:HasVisibleOverprint>
         <xapTPg:PlateNames>
            <rdf:Seq>
               <rdf:li>Cyan</rdf:li>
               <rdf:li>Magenta</rdf:li>
               <rdf:li>Yellow</rdf:li>
               <rdf:li>Black</rdf:li>
            </rdf:Seq>
         </xapTPg:PlateNames>
         <xapTPg:SwatchGroups>
            <rdf:Seq>
               <rdf:li rdf:parseType="Resource">
                  <xapG:groupName>Default Swatch Group</xapG:groupName>
                  <xapG:groupType>0</xapG:groupType>
               </rdf:li>
            </rdf:Seq>
         </xapTPg:SwatchGroups>
      </rdf:Description>
      <rdf:Description rdf:about=""
            xmlns:dc="http://purl.org/dc/elements/1.1/">
         <dc:format>image/svg+xml</dc:format>
      </rdf:Description>
      <rdf:Description rdf:about=""
            xmlns:xapMM="http://ns.adobe.com/xap/1.0/mm/">
         <xapMM:InstanceID>uuid:5BB93884A7BADC11828F907C0EB444D3</xapMM:InstanceID>
      </rdf:Description>
   </rdf:RDF>
</x:xmpmeta>
                                                                                                    
                                                                                                    
                                                                                                    
                                                                                                    
                                                                                                    
                                                                                                    
                                                                                                    
                                                                                                    
                                                                                                    
                                                                                                    
                                                                                                    
                                                                                                    
                                                                                                    
                                                                                                    
                                                                                                    
                                                                                                    
                                                                                                    
                                                                                                    
                                                                                                    
                                                                                                    
                           
<?xpacket end="w"?>
	</metadata>
<g id="Layer_1" i:layer="yes" i:dimmedPercent="50" i:rgbTrio="#4F008000FFFF">
	<g>
		<g id="surface0" i:knockout="Off">
			<path fill="none" stroke="#000000" stroke-width="0.1" stroke-miterlimit="10" d="M216.586,69.898
				c7.244-0.694,14.902,2.278,19.453,8.038c3.159,3.607,4.612,8.367,5.107,13.06c-0.199,7.189-3.86,14.232-9.894,18.229
				c-5.751,3.687-13.224,4.826-19.681,2.402c-9.923-3.109-16.676-14.335-14.311-24.533C199.227,77.964,207.32,70.853,216.586,69.898
				z"/>
			<path d="M216.586,69.898c7.244-0.694,14.902,2.278,19.453,8.038c3.159,3.607,4.612,8.367,5.107,13.06
				c-0.199,7.189-3.86,14.232-9.894,18.229c-5.751,3.687-13.224,4.826-19.681,2.402c-9.923-3.109-16.676-14.335-14.311-24.533
				C199.227,77.964,207.32,70.853,216.586,69.898z"/>
			<path fill="none" stroke="#000000" stroke-width="0.1" stroke-miterlimit="10" d="M136.048,111.01
				c10.867-6.264,23.453-9.481,35.978-9.498c5.558,0.221,12.101,0.946,15.476,5.991c3.09,3.45-0.303,8.567-3.877,10.1
				c-6.865,2.916-14.398,0.894-21.556,0.803c-5.191-0.29-10.308,0.94-15.183,2.608c-10.327,3.857-20.456,9.998-25.884,19.948
				c6.333-0.292,12.603-1.469,18.953-1.472c0.438,0.718,1.313,2.152,1.751,2.87c-0.854,1.416-1.813,3.075-3.709,3.039
				c-15.229,1.643-30.471,3.249-45.73,4.603c-0.052,2.077-0.084,4.154-0.113,6.234c53.832,0.384,107.674-0.044,161.508,0.215
				c-8.79-6.503-15.979-15.602-18.848-26.266c-0.715-3.794-1.645-8.758,2.123-11.28c4.805-4.869,14-1.752,15.48,4.731
				c1.588,6.799,1.153,14.507,5.633,20.304c4.18,5.053,9.955,8.674,16.15,10.738c8.33,2.691,17.211,1.251,25.799,1.592v6.111
				c-67.791,0.043-135.588-0.027-203.381-0.005c5.785,16.376,11.097,32.917,16.889,49.292c-2.327,1.486-4.919,2.437-7.49,3.4
				c-7.372,2.771-12.885,8.795-20.126,11.829c-7.923,4.001-17.605,4.573-25.706,0.746c-11.528-4.068-21.393-13.518-34.204-13.274
				c-9.434,0.89-17.664,6.174-25.981,10.283v-6.967c6.705-3.434,13.453-7.023,20.811-8.844c5.871-1.357,11.922-0.383,17.586,1.393
				c-0.032-9.261-0.018-18.521-0.008-27.781c-2.808-0.219-6.067,0.57-8.352-1.52c-3.088-2.549-5.925-5.764-7.016-9.695
				c-0.495-5.079-0.069-10.199-0.213-15.295c0.063-4.262-0.693-9.015,2.154-12.608c2.471-3.169,5.399-7.455,9.976-6.969
				c15.375,0.02,30.75,0.021,46.125-0.001c4.889-0.55,7.471,4.454,9.866,7.84c8.623-0.955,17.263-1.752,25.889-2.682
				C118.856,129.467,124.89,117.005,136.048,111.01z"/>
			<path d="M136.048,111.01c10.867-6.264,23.453-9.481,35.978-9.498c5.558,0.221,12.101,0.946,15.476,5.991
				c3.09,3.45-0.303,8.567-3.877,10.1c-6.865,2.916-14.398,0.894-21.556,0.803c-5.191-0.29-10.308,0.94-15.183,2.608
				c-10.327,3.857-20.456,9.998-25.884,19.948c6.333-0.292,12.603-1.469,18.953-1.472c0.438,0.718,1.313,2.152,1.751,2.87
				c-0.854,1.416-1.813,3.075-3.709,3.039c-15.229,1.643-30.471,3.249-45.73,4.603c-0.052,2.077-0.084,4.154-0.113,6.234
				c53.832,0.384,107.674-0.044,161.508,0.215c-8.79-6.503-15.979-15.602-18.848-26.266c-0.715-3.794-1.645-8.758,2.123-11.28
				c4.805-4.869,14-1.752,15.48,4.731c1.588,6.799,1.153,14.507,5.633,20.304c4.18,5.053,9.955,8.674,16.15,10.738
				c8.33,2.691,17.211,1.251,25.799,1.592v6.111c-67.791,0.043-135.588-0.027-203.381-0.005
				c5.785,16.376,11.097,32.917,16.889,49.292c-2.327,1.486-4.919,2.437-7.49,3.4c-7.372,2.771-12.885,8.795-20.126,11.829
				c-7.923,4.001-17.605,4.573-25.706,0.746c-11.528-4.068-21.393-13.518-34.204-13.274c-9.434,0.89-17.664,6.174-25.981,10.283
				v-6.967c6.705-3.434,13.453-7.023,20.811-8.844c5.871-1.357,11.922-0.383,17.586,1.393c-0.032-9.261-0.018-18.521-0.008-27.781
				c-2.808-0.219-6.067,0.57-8.352-1.52c-3.088-2.549-5.925-5.764-7.016-9.695c-0.495-5.079-0.069-10.199-0.213-15.295
				c0.063-4.262-0.693-9.015,2.154-12.608c2.471-3.169,5.399-7.455,9.976-6.969c15.375,0.02,30.75,0.021,46.125-0.001
				c4.889-0.55,7.471,4.454,9.866,7.84c8.623-0.955,17.263-1.752,25.889-2.682C118.856,129.467,124.89,117.005,136.048,111.01z"/>
			<path fill="none" stroke="#FFFFFF" stroke-width="0.1" stroke-miterlimit="10" d="M33.202,142.654
				c16.335-0.082,32.67-0.006,49.005-0.039c1.522,2.218,3.755,4.388,3.602,7.293c0.032,5.733,0.031,11.468-0.001,17.203
				c0.069,3.537-2.309,6.411-4.076,9.261c-15.961-0.065-31.934,0.167-47.888-0.109c-2.001-1.638-3.854-3.822-4.573-6.328
				c-0.235-6.343-0.02-12.698-0.104-19.044C28.69,147.518,31.461,145.157,33.202,142.654z"/>
			<path fill="#FFFFFF" d="M33.202,142.654c16.335-0.082,32.67-0.006,49.005-0.039c1.522,2.218,3.755,4.388,3.602,7.293
				c0.032,5.733,0.031,11.468-0.001,17.203c0.069,3.537-2.309,6.411-4.076,9.261c-15.961-0.065-31.934,0.167-47.888-0.109
				c-2.001-1.638-3.854-3.822-4.573-6.328c-0.235-6.343-0.02-12.698-0.104-19.044C28.69,147.518,31.461,145.157,33.202,142.654z"/>
			<path fill="none" stroke="#FFFFFF" stroke-width="0.1" stroke-miterlimit="10" d="M83.657,182.436
				c4.614-3.455,7.812-8.803,8.414-14.561c4.368,13.506,9.037,26.918,13.654,40.342c-10.559,3.844-18.417,13.152-29.608,15.465
				c-4.74,1.28-9.529-0.197-14.016-1.703c5.111-13.268,10.625-26.377,15.917-39.572C79.897,182.389,81.776,182.392,83.657,182.436z"
				/>
			<path fill="#FFFFFF" d="M83.657,182.436c4.614-3.455,7.812-8.803,8.414-14.561c4.368,13.506,9.037,26.918,13.654,40.342
				c-10.559,3.844-18.417,13.152-29.608,15.465c-4.74,1.28-9.529-0.197-14.016-1.703c5.111-13.268,10.625-26.377,15.917-39.572
				C79.897,182.389,81.776,182.392,83.657,182.436z"/>
			<path fill="none" stroke="#FFFFFF" stroke-width="0.1" stroke-miterlimit="10" d="M44.62,182.38
				c8.843,0.01,17.687-0.021,26.531,0.019c-5.069,12.133-9.823,24.396-14.888,36.533c-3.839-2.059-7.693-4.092-11.592-6.032
				C44.556,202.727,44.649,192.553,44.62,182.38z"/>
			<path fill="#FFFFFF" d="M44.62,182.38c8.843,0.01,17.687-0.021,26.531,0.019c-5.069,12.133-9.823,24.396-14.888,36.533
				c-3.839-2.059-7.693-4.092-11.592-6.032C44.556,202.727,44.649,192.553,44.62,182.38z"/>
		</g>
	</g>
</g>
</svg>
